<?xml version="1.0" encoding="UTF-8" standalone="no"?>
<!DOCTYPE svg PUBLIC "-//W3C//DTD SVG 1.1//EN" "http://www.w3.org/Graphics/SVG/1.1/DTD/svg11.dtd">
<svg version="1.1" xmlns="http://www.w3.org/2000/svg" xmlns:xlink="http://www.w3.org/1999/xlink" preserveAspectRatio="xMidYMid meet" viewBox="0 0 640 640" width="640" height="640"><defs><path d="M304.96 401.7C291.66 401.7 280.88 390.92 280.88 377.61C280.88 364.31 291.66 353.53 304.96 353.53C311.4 353.53 362.92 353.53 369.36 353.53C378.15 353.53 385.33 346.35 385.33 337.56C385.33 328.78 378.15 321.6 369.36 321.6C367.35 321.6 357.28 321.6 339.16 321.6C339.16 308.26 339.16 300.86 339.16 299.38C339.16 290.59 331.98 283.41 323.19 283.41C314.41 283.41 307.23 290.59 307.23 299.38C307.23 300.86 307.23 308.26 307.23 321.6C305.87 321.6 305.12 321.6 304.96 321.6C274.1 321.6 248.95 346.74 248.95 377.61C248.95 408.48 274.1 433.63 304.96 433.63C308.62 433.63 337.9 433.63 341.56 433.63C354.86 433.63 365.64 444.41 365.64 457.71C365.64 471.02 354.86 481.8 341.56 481.8C335 481.8 282.52 481.8 275.96 481.8C267.18 481.8 259.99 488.98 259.99 497.76C259.99 506.54 267.18 513.73 275.96 513.73C278.05 513.73 288.52 513.73 307.36 513.73C307.36 527.38 307.36 534.97 307.36 536.48C307.36 545.26 314.54 552.45 323.33 552.45C332.11 552.45 339.29 545.26 339.29 536.48C339.29 534.97 339.29 527.38 339.29 513.73C340.89 513.73 341.78 513.73 341.95 513.73C342.09 513.73 342.22 513.73 342.35 513.73C372.96 513.33 397.57 488.32 397.57 457.71C397.57 426.84 372.42 401.7 341.56 401.7C334.24 401.7 308.62 401.7 304.96 401.7Z" id="e2uHnBGVzl"></path><path d="M416.5 0.06L418.04 0.14L419.57 0.25L421.09 0.39L422.61 0.57L424.11 0.77L425.61 1.01L427.11 1.28L428.59 1.58L430.07 1.91L431.54 2.27L433.01 2.67L434.46 3.1L435.91 3.56L437.36 4.05L438.8 4.57L440.23 5.13L441.66 5.72L443.08 6.34L444.49 6.99L445.9 7.67L447.3 8.39L448.7 9.14L450.09 9.92L451.48 10.73L452.86 11.58L454.23 12.46L455.6 13.37L456.96 14.31L458.32 15.29L459.68 16.3L461.03 17.34L462.37 18.41L463.72 19.52L465.05 20.66L466.38 21.83L467.71 23.04L469.03 24.28L470.35 25.55L470.73 25.92L471.1 26.31L471.45 26.7L471.79 27.1L472.11 27.52L472.41 27.94L472.7 28.37L472.97 28.8L473.23 29.25L473.47 29.7L473.69 30.15L473.9 30.62L474.1 31.09L474.27 31.56L474.44 32.04L474.58 32.52L474.71 33.01L474.83 33.5L474.93 34L475.01 34.49L475.08 34.99L475.13 35.5L475.16 36L475.18 36.51L475.18 37.01L475.17 37.52L475.14 38.03L475.1 38.53L475.03 39.04L474.96 39.54L474.86 40.05L474.75 40.55L474.63 41.05L474.48 41.54L474.32 42.04L474.15 42.53L473.96 43.01L473.75 43.49L473.52 43.97L473.28 44.44L405.42 170.31L406.8 171.33L408.24 172.4L409.75 173.53L411.31 174.72L412.94 175.97L414.61 177.27L416.35 178.63L418.14 180.04L419.98 181.51L421.87 183.04L423.81 184.63L425.8 186.27L427.83 187.96L429.9 189.71L432.02 191.52L434.18 193.39L436.38 195.31L438.62 197.28L440.89 199.31L443.19 201.4L445.53 203.54L447.9 205.73L450.3 207.98L452.73 210.29L455.18 212.65L457.66 215.06L460.16 217.53L462.68 220.06L465.23 222.63L467.79 225.27L470.36 227.95L472.95 230.69L475.56 233.49L478.18 236.33L480.8 239.23L483.44 242.19L486.08 245.19L488.73 248.26L491.38 251.37L494.04 254.54L496.22 257.17L498.38 259.8L500.52 262.45L502.64 265.11L504.73 267.77L506.8 270.44L508.84 273.12L510.86 275.81L512.86 278.51L514.84 281.21L516.79 283.92L518.72 286.65L520.63 289.37L522.51 292.11L524.37 294.85L526.21 297.6L528.02 300.36L529.81 303.12L531.58 305.9L533.32 308.67L535.04 311.46L536.74 314.25L538.41 317.05L540.06 319.85L541.69 322.66L543.29 325.48L544.87 328.3L546.42 331.13L547.95 333.97L549.46 336.81L550.94 339.65L552.4 342.51L553.84 345.36L555.25 348.23L556.64 351.09L558.01 353.97L559.35 356.84L560.66 359.73L561.96 362.61L563.23 365.51L564.78 369.15L566.3 372.81L567.78 376.47L569.22 380.14L570.62 383.81L571.99 387.5L573.31 391.19L574.59 394.89L575.84 398.59L577.04 402.31L578.21 406.02L579.34 409.75L580.43 413.48L581.48 417.22L582.48 420.96L583.46 424.71L584.39 428.47L585.28 432.23L586.13 436L586.94 439.77L587.72 443.54L588.45 447.33L589.15 451.11L589.8 454.91L590.42 458.7L590.99 462.5L591.53 466.31L592.03 470.12L592.48 473.93L592.9 477.75L593.28 481.57L593.62 485.4L593.92 489.23L594.18 493.06L594.4 496.9L594.57 500.74L594.71 504.58L594.81 508.43L594.87 512.27L594.89 516.12L594.79 521.22L594.48 526.26L593.97 531.25L593.27 536.18L592.37 541.04L591.28 545.84L590.01 550.57L588.56 555.22L586.94 559.79L585.14 564.28L583.17 568.68L581.04 572.98L578.75 577.2L576.3 581.31L573.7 585.32L570.95 589.22L568.06 593L565.02 596.68L561.85 600.23L558.55 603.66L555.12 606.96L551.57 610.13L547.9 613.16L544.11 616.05L540.21 618.8L536.2 621.4L532.09 623.85L527.88 626.14L523.57 628.28L519.17 630.24L514.68 632.04L510.11 633.67L505.46 635.12L500.74 636.39L495.94 637.48L491.07 638.37L486.15 639.08L481.16 639.59L476.11 639.9L471.02 640L168.98 640L163.89 639.9L158.84 639.59L153.85 639.08L148.93 638.37L144.06 637.48L139.26 636.39L134.54 635.12L129.89 633.67L125.32 632.04L120.83 630.24L116.43 628.28L112.12 626.14L107.91 623.85L103.8 621.4L99.79 618.8L95.89 616.05L92.1 613.16L88.43 610.13L84.88 606.96L81.45 603.66L78.15 600.23L74.98 596.68L71.94 593L69.05 589.22L66.3 585.32L63.7 581.31L61.25 577.2L58.96 572.98L56.83 568.68L54.86 564.28L53.06 559.79L51.44 555.22L49.99 550.57L48.72 545.84L47.63 541.04L46.73 536.18L46.03 531.25L45.52 526.26L45.21 521.22L45.11 516.12L45.13 512.27L45.19 508.43L45.29 504.58L45.43 500.74L45.6 496.9L45.82 493.06L46.08 489.23L46.38 485.4L46.72 481.57L47.1 477.75L47.52 473.93L47.97 470.12L48.47 466.31L49.01 462.5L49.58 458.7L50.2 454.91L50.85 451.11L51.55 447.33L52.28 443.54L53.06 439.77L53.87 436L54.72 432.23L55.61 428.47L56.54 424.71L57.52 420.96L58.52 417.22L59.57 413.48L60.66 409.75L61.79 406.02L62.96 402.31L64.16 398.59L65.41 394.89L66.69 391.19L68.01 387.5L69.38 383.81L70.78 380.14L72.22 376.47L73.7 372.81L75.22 369.15L76.77 365.51L78.04 362.61L79.34 359.73L80.66 356.84L82 353.97L83.36 351.09L84.76 348.23L86.17 345.36L87.61 342.51L89.07 339.65L90.56 336.81L92.07 333.97L93.6 331.13L95.16 328.3L96.74 325.48L98.35 322.66L99.98 319.85L101.63 317.05L103.31 314.25L105.01 311.46L106.73 308.67L108.47 305.9L110.24 303.12L112.03 300.36L113.85 297.6L115.69 294.85L117.55 292.11L119.43 289.37L121.34 286.65L123.26 283.92L125.22 281.21L127.19 278.51L129.19 275.81L131.21 273.12L133.25 270.44L135.31 267.77L137.4 265.11L139.51 262.45L141.64 259.8L143.79 257.17L145.96 254.54L148.57 251.44L151.17 248.39L153.77 245.39L156.36 242.45L158.95 239.55L161.53 236.71L164.09 233.91L166.65 231.17L169.2 228.48L171.73 225.84L174.24 223.25L176.74 220.72L179.22 218.24L181.68 215.8L184.11 213.42L186.52 211.1L188.91 208.82L191.27 206.6L193.61 204.43L195.91 202.31L198.18 200.25L200.42 198.24L202.62 196.28L204.79 194.37L206.93 192.52L209.02 190.72L211.07 188.98L213.08 187.29L215.05 185.65L216.97 184.07L218.85 182.54L220.67 181.07L222.45 179.65L224.18 178.28L225.85 176.97L227.47 175.72L229.04 174.52L230.54 173.37L231.99 172.28L233.38 171.24L160.2 60.67L159.9 60.2L159.62 59.72L159.35 59.23L159.11 58.74L158.88 58.24L158.67 57.73L158.48 57.22L158.31 56.71L158.16 56.19L158.02 55.67L157.9 55.14L157.8 54.61L157.72 54.08L157.66 53.55L157.61 53.01L157.58 52.48L157.57 51.94L157.57 51.41L157.6 50.88L157.64 50.35L157.7 49.81L157.77 49.29L157.87 48.76L157.98 48.24L158.1 47.72L158.25 47.21L158.41 46.7L158.59 46.19L158.79 45.69L159 45.2L159.23 44.71L159.48 44.23L159.74 43.76L160.03 43.3L160.32 42.84L160.64 42.4L160.97 41.96L161.32 41.54L161.68 41.12L162.06 40.72L163.93 38.82L165.8 36.98L167.67 35.2L169.55 33.46L171.43 31.77L173.31 30.13L175.19 28.54L177.09 27L178.98 25.51L180.88 24.07L182.79 22.68L184.7 21.34L186.62 20.05L188.55 18.81L190.48 17.62L192.42 16.47L194.37 15.37L196.33 14.33L198.29 13.33L200.27 12.37L202.25 11.47L204.24 10.61L206.24 9.8L208.26 9.04L210.28 8.33L212.32 7.66L214.36 7.04L216.42 6.47L218.49 5.94L220.57 5.46L222.67 5.03L224.78 4.64L226.9 4.3L229.03 4.01L231.18 3.76L233.35 3.55L235.53 3.4L237.72 3.28L239.93 3.22L242.16 3.19L243.93 3.21L245.7 3.25L247.48 3.31L249.26 3.41L251.04 3.52L252.84 3.67L254.63 3.84L256.44 4.03L258.25 4.25L260.08 4.5L261.91 4.77L263.75 5.06L265.6 5.37L267.46 5.71L269.34 6.08L271.22 6.46L273.12 6.87L275.04 7.3L276.96 7.76L278.9 8.23L280.86 8.73L282.83 9.25L284.82 9.79L286.82 10.35L288.85 10.93L290.89 11.53L292.95 12.16L295.03 12.8L297.13 13.46L299.25 14.14L301.39 14.84L303.56 15.56L305.74 16.3L307.95 17.05L310.18 17.82L312.44 18.62L314.73 19.42L317.03 20.25L319.37 21.09L321.73 21.95L321.91 22.02L322.09 22.09L322.27 22.15L322.45 22.22L322.63 22.28L322.81 22.34L322.99 22.4L323.17 22.45L323.35 22.5L323.53 22.56L323.71 22.6L323.9 22.65L324.08 22.7L324.26 22.74L324.45 22.78L324.63 22.82L324.81 22.86L325 22.9L325.19 22.94L325.37 22.97L325.56 23L325.75 23.03L325.94 23.06L326.13 23.08L326.32 23.11L326.51 23.13L326.7 23.15L326.9 23.17L327.09 23.19L327.29 23.21L327.48 23.22L327.68 23.24L327.88 23.25L328.08 23.26L328.28 23.27L328.49 23.27L328.69 23.28L328.9 23.28L329.11 23.28L329.31 23.28L330.01 23.28L330.71 23.25L331.41 23.21L332.13 23.15L332.85 23.07L333.58 22.98L334.32 22.87L335.07 22.75L335.82 22.61L336.58 22.46L337.34 22.29L338.11 22.12L338.89 21.93L339.67 21.72L340.46 21.51L341.26 21.28L342.06 21.05L342.87 20.8L343.68 20.54L344.5 20.27L345.32 20L346.15 19.71L346.98 19.42L347.82 19.12L348.67 18.81L349.51 18.49L350.37 18.17L351.22 17.84L352.08 17.51L352.95 17.17L353.81 16.82L354.69 16.47L355.56 16.12L356.44 15.76L357.32 15.4L358.21 15.04L359.1 14.68L359.99 14.31L360.88 13.94L361.78 13.57L362.92 13.09L364.07 12.61L365.23 12.12L366.4 11.64L367.57 11.15L368.76 10.67L369.95 10.19L371.15 9.71L372.35 9.23L373.57 8.76L374.79 8.29L376.02 7.82L377.26 7.37L378.51 6.91L379.76 6.47L381.02 6.04L382.29 5.61L383.57 5.19L384.85 4.79L386.15 4.39L387.44 4.01L388.75 3.64L390.06 3.28L391.38 2.94L392.71 2.61L394.04 2.3L395.38 2L396.73 1.72L398.08 1.46L399.44 1.22L400.81 1L402.19 0.8L403.57 0.62L404.95 0.46L406.35 0.32L407.75 0.21L409.15 0.12L410.56 0.05L411.98 0.01L413.41 0L414.96 0.02L416.5 0.06ZM259.18 191.75L258.13 192.5L256.98 193.33L255.73 194.24L254.4 195.22L252.97 196.28L251.46 197.42L249.86 198.63L248.18 199.92L246.42 201.28L244.58 202.71L242.67 204.23L240.69 205.81L238.64 207.47L236.52 209.2L234.34 211.01L232.1 212.89L229.8 214.84L227.44 216.86L225.03 218.96L222.57 221.13L220.06 223.37L217.51 225.68L214.92 228.07L212.28 230.52L209.61 233.05L206.9 235.64L204.16 238.31L201.4 241.05L198.6 243.85L195.78 246.73L192.95 249.67L190.09 252.69L187.21 255.77L184.33 258.92L181.43 262.14L178.52 265.43L175.61 268.78L172.69 272.2L169.78 275.69L165.23 281.27L160.79 286.88L156.46 292.51L152.25 298.16L148.15 303.84L144.16 309.54L140.29 315.27L136.53 321.02L132.89 326.79L129.36 332.59L125.94 338.41L122.64 344.25L119.45 350.11L116.38 356L113.42 361.91L110.58 367.84L107.85 373.79L105.24 379.76L102.74 385.75L100.36 391.77L98.09 397.8L95.94 403.86L93.9 409.93L91.98 416.03L90.17 422.15L88.48 428.28L86.91 434.44L85.45 440.61L84.11 446.8L82.89 453.02L81.78 459.25L80.78 465.5L79.91 471.76L79.15 478.05L78.5 484.35L77.98 490.67L77.57 497.01L77.27 503.36L77.1 509.74L77.04 516.12L77.12 519.91L77.34 523.65L77.72 527.36L78.25 531.02L78.91 534.63L79.72 538.19L80.66 541.7L81.73 545.15L82.94 548.55L84.28 551.88L85.74 555.14L87.32 558.34L89.02 561.47L90.83 564.52L92.76 567.49L94.8 570.39L96.95 573.2L99.2 575.93L101.55 578.56L104 581.11L106.54 583.56L109.18 585.91L111.91 588.16L114.72 590.3L117.61 592.34L120.59 594.27L123.64 596.09L126.77 597.79L129.96 599.37L133.23 600.83L136.56 602.16L139.95 603.37L143.41 604.45L146.91 605.39L150.48 606.2L154.09 606.86L157.75 607.38L161.45 607.76L165.2 607.99L168.98 608.07L471.02 608.07L474.8 607.99L478.55 607.76L482.25 607.38L485.91 606.86L489.52 606.2L493.09 605.39L496.59 604.45L500.05 603.37L503.44 602.16L506.77 600.83L510.03 599.37L513.23 597.79L516.35 596.09L519.4 594.27L522.37 592.34L525.27 590.3L528.07 588.16L530.8 585.91L533.43 583.56L535.97 581.11L538.41 578.56L540.76 575.93L543 573.2L545.14 570.39L547.17 567.49L549.09 564.52L550.9 561.47L552.59 558.34L554.16 555.14L555.61 551.88L556.93 548.55L558.13 545.15L559.19 541.7L560.12 538.19L560.91 534.63L561.56 531.02L562.07 527.36L562.43 523.65L562.64 519.91L562.69 516.12L562.64 509.73L562.46 503.35L562.17 496.98L561.76 490.64L561.24 484.31L560.6 478.01L559.84 471.72L558.96 465.45L557.97 459.19L556.87 452.96L555.64 446.75L554.31 440.55L552.85 434.38L551.28 428.22L549.59 422.09L547.79 415.97L545.87 409.88L543.84 403.8L541.69 397.75L539.43 391.72L537.05 385.71L534.55 379.71L531.94 373.74L529.21 367.8L526.37 361.87L523.41 355.97L520.34 350.08L517.15 344.22L513.85 338.39L510.43 332.57L506.9 326.78L503.26 321.01L499.49 315.26L495.62 309.54L491.63 303.84L487.52 298.16L483.3 292.51L478.97 286.88L474.52 281.27L469.95 275.69L467.04 272.2L464.13 268.78L461.22 265.42L458.31 262.14L455.41 258.91L452.53 255.76L449.66 252.68L446.8 249.66L443.96 246.71L441.15 243.83L438.36 241.02L435.59 238.28L432.86 235.61L430.16 233.02L427.49 230.49L424.86 228.03L422.26 225.64L419.71 223.33L417.21 221.08L414.75 218.91L412.35 216.81L409.99 214.78L407.69 212.83L405.45 210.95L403.27 209.14L401.15 207.41L399.1 205.75L397.12 204.17L395.21 202.66L393.37 201.22L391.61 199.86L389.92 198.58L388.32 197.37L386.81 196.24L385.37 195.19L384.03 194.21L382.78 193.31L381.63 192.48L380.57 191.74L379.61 191.07L260.12 191.07L259.18 191.75ZM411.37 31.71L410.42 31.76L409.47 31.83L408.51 31.91L407.56 32.02L406.6 32.14L405.64 32.28L404.68 32.44L403.71 32.61L402.75 32.8L401.78 33L400.81 33.22L399.84 33.45L398.87 33.7L397.9 33.95L396.92 34.23L395.94 34.51L394.96 34.8L393.98 35.11L393 35.43L392.01 35.75L391.02 36.09L390.03 36.44L389.04 36.79L388.04 37.16L387.05 37.53L386.05 37.91L385.05 38.29L384.05 38.68L383.04 39.08L382.03 39.48L381.02 39.89L380.01 40.3L379 40.72L377.98 41.14L376.96 41.56L375.94 41.99L374.91 42.42L373.89 42.84L372.82 43.29L371.75 43.74L370.67 44.19L369.6 44.64L368.52 45.08L367.44 45.53L366.35 45.97L365.27 46.4L364.18 46.83L363.09 47.26L361.99 47.68L360.89 48.1L359.8 48.51L358.69 48.91L357.59 49.31L356.48 49.69L355.38 50.07L354.26 50.44L353.15 50.8L352.03 51.14L350.91 51.48L349.79 51.8L348.67 52.12L347.54 52.41L346.41 52.7L345.28 52.97L344.15 53.23L343.01 53.47L341.87 53.69L340.73 53.9L339.59 54.09L338.44 54.27L337.29 54.42L336.14 54.56L334.99 54.68L333.83 54.77L332.67 54.85L331.51 54.91L330.35 54.94L329.18 54.95L328.7 54.95L328.22 54.94L327.75 54.93L327.27 54.92L326.79 54.9L326.32 54.88L325.84 54.85L325.37 54.82L324.89 54.79L324.42 54.75L323.95 54.71L323.48 54.66L323.01 54.61L322.54 54.56L322.07 54.5L321.6 54.44L321.13 54.38L320.66 54.31L320.2 54.23L319.73 54.15L319.27 54.07L318.81 53.99L318.35 53.9L317.89 53.8L317.43 53.7L316.97 53.6L316.51 53.5L316.06 53.39L315.6 53.27L315.15 53.16L314.7 53.03L314.24 52.91L313.79 52.78L313.35 52.64L312.9 52.51L312.45 52.37L312.01 52.22L311.57 52.07L311.13 51.92L310.69 51.76L308.57 50.98L306.49 50.21L304.43 49.46L302.39 48.73L300.38 48.01L298.39 47.31L296.43 46.63L294.49 45.97L292.57 45.32L290.68 44.68L288.81 44.07L286.96 43.47L285.13 42.89L283.32 42.33L281.53 41.79L279.76 41.27L278.02 40.77L276.29 40.28L274.57 39.81L272.88 39.37L271.21 38.94L269.55 38.53L267.91 38.15L266.28 37.78L264.67 37.44L263.08 37.11L261.5 36.81L259.94 36.52L258.39 36.26L256.85 36.02L255.33 35.8L253.82 35.61L252.33 35.44L250.84 35.28L249.37 35.16L247.91 35.05L246.46 34.97L245.01 34.91L243.58 34.87L242.16 34.86L241.27 34.87L240.36 34.91L239.44 34.97L238.5 35.05L237.54 35.16L236.57 35.29L235.59 35.45L234.58 35.63L233.57 35.83L232.53 36.06L231.48 36.31L230.42 36.59L229.34 36.88L228.24 37.21L227.13 37.56L226 37.93L224.86 38.32L223.7 38.74L222.53 39.18L221.34 39.65L220.13 40.14L218.91 40.66L217.68 41.2L216.42 41.76L215.16 42.35L213.87 42.96L212.57 43.59L211.26 44.25L209.93 44.93L208.58 45.64L207.22 46.37L205.84 47.12L204.45 47.9L203.04 48.7L201.62 49.53L200.18 50.38L198.72 51.25L197.25 52.15L195.76 53.07L194.26 54.02L263.85 159.14L375.09 159.14L438.95 40.45L438.14 39.88L437.33 39.34L436.54 38.82L435.75 38.33L434.97 37.86L434.2 37.41L433.43 36.98L432.68 36.57L431.93 36.19L431.2 35.82L430.47 35.48L429.75 35.15L429.04 34.84L428.34 34.55L427.65 34.28L426.96 34.02L426.29 33.79L425.62 33.56L424.96 33.36L424.32 33.16L423.68 32.99L423.05 32.82L422.43 32.67L421.81 32.54L421.21 32.41L420.62 32.3L420.03 32.2L419.46 32.11L418.89 32.03L418.33 31.95L417.78 31.89L417.25 31.84L416.72 31.8L416.2 31.76L415.69 31.73L415.18 31.7L414.69 31.69L414.21 31.68L413.74 31.67L413.27 31.67L412.32 31.68L411.37 31.71Z" id="a1HZNu5U6t"></path></defs><g><g><g><use xlink:href="#e2uHnBGVzl" opacity="1" fill="#2597bb" fill-opacity="1"></use><g><use xlink:href="#e2uHnBGVzl" opacity="1" fill-opacity="0" stroke="#000000" stroke-width="1" stroke-opacity="0"></use></g></g><g><use xlink:href="#a1HZNu5U6t" opacity="1" fill="#2597bb" fill-opacity="1"></use><g><use xlink:href="#a1HZNu5U6t" opacity="1" fill-opacity="0" stroke="#000000" stroke-width="1" stroke-opacity="0"></use></g></g></g></g></svg>