<svg 
 xmlns="http://www.w3.org/2000/svg"
 xmlns:xlink="http://www.w3.org/1999/xlink"
 width="22px" height="16px">
<path fill-rule="evenodd"  opacity="0.78" fill="rgb(0, 0, 0)"
 d="M20.165,15.328 L2.592,15.328 C1.661,15.328 0.903,14.557 0.903,13.609 L0.903,1.893 C0.903,0.946 1.661,0.175 2.592,0.175 L20.165,0.175 C21.096,0.175 21.854,0.946 21.854,1.893 L21.854,13.609 C21.854,14.557 21.096,15.328 20.165,15.328 ZM1.579,13.609 C1.579,14.178 2.034,14.640 2.592,14.640 L20.165,14.640 C20.724,14.640 21.178,14.178 21.178,13.609 L21.178,1.893 C21.178,1.754 21.150,1.621 21.100,1.499 L14.230,7.593 L18.098,11.284 C18.233,11.413 18.240,11.631 18.113,11.770 C18.046,11.842 17.957,11.878 17.866,11.878 C17.783,11.878 17.700,11.847 17.635,11.785 L13.748,8.075 C13.737,8.064 13.740,8.048 13.731,8.036 L12.619,9.022 C12.276,9.326 11.828,9.478 11.379,9.478 C10.929,9.478 10.480,9.326 10.138,9.023 L9.027,8.037 C9.018,8.048 9.021,8.064 9.010,8.075 L5.121,11.785 C5.057,11.847 4.974,11.878 4.891,11.878 C4.801,11.878 4.711,11.842 4.644,11.770 C4.516,11.631 4.523,11.413 4.659,11.284 L8.527,7.593 L1.658,1.497 C1.607,1.619 1.579,1.753 1.579,1.893 L1.579,13.609 ZM2.592,0.862 C2.419,0.862 2.264,0.918 2.121,0.996 L10.582,8.504 C11.014,8.887 11.743,8.887 12.174,8.504 L20.637,0.997 C20.494,0.919 20.338,0.862 20.165,0.862 L2.592,0.862 Z"/>
</svg>