<?xml version="1.0" encoding="UTF-8" standalone="no"?>
<!DOCTYPE svg PUBLIC "-//W3C//DTD SVG 1.1//EN" "http://www.w3.org/Graphics/SVG/1.1/DTD/svg11.dtd">
<svg version="1.1" xmlns="http://www.w3.org/2000/svg" xmlns:xlink="http://www.w3.org/1999/xlink" preserveAspectRatio="xMidYMid meet" viewBox="0 0 640 640" width="640" height="640"><defs><path d="M483.1 187.75L483.73 187.78L484.36 187.83L484.99 187.88L485.62 187.95L486.24 188.03L486.87 188.12L487.49 188.22L488.1 188.34L488.72 188.47L489.33 188.61L489.94 188.76L490.54 188.92L491.14 189.1L491.74 189.29L492.33 189.49L492.92 189.7L493.5 189.92L494.08 190.15L494.66 190.4L495.23 190.65L495.79 190.92L496.35 191.2L496.91 191.49L497.45 191.79L498 192.1L498.53 192.42L499.07 192.75L499.59 193.1L500.11 193.45L500.62 193.82L501.13 194.19L501.62 194.58L502.12 194.98L502.6 195.38L503.08 195.8L503.54 196.23L504.01 196.66L504.46 197.11L636.87 329.53L637.02 329.68L637.17 329.83L637.31 329.99L637.45 330.15L637.58 330.31L637.71 330.47L637.84 330.64L637.97 330.81L638.09 330.98L638.21 331.15L638.32 331.32L638.43 331.5L638.54 331.68L638.64 331.86L638.74 332.04L638.84 332.23L638.93 332.42L639.02 332.6L639.11 332.79L639.19 332.99L639.27 333.18L639.34 333.37L639.41 333.57L639.48 333.77L639.54 333.96L639.6 334.16L639.65 334.37L639.7 334.57L639.75 334.77L639.79 334.98L639.83 335.18L639.87 335.39L639.9 335.6L639.92 335.8L639.95 336.01L639.97 336.22L639.98 336.43L639.99 336.64L640 336.85L640 337.07L640 454.4L639.97 455.72L639.89 457.02L639.76 458.32L639.58 459.59L639.35 460.85L639.07 462.09L638.74 463.31L638.37 464.51L637.95 465.7L637.49 466.86L636.98 467.99L636.43 469.11L635.84 470.19L635.21 471.26L634.53 472.29L633.83 473.3L633.08 474.28L632.3 475.23L631.48 476.14L630.63 477.03L629.74 477.88L628.83 478.7L627.88 479.48L626.9 480.23L625.89 480.93L624.86 481.61L623.79 482.24L622.71 482.83L621.59 483.38L620.46 483.89L619.3 484.35L618.11 484.77L616.91 485.14L615.69 485.47L614.45 485.75L613.19 485.98L611.92 486.16L610.62 486.29L609.32 486.37L608 486.4L585.81 486.4L585.37 489.13L584.82 491.83L584.18 494.49L583.45 497.11L582.63 499.68L581.73 502.21L580.73 504.7L579.65 507.14L578.49 509.53L577.25 511.87L575.93 514.16L574.53 516.39L573.06 518.57L571.51 520.69L569.89 522.75L568.21 524.76L566.46 526.7L564.64 528.58L562.76 530.39L560.81 532.13L558.81 533.81L556.75 535.41L554.63 536.95L552.46 538.41L550.24 539.79L547.97 541.1L545.65 542.33L543.29 543.48L540.88 544.55L538.43 545.53L535.93 546.43L533.4 547.24L530.83 547.96L528.23 548.59L525.6 549.13L522.93 549.58L520.24 549.93L517.52 550.19L514.77 550.34L512 550.4L0 550.4L0 529.07L161.18 529.07L160.31 528.2L159.46 527.32L158.62 526.43L157.79 525.53L156.98 524.61L156.19 523.68L155.41 522.74L154.65 521.79L153.91 520.83L153.18 519.85L152.47 518.86L151.78 517.87L151.1 516.86L150.44 515.84L149.79 514.81L149.17 513.77L148.56 512.72L147.96 511.67L147.39 510.6L146.83 509.52L146.29 508.44L145.77 507.34L145.26 506.24L144.78 505.13L144.31 504.01L143.86 502.88L143.42 501.75L143.01 500.6L142.62 499.46L142.24 498.3L141.88 497.14L141.54 495.97L141.22 494.79L140.92 493.61L140.64 492.42L140.38 491.23L140.13 490.03L139.91 488.82L139.7 487.61L139.52 486.4L117.33 486.4L116.01 486.37L114.71 486.29L113.42 486.16L112.14 485.98L110.88 485.75L109.64 485.47L108.42 485.14L107.22 484.77L106.04 484.35L104.88 483.89L103.74 483.38L102.63 482.83L101.54 482.24L100.48 481.61L99.44 480.93L98.43 480.23L97.46 479.48L96.51 478.7L95.59 477.88L94.71 477.03L93.85 476.14L93.04 475.23L92.25 474.28L91.51 473.3L90.8 472.29L90.13 471.26L89.5 470.19L88.91 469.11L88.36 467.99L87.85 466.86L87.38 465.7L86.96 464.51L86.59 463.31L86.26 462.09L85.98 460.85L85.75 459.59L85.57 458.32L85.44 457.02L85.36 455.72L85.33 454.4L85.33 358.4L106.67 358.4L106.67 454.4L106.68 454.84L106.7 455.27L106.75 455.71L106.81 456.13L106.88 456.55L106.98 456.96L107.09 457.37L107.21 457.77L107.35 458.17L107.5 458.55L107.67 458.93L107.86 459.3L108.05 459.66L108.26 460.02L108.49 460.36L108.72 460.7L108.97 461.03L109.23 461.34L109.51 461.65L109.79 461.94L110.09 462.23L110.39 462.5L110.71 462.76L111.03 463.01L111.37 463.24L111.71 463.47L112.07 463.68L112.43 463.88L112.8 464.06L113.18 464.23L113.57 464.38L113.96 464.52L114.36 464.65L114.77 464.76L115.18 464.85L115.6 464.93L116.03 464.99L116.46 465.03L116.89 465.06L117.33 465.07L139.52 465.07L139.91 462.62L140.38 460.21L140.93 457.82L141.55 455.46L142.24 453.14L143.01 450.84L143.85 448.59L144.76 446.36L145.73 444.18L146.77 442.03L147.88 439.92L149.06 437.85L150.29 435.83L151.59 433.85L152.95 431.91L154.37 430.02L155.84 428.17L157.38 426.38L158.96 424.63L160.6 422.94L162.3 421.3L164.04 419.71L165.84 418.18L167.68 416.7L169.57 415.28L171.51 413.92L173.49 412.63L175.52 411.39L177.59 410.22L179.69 409.11L181.84 408.07L184.03 407.09L186.25 406.18L188.51 405.34L190.8 404.58L193.13 403.88L195.48 403.26L197.87 402.72L200.29 402.25L202.73 401.85L205.78 401.48L208.82 401.23L211.84 401.1L214.84 401.1L217.82 401.22L220.78 401.45L223.71 401.8L226.6 402.27L229.47 402.84L232.3 403.53L235.09 404.32L237.84 405.22L240.54 406.22L243.2 407.33L245.81 408.53L248.37 409.84L250.87 411.23L253.32 412.72L255.71 414.31L258.03 415.98L260.29 417.74L262.48 419.58L264.6 421.51L266.64 423.52L268.61 425.61L270.5 427.77L272.31 430.01L274.04 432.33L275.67 434.71L277.22 437.17L278.67 439.69L280.03 442.28L281.29 444.93L282.45 447.64L283.51 450.41L284.46 453.23L285.3 456.11L286.03 459.05L286.65 462.03L287.15 465.07L438.19 465.07L438.58 462.62L439.05 460.21L439.59 457.82L440.22 455.46L440.91 453.14L441.68 450.84L442.51 448.59L443.42 446.36L444.4 444.18L445.44 442.03L446.55 439.92L447.72 437.85L448.96 435.83L450.26 433.85L451.62 431.91L453.03 430.02L454.51 428.17L456.04 426.38L457.63 424.63L459.27 422.94L460.96 421.3L462.71 419.71L464.51 418.18L466.35 416.7L468.24 415.28L470.18 413.92L472.16 412.63L474.19 411.39L476.25 410.22L478.36 409.11L480.51 408.07L482.7 407.09L484.92 406.18L487.18 405.34L489.47 404.58L491.79 403.88L494.15 403.26L496.54 402.72L498.96 402.25L501.4 401.85L504.45 401.48L507.49 401.23L510.51 401.1L513.51 401.1L516.49 401.22L519.45 401.45L522.37 401.8L525.27 402.27L528.13 402.84L530.96 403.53L533.75 404.32L536.5 405.22L539.21 406.22L541.87 407.33L544.48 408.53L547.04 409.84L549.54 411.23L551.99 412.72L554.37 414.31L556.7 415.98L558.96 417.74L561.15 419.58L563.27 421.51L565.31 423.52L567.28 425.61L569.17 427.77L570.98 430.01L572.7 432.33L574.34 434.71L575.89 437.17L577.34 439.69L578.7 442.28L579.96 444.93L581.12 447.64L582.18 450.41L583.13 453.23L583.97 456.11L584.7 459.05L585.31 462.03L585.81 465.07L608 465.07L608.44 465.06L608.87 465.03L609.31 464.99L609.73 464.93L610.15 464.85L610.56 464.76L610.97 464.65L611.37 464.52L611.77 464.38L612.15 464.23L612.53 464.06L612.9 463.88L613.26 463.68L613.62 463.47L613.96 463.24L614.3 463.01L614.63 462.76L614.94 462.5L615.25 462.23L615.54 461.94L615.83 461.65L616.1 461.34L616.36 461.03L616.61 460.7L616.84 460.36L617.07 460.02L617.28 459.66L617.48 459.3L617.66 458.93L617.83 458.55L617.98 458.17L618.12 457.77L618.25 457.37L618.36 456.96L618.45 456.55L618.53 456.13L618.59 455.71L618.63 455.27L618.66 454.84L618.67 454.4L618.67 369.07L458.67 369.07L457.79 369.05L456.92 369L456.06 368.91L455.21 368.79L454.37 368.63L453.54 368.45L452.73 368.23L451.92 367.98L451.14 367.7L450.36 367.39L449.6 367.05L448.86 366.69L448.14 366.29L447.43 365.87L446.74 365.42L446.07 364.95L445.42 364.45L444.78 363.93L444.17 363.39L443.58 362.82L443.01 362.23L442.47 361.62L441.95 360.98L441.45 360.33L440.98 359.66L440.53 358.97L440.11 358.26L439.71 357.54L439.35 356.8L439.01 356.04L438.7 355.26L438.42 354.48L438.17 353.67L437.95 352.86L437.77 352.03L437.61 351.19L437.49 350.34L437.4 349.48L437.35 348.61L437.33 347.73L437.33 251.73L437.35 250.85L437.4 249.98L437.49 249.12L437.61 248.27L437.77 247.43L437.95 246.61L438.17 245.79L438.42 244.99L438.7 244.2L439.01 243.43L439.35 242.67L439.71 241.93L440.11 241.2L440.53 240.5L440.98 239.81L441.45 239.13L441.95 238.48L442.47 237.85L443.01 237.24L443.58 236.65L444.17 236.08L444.78 235.54L445.42 235.01L446.07 234.52L446.74 234.04L447.43 233.6L448.14 233.18L448.86 232.78L449.6 232.41L450.36 232.08L451.14 231.77L451.92 231.49L452.73 231.24L453.54 231.02L454.37 230.83L455.21 230.68L456.06 230.56L456.92 230.47L457.79 230.42L458.67 230.4L507.58 230.4L489.38 212.19L489.22 212.04L489.07 211.9L488.91 211.76L488.75 211.62L488.59 211.48L488.43 211.35L488.26 211.22L488.09 211.1L487.92 210.98L487.75 210.86L487.57 210.74L487.4 210.63L487.22 210.53L487.04 210.42L486.85 210.32L486.67 210.23L486.48 210.13L486.29 210.04L486.1 209.96L485.91 209.88L485.72 209.8L485.52 209.73L485.33 209.66L485.13 209.59L484.93 209.53L484.73 209.47L484.53 209.41L484.33 209.36L484.12 209.32L483.92 209.27L483.71 209.23L483.5 209.2L483.3 209.17L483.09 209.14L482.88 209.12L482.67 209.1L482.46 209.09L482.25 209.07L482.04 209.07L481.82 209.07L373.33 209.07L373.33 369.07L352 369.07L352 209.07L298.67 209.07L298.67 187.73L481.82 187.73L482.46 187.74L483.1 187.75ZM286.96 487.61L286.76 488.82L286.53 490.03L286.29 491.23L286.03 492.42L285.75 493.61L285.44 494.79L285.12 495.97L284.79 497.14L284.43 498.3L284.05 499.46L283.66 500.6L283.24 501.75L282.81 502.88L282.36 504.01L281.89 505.13L281.4 506.24L280.9 507.34L280.38 508.44L279.84 509.52L279.28 510.6L278.7 511.67L278.11 512.72L277.5 513.77L276.87 514.81L276.23 515.84L275.57 516.86L274.89 517.87L274.2 518.86L273.48 519.85L272.76 520.83L272.01 521.79L271.25 522.74L270.48 523.68L269.68 524.61L268.87 525.53L268.05 526.43L267.21 527.32L266.35 528.2L265.48 529.07L459.85 529.07L458.98 528.2L458.12 527.32L457.28 526.43L456.46 525.53L455.65 524.61L454.86 523.68L454.08 522.74L453.32 521.79L452.58 520.83L451.85 519.85L451.14 518.86L450.44 517.87L449.76 516.86L449.1 515.84L448.46 514.81L447.83 513.77L447.22 512.72L446.63 511.67L446.05 510.6L445.5 509.52L444.96 508.44L444.43 507.34L443.93 506.24L443.44 505.13L442.97 504.01L442.52 502.88L442.09 501.75L441.68 500.6L441.28 499.46L440.91 498.3L440.55 497.14L440.21 495.97L439.89 494.79L439.59 493.61L439.31 492.42L439.04 491.23L438.8 490.03L438.58 488.82L438.37 487.61L438.19 486.4L287.15 486.4L286.96 487.61ZM208.96 422.58L206.81 422.8L204.68 423.1L202.58 423.48L200.52 423.95L198.48 424.5L196.48 425.12L194.51 425.82L192.57 426.59L190.68 427.44L188.82 428.35L187.01 429.34L185.24 430.39L183.51 431.51L181.84 432.69L180.2 433.93L178.62 435.24L177.1 436.6L175.62 438.02L174.2 439.5L172.84 441.02L171.53 442.6L170.29 444.24L169.11 445.91L167.99 447.64L166.94 449.41L165.95 451.22L165.04 453.08L164.19 454.97L163.42 456.91L162.72 458.88L162.1 460.88L161.55 462.92L161.08 464.98L160.7 467.08L160.4 469.21L160.18 471.36L160.04 473.53L160 475.73L160.05 477.93L160.18 480.11L160.4 482.26L160.71 484.38L161.09 486.48L161.56 488.54L162.11 490.58L162.73 492.58L163.43 494.55L164.21 496.48L165.05 498.38L165.97 500.23L166.96 502.04L168.01 503.81L169.13 505.54L170.31 507.21L171.55 508.84L172.86 510.42L174.22 511.95L175.64 513.43L177.11 514.85L178.64 516.21L180.22 517.51L181.85 518.76L183.53 519.94L185.25 521.06L187.02 522.11L188.84 523.1L190.69 524.01L192.58 524.86L194.52 525.63L196.48 526.33L198.49 526.96L200.52 527.5L202.59 527.97L204.69 528.36L206.81 528.66L208.96 528.88L211.14 529.02L213.33 529.07L215.53 529.02L217.71 528.89L219.86 528.67L221.98 528.37L224.08 527.98L226.15 527.52L228.19 526.97L230.19 526.35L232.16 525.65L234.09 524.88L235.99 524.03L237.84 523.11L239.66 522.13L241.43 521.08L243.15 519.96L244.83 518.78L246.46 517.53L248.04 516.23L249.57 514.87L251.05 513.45L252.47 511.97L253.83 510.44L255.13 508.86L256.38 507.23L257.56 505.55L258.68 503.83L259.73 502.06L260.71 500.24L261.63 498.39L262.48 496.49L263.25 494.56L263.95 492.59L264.57 490.59L265.12 488.55L265.58 486.48L265.97 484.38L266.27 482.26L266.49 480.11L266.62 477.93L266.67 475.73L266.62 473.53L266.49 471.36L266.27 469.21L265.97 467.08L265.58 464.98L265.12 462.92L264.57 460.88L263.95 458.88L263.25 456.91L262.48 454.97L261.63 453.08L260.71 451.22L259.73 449.41L258.68 447.64L257.56 445.91L256.38 444.24L255.13 442.6L253.83 441.02L252.47 439.5L251.05 438.02L249.57 436.6L248.04 435.24L246.46 433.93L244.83 432.69L243.15 431.51L241.43 430.39L239.66 429.34L237.84 428.35L235.99 427.44L234.09 426.59L232.16 425.82L230.19 425.12L228.19 424.5L226.15 423.95L224.08 423.48L221.98 423.1L219.86 422.8L217.71 422.58L215.53 422.44L213.33 422.4L211.13 422.44L208.96 422.58ZM507.63 422.58L505.47 422.8L503.35 423.1L501.25 423.48L499.18 423.95L497.15 424.5L495.14 425.12L493.17 425.82L491.24 426.59L489.35 427.44L487.49 428.35L485.68 429.34L483.91 430.39L482.18 431.51L480.5 432.69L478.87 433.93L477.29 435.24L475.76 436.6L474.29 438.02L472.87 439.5L471.5 441.02L470.2 442.6L468.96 444.24L467.78 445.91L466.66 447.64L465.6 449.41L464.62 451.22L463.7 453.08L462.86 454.97L462.08 456.91L461.39 458.88L460.76 460.88L460.22 462.92L459.75 464.98L459.36 467.08L459.06 469.21L458.84 471.36L458.71 473.53L458.67 475.73L458.71 477.93L458.84 480.11L459.06 482.26L459.36 484.38L459.75 486.48L460.22 488.55L460.76 490.59L461.39 492.59L462.08 494.56L462.86 496.49L463.7 498.39L464.62 500.24L465.6 502.06L466.66 503.83L467.78 505.55L468.96 507.23L470.2 508.86L471.5 510.44L472.87 511.97L474.29 513.45L475.76 514.87L477.29 516.23L478.87 517.53L480.5 518.78L482.18 519.96L483.91 521.08L485.68 522.13L487.49 523.11L489.35 524.03L491.24 524.88L493.17 525.65L495.14 526.35L497.15 526.97L499.18 527.52L501.25 527.98L503.35 528.37L505.47 528.67L507.63 528.89L509.8 529.02L512 529.07L514.2 529.02L516.37 528.88L518.52 528.66L520.65 528.36L522.74 527.97L524.81 527.5L526.85 526.96L528.85 526.33L530.82 525.63L532.75 524.86L534.64 524.01L536.5 523.1L538.31 522.11L540.08 521.06L541.8 519.94L543.48 518.76L545.11 517.51L546.69 516.21L548.22 514.85L549.69 513.43L551.11 511.95L552.48 510.42L553.78 508.84L555.02 507.21L556.21 505.54L557.32 503.81L558.38 502.04L559.36 500.23L560.28 498.38L561.13 496.48L561.9 494.55L562.6 492.58L563.22 490.58L563.77 488.54L564.24 486.48L564.63 484.38L564.93 482.26L565.15 480.11L565.29 477.93L565.33 475.73L565.29 473.53L565.16 471.36L564.94 469.21L564.64 467.08L564.25 464.98L563.78 462.92L563.24 460.88L562.61 458.88L561.92 456.91L561.14 454.97L560.3 453.08L559.38 451.22L558.4 449.41L557.34 447.64L556.22 445.91L555.04 444.24L553.8 442.6L552.5 441.02L551.13 439.5L549.71 438.02L548.24 436.6L546.71 435.24L545.13 433.93L543.5 432.69L541.82 431.51L540.09 430.39L538.32 429.34L536.51 428.35L534.65 427.44L532.76 426.59L530.83 425.82L528.86 425.12L526.85 424.5L524.82 423.95L522.75 423.48L520.65 423.1L518.53 422.8L516.37 422.58L514.2 422.44L512 422.4L509.8 422.44L507.63 422.58ZM458.67 347.73L618.67 347.73L618.67 341.48L528.92 251.73L458.67 251.73L458.67 347.73Z" id="b1APG7e05s"></path><path d="M224 465.07C224 465.07 224 465.07 224 465.07C224 477.87 224 484.98 224 486.4C224 486.4 224 486.4 224 486.4C211.2 486.4 204.09 486.4 202.67 486.4C202.67 486.4 202.67 486.4 202.67 486.4C202.67 473.6 202.67 466.49 202.67 465.07C202.67 465.07 202.67 465.07 202.67 465.07C215.47 465.07 222.58 465.07 224 465.07Z" id="b40COy6axI"></path><path d="M522.67 465.07C522.67 465.07 522.67 465.07 522.67 465.07C522.67 477.87 522.67 484.98 522.67 486.4C522.67 486.4 522.67 486.4 522.67 486.4C509.87 486.4 502.76 486.4 501.33 486.4C501.33 486.4 501.33 486.4 501.33 486.4C501.33 473.6 501.33 466.49 501.33 465.07C501.33 465.07 501.33 465.07 501.33 465.07C514.13 465.07 521.24 465.07 522.67 465.07Z" id="dBWHUuJEz"></path><path d="M53.33 433.07C53.33 433.07 53.33 433.07 53.33 433.07C53.33 445.87 53.33 452.98 53.33 454.4C53.33 454.4 53.33 454.4 53.33 454.4C21.33 454.4 3.56 454.4 0 454.4C0 454.4 0 454.4 0 454.4C0 441.6 0 434.49 0 433.07C0 433.07 0 433.07 0 433.07C32 433.07 49.78 433.07 53.33 433.07Z" id="a9pgEcyr"></path><path d="M53.33 390.4C53.33 390.4 53.33 390.4 53.33 390.4C53.33 403.2 53.33 410.31 53.33 411.73C53.33 411.73 53.33 411.73 53.33 411.73C34.13 411.73 23.47 411.73 21.33 411.73C21.33 411.73 21.33 411.73 21.33 411.73C21.33 398.93 21.33 391.82 21.33 390.4C21.33 390.4 21.33 390.4 21.33 390.4C40.53 390.4 51.2 390.4 53.33 390.4Z" id="ePuzttef2"></path><path d="M53.33 347.73C53.33 347.73 53.33 347.73 53.33 347.73C53.33 360.53 53.33 367.64 53.33 369.07C53.33 369.07 53.33 369.07 53.33 369.07C40.53 369.07 33.42 369.07 32 369.07C32 369.07 32 369.07 32 369.07C32 356.27 32 349.16 32 347.73C32 347.73 32 347.73 32 347.73C44.8 347.73 51.91 347.73 53.33 347.73Z" id="c5t1wBwm9p"></path><path d="M150.04 60.19L155.63 60.76L161.16 61.55L166.61 62.55L171.99 63.76L177.29 65.18L182.5 66.8L187.62 68.62L192.64 70.63L197.57 72.83L202.39 75.21L207.11 77.77L211.71 80.51L216.2 83.42L220.56 86.49L224.8 89.72L228.91 93.11L232.88 96.66L236.72 100.35L240.41 104.18L243.95 108.16L247.34 112.27L250.58 116.51L253.65 120.87L256.56 125.36L259.29 129.96L261.86 134.67L264.24 139.5L266.44 144.42L268.45 149.45L270.26 154.57L271.88 159.78L273.3 165.08L274.52 170.45L275.52 175.91L276.31 181.43L276.87 187.03L277.22 192.68L277.33 198.4L277.22 204.12L276.87 209.77L276.31 215.37L275.52 220.89L274.52 226.35L273.3 231.72L271.88 237.02L270.26 242.23L268.45 247.35L266.44 252.38L264.24 257.3L261.86 262.13L259.29 266.84L256.56 271.44L253.65 275.93L250.58 280.29L247.34 284.53L243.95 288.64L240.41 292.62L236.72 296.45L232.88 300.14L228.91 303.69L224.8 307.08L220.56 310.31L216.2 313.38L211.71 316.29L207.11 319.03L202.39 321.59L197.57 323.97L192.64 326.17L187.62 328.18L182.5 330L177.29 331.62L171.99 333.04L166.61 334.25L161.16 335.25L155.63 336.04L150.04 336.61L144.38 336.95L138.67 337.07L132.95 336.94L127.3 336.59L121.71 336.02L116.19 335.23L110.73 334.22L105.36 333.01L100.07 331.58L94.86 329.96L89.74 328.14L84.72 326.13L79.79 323.93L74.97 321.54L70.26 318.98L65.66 316.24L61.18 313.34L56.81 310.26L52.58 307.03L48.47 303.64L44.5 300.1L40.66 296.41L36.97 292.57L33.43 288.6L30.04 284.49L26.8 280.25L23.73 275.89L20.82 271.41L18.09 266.81L15.52 262.09L13.14 257.27L10.94 252.35L8.93 247.32L7.11 242.21L5.48 237L4.06 231.71L2.84 226.33L1.84 220.88L1.05 215.36L0.47 209.77L0.12 204.11L0 198.4L0.12 192.68L0.46 187.03L1.03 181.43L1.81 175.91L2.82 170.45L4.03 165.08L5.45 159.78L7.07 154.57L8.89 149.45L10.9 144.42L13.1 139.5L15.48 134.67L18.04 129.96L20.78 125.36L23.68 120.87L26.75 116.51L29.99 112.27L33.38 108.16L36.92 104.18L40.61 100.35L44.45 96.66L48.42 93.11L52.53 89.72L56.77 86.49L61.14 83.42L65.62 80.51L70.23 77.77L74.94 75.21L79.76 72.83L84.69 70.63L89.72 68.62L94.84 66.8L100.05 65.18L105.34 63.76L110.72 62.55L116.17 61.55L121.7 60.76L127.29 60.19L132.95 59.85L138.67 59.73L144.38 59.85L150.04 60.19ZM129.05 81.47L124.32 81.95L119.64 82.62L115.03 83.47L110.48 84.5L106.01 85.71L101.6 87.08L97.27 88.62L93.02 90.32L88.85 92.19L84.77 94.2L80.79 96.37L76.89 98.69L73.1 101.15L69.41 103.75L65.82 106.48L62.35 109.35L58.98 112.35L55.74 115.47L52.62 118.72L49.62 122.08L46.75 125.55L44.01 129.14L41.41 132.83L38.95 136.63L36.64 140.52L34.47 144.51L32.45 148.59L30.59 152.75L28.89 157L27.35 161.33L25.97 165.74L24.77 170.22L23.74 174.77L22.89 179.38L22.22 184.05L21.73 188.78L21.44 193.57L21.33 198.4L21.43 203.24L21.72 208.02L22.2 212.76L22.87 217.43L23.72 222.05L24.74 226.6L25.94 231.08L27.32 235.49L28.85 239.82L30.55 244.07L32.41 248.24L34.43 252.32L36.6 256.31L38.91 260.21L41.37 264L43.97 267.7L46.71 271.28L49.58 274.76L52.58 278.12L55.7 281.37L58.94 284.49L62.31 287.49L65.78 290.36L69.37 293.09L73.06 295.69L76.86 298.15L80.76 300.47L84.75 302.64L88.83 304.65L93 306.51L97.25 308.21L101.58 309.75L105.99 311.12L110.47 312.32L115.02 313.35L119.63 314.2L124.31 314.86L129.04 315.34L133.83 315.64L138.67 315.73L143.5 315.64L148.29 315.34L153.02 314.86L157.7 314.2L162.31 313.35L166.86 312.32L171.34 311.12L175.75 309.75L180.09 308.21L184.34 306.51L188.51 304.65L192.59 302.64L196.58 300.47L200.47 298.15L204.27 295.69L207.96 293.09L211.55 290.36L215.03 287.49L218.39 284.49L221.63 281.37L224.76 278.12L227.76 274.76L230.63 271.28L233.36 267.7L235.96 264L238.42 260.21L240.74 256.31L242.9 252.32L244.92 248.24L246.78 244.07L248.48 239.82L250.02 235.49L251.39 231.08L252.59 226.6L253.62 222.05L254.46 217.43L255.13 212.76L255.61 208.02L255.9 203.24L256 198.4L255.9 193.56L255.61 188.78L255.13 184.04L254.46 179.37L253.62 174.75L252.59 170.2L251.39 165.72L250.02 161.31L248.48 156.98L246.78 152.73L244.92 148.56L242.9 144.48L240.74 140.49L238.42 136.59L235.96 132.8L233.36 129.1L230.63 125.52L227.76 122.04L224.76 118.68L221.63 115.43L218.39 112.31L215.03 109.31L211.55 106.44L207.96 103.71L204.27 101.11L200.47 98.65L196.58 96.33L192.59 94.16L188.51 92.15L184.34 90.29L180.09 88.59L175.75 87.05L171.34 85.68L166.86 84.48L162.31 83.45L157.7 82.6L153.02 81.94L148.29 81.46L143.5 81.16L138.67 81.07L133.83 81.17L129.05 81.47Z" id="a1FUuGH0u7"></path><path d="M144.79 102.65L147.8 102.95L150.78 103.38L153.71 103.92L156.61 104.57L159.46 105.33L162.27 106.21L165.02 107.19L167.73 108.27L170.38 109.45L172.98 110.73L175.52 112.11L178 113.59L180.41 115.15L182.76 116.81L185.05 118.55L187.26 120.37L189.4 122.28L191.46 124.27L193.45 126.33L195.36 128.47L197.19 130.69L198.93 132.97L200.58 135.32L202.15 137.74L203.62 140.21L205 142.75L206.28 145.35L207.47 148L208.55 150.71L209.53 153.47L210.4 156.27L211.16 159.12L211.82 162.02L212.36 164.96L212.78 167.93L213.09 170.94L213.27 173.99L213.33 177.07L213.22 180.53L212.9 184.04L212.36 187.6L211.64 191.2L210.73 194.83L209.65 198.49L208.41 202.17L207.01 205.86L205.48 209.55L203.81 213.25L202.03 216.94L200.13 220.62L198.14 224.27L196.06 227.9L193.91 231.5L191.68 235.06L189.41 238.57L187.08 242.03L184.73 245.42L182.35 248.75L179.95 252.01L177.56 255.19L175.17 258.28L172.8 261.28L170.47 264.19L168.17 266.98L165.92 269.66L163.74 272.23L161.62 274.66L159.59 276.97L157.66 279.13L155.83 281.15L154.11 283.02L152.52 284.73L151.06 286.27L149.76 287.64L148.61 288.84L147.62 289.84L146.82 290.66L146.21 291.27L146.06 291.42L145.9 291.57L145.75 291.71L145.59 291.85L145.43 291.98L145.26 292.11L145.1 292.24L144.93 292.37L144.76 292.49L144.58 292.61L144.41 292.72L144.23 292.83L144.05 292.94L143.87 293.04L143.69 293.14L143.5 293.24L143.32 293.33L143.13 293.42L142.94 293.51L142.75 293.59L142.56 293.67L142.36 293.74L142.16 293.81L141.97 293.88L141.77 293.94L141.57 294L141.37 294.05L141.17 294.1L140.96 294.15L140.76 294.19L140.55 294.23L140.35 294.27L140.14 294.3L139.93 294.32L139.72 294.35L139.51 294.37L139.3 294.38L139.09 294.39L138.88 294.4L138.67 294.4L138.45 294.4L138.24 294.39L138.03 294.38L137.82 294.37L137.61 294.35L137.4 294.32L137.2 294.3L136.99 294.27L136.78 294.23L136.58 294.19L136.37 294.15L136.17 294.1L135.97 294.05L135.76 294L135.56 293.94L135.37 293.88L135.17 293.81L134.97 293.74L134.78 293.67L134.59 293.59L134.39 293.51L134.2 293.42L134.02 293.33L133.83 293.24L133.64 293.14L133.46 293.04L133.28 292.94L133.1 292.83L132.92 292.72L132.75 292.61L132.58 292.49L132.41 292.37L132.24 292.24L132.07 292.11L131.91 291.98L131.75 291.85L131.59 291.71L131.43 291.57L131.28 291.42L131.13 291.27L130.51 290.66L129.71 289.84L128.73 288.84L127.58 287.64L126.27 286.27L124.81 284.73L123.22 283.02L121.51 281.15L119.67 279.13L117.74 276.97L115.71 274.66L113.6 272.23L111.41 269.66L109.17 266.98L106.87 264.19L104.53 261.28L102.16 258.28L99.78 255.19L97.38 252.01L94.99 248.75L92.61 245.42L90.25 242.03L87.93 238.57L85.65 235.06L83.43 231.5L81.27 227.9L79.19 224.27L77.2 220.62L75.31 216.94L73.52 213.25L71.86 209.55L70.32 205.86L68.93 202.17L67.68 198.49L66.6 194.83L65.69 191.2L64.97 187.6L64.44 184.04L64.11 180.53L64 177.07L64.06 173.99L64.25 170.94L64.55 167.93L64.98 164.96L65.52 162.02L66.17 159.12L66.93 156.27L67.81 153.47L68.79 150.71L69.87 148L71.05 145.35L72.33 142.75L73.71 140.21L75.19 137.74L76.75 135.32L78.41 132.97L80.15 130.69L81.97 128.47L83.88 126.33L85.87 124.27L87.93 122.28L90.07 120.37L92.29 118.55L94.57 116.81L96.92 115.15L99.34 113.59L101.81 112.11L104.35 110.73L106.95 109.45L109.6 108.27L112.31 107.19L115.07 106.21L117.87 105.33L120.72 104.57L123.62 103.92L126.56 103.38L129.53 102.95L132.54 102.65L135.59 102.46L138.67 102.4L141.74 102.46L144.79 102.65ZM134.29 123.92L132.14 124.14L130.02 124.44L127.92 124.83L125.86 125.3L123.82 125.84L121.82 126.47L119.85 127.17L117.92 127.94L116.02 128.79L114.17 129.7L112.36 130.69L110.59 131.74L108.86 132.86L107.19 134.04L105.56 135.29L103.98 136.59L102.45 137.95L100.97 139.37L99.55 140.85L98.19 142.38L96.89 143.96L95.64 145.59L94.46 147.26L93.34 148.99L92.29 150.76L91.3 152.57L90.39 154.42L89.54 156.32L88.77 158.25L88.07 160.22L87.44 162.22L86.9 164.26L86.43 166.32L86.04 168.42L85.74 170.54L85.52 172.69L85.38 174.87L85.33 177.07L85.4 179.15L85.58 181.28L85.88 183.46L86.29 185.69L86.81 187.96L87.44 190.27L88.16 192.62L88.98 194.99L89.89 197.4L90.89 199.84L91.96 202.29L93.12 204.77L94.34 207.26L95.64 209.76L97 212.27L98.41 214.79L99.89 217.31L101.41 219.83L102.98 222.35L104.59 224.86L106.24 227.35L107.91 229.84L109.62 232.3L111.35 234.75L113.11 237.17L114.87 239.56L116.65 241.92L118.43 244.25L120.21 246.54L121.99 248.78L123.77 250.99L125.53 253.15L127.28 255.25L129 257.3L130.7 259.29L132.37 261.23L134.01 263.09L135.6 264.89L137.16 266.62L138.67 268.28L140.17 266.62L141.73 264.89L143.33 263.09L144.96 261.23L146.63 259.29L148.33 257.3L150.06 255.25L151.8 253.15L153.56 250.99L155.34 248.78L157.12 246.54L158.9 244.25L160.69 241.92L162.46 239.56L164.23 237.17L165.98 234.75L167.71 232.3L169.42 229.84L171.1 227.35L172.75 224.86L174.36 222.35L175.92 219.83L177.45 217.31L178.92 214.79L180.34 212.27L181.69 209.76L182.99 207.26L184.22 204.77L185.37 202.29L186.45 199.84L187.44 197.4L188.35 194.99L189.17 192.62L189.89 190.27L190.52 187.96L191.04 185.69L191.45 183.46L191.75 181.28L191.94 179.15L192 177.07L191.95 174.87L191.82 172.69L191.6 170.54L191.29 168.42L190.91 166.32L190.44 164.26L189.89 162.22L189.27 160.22L188.57 158.25L187.79 156.32L186.95 154.42L186.03 152.57L185.04 150.76L183.99 148.99L182.87 147.26L181.69 145.59L180.45 143.96L179.14 142.38L177.78 140.85L176.36 139.37L174.89 137.95L173.36 136.59L171.78 135.29L170.15 134.04L168.47 132.86L166.75 131.74L164.98 130.69L163.16 129.7L161.31 128.79L159.42 127.94L157.48 127.17L155.52 126.47L153.51 125.84L151.48 125.3L149.41 124.83L147.31 124.44L145.19 124.14L143.04 123.92L140.86 123.78L138.67 123.73L136.47 123.78L134.29 123.92Z" id="a516wfOTt"></path><path d="M141.29 145.17L142.58 145.3L143.86 145.49L145.12 145.72L146.36 146L147.58 146.32L148.78 146.7L149.96 147.12L151.12 147.58L152.26 148.09L153.37 148.64L154.46 149.23L155.52 149.86L156.56 150.53L157.57 151.24L158.54 151.99L159.49 152.77L160.41 153.59L161.29 154.44L162.15 155.32L162.96 156.24L163.75 157.19L164.49 158.17L165.2 159.18L165.87 160.21L166.5 161.27L167.09 162.36L167.64 163.47L168.15 164.61L168.62 165.77L169.04 166.95L169.41 168.15L169.74 169.38L170.02 170.62L170.25 171.88L170.43 173.15L170.56 174.44L170.64 175.75L170.67 177.07L170.64 178.39L170.56 179.69L170.43 180.98L170.25 182.26L170.02 183.52L169.74 184.76L169.41 185.98L169.04 187.18L168.62 188.36L168.15 189.52L167.64 190.66L167.09 191.77L166.5 192.86L165.87 193.92L165.2 194.96L164.49 195.97L163.75 196.94L162.96 197.89L162.15 198.81L161.29 199.69L160.41 200.55L159.49 201.36L158.54 202.15L157.57 202.89L156.56 203.6L155.52 204.27L154.46 204.9L153.37 205.49L152.26 206.04L151.12 206.55L149.96 207.02L148.78 207.44L147.58 207.81L146.36 208.14L145.12 208.42L143.86 208.65L142.58 208.83L141.29 208.96L139.99 209.04L138.67 209.07L137.35 209.04L136.04 208.96L134.75 208.83L133.48 208.65L132.22 208.42L130.98 208.14L129.75 207.81L128.55 207.44L127.37 207.02L126.21 206.55L125.07 206.04L123.96 205.49L122.87 204.9L121.81 204.27L120.78 203.6L119.77 202.89L118.79 202.15L117.84 201.36L116.92 200.55L116.04 199.69L115.19 198.81L114.37 197.89L113.59 196.94L112.84 195.97L112.13 194.96L111.46 193.92L110.83 192.86L110.24 191.77L109.69 190.66L109.18 189.52L108.72 188.36L108.3 187.18L107.92 185.98L107.6 184.76L107.32 183.52L107.09 182.26L106.9 180.98L106.77 179.69L106.69 178.39L106.67 177.07L106.69 175.75L106.77 174.44L106.9 173.15L107.09 171.88L107.32 170.62L107.6 169.38L107.92 168.15L108.3 166.95L108.72 165.77L109.18 164.61L109.69 163.47L110.24 162.36L110.83 161.27L111.46 160.21L112.13 159.18L112.84 158.17L113.59 157.19L114.37 156.24L115.19 155.32L116.04 154.44L116.92 153.59L117.84 152.77L118.79 151.99L119.77 151.24L120.78 150.53L121.81 149.86L122.87 149.23L123.96 148.64L125.07 148.09L126.21 147.58L127.37 147.12L128.55 146.7L129.75 146.32L130.98 146L132.22 145.72L133.48 145.49L134.75 145.3L136.04 145.17L137.35 145.09L138.67 145.07L139.99 145.09L141.29 145.17ZM136.04 166.73L134.81 167.12L133.65 167.65L132.57 168.31L131.58 169.09L130.69 169.98L129.91 170.97L129.25 172.05L128.72 173.21L128.33 174.44L128.08 175.73L128 177.07L128.08 178.4L128.33 179.69L128.72 180.92L129.25 182.08L129.91 183.16L130.69 184.15L131.58 185.04L132.57 185.82L133.65 186.48L134.81 187.02L136.04 187.41L137.33 187.65L138.67 187.73L140 187.65L141.29 187.41L142.52 187.02L143.68 186.48L144.76 185.82L145.75 185.04L146.64 184.15L147.42 183.16L148.08 182.08L148.62 180.92L149.01 179.69L149.25 178.4L149.33 177.07L149.25 175.73L149.01 174.44L148.62 173.21L148.08 172.05L147.42 170.97L146.64 169.98L145.75 169.09L144.76 168.31L143.68 167.65L142.52 167.12L141.29 166.73L140 166.48L138.67 166.4L137.33 166.48L136.04 166.73Z" id="d8t6q2dvG"></path><path d="M448 390.4C448 390.4 448 390.4 448 390.4C448 403.2 448 410.31 448 411.73C448 411.73 448 411.73 448 411.73C422.4 411.73 408.18 411.73 405.33 411.73C405.33 411.73 405.33 411.73 405.33 411.73C405.33 398.93 405.33 391.82 405.33 390.4C405.33 390.4 405.33 390.4 405.33 390.4C430.93 390.4 445.16 390.4 448 390.4Z" id="b5W1x5xv0X"></path></defs><g><g><g><use xlink:href="#b1APG7e05s" opacity="1" fill="#8b8b8b" fill-opacity="1"></use><g><use xlink:href="#b1APG7e05s" opacity="1" fill-opacity="0" stroke="#000000" stroke-width="1" stroke-opacity="0"></use></g></g><g><use xlink:href="#b40COy6axI" opacity="1" fill="#8b8b8b" fill-opacity="1"></use><g><use xlink:href="#b40COy6axI" opacity="1" fill-opacity="0" stroke="#000000" stroke-width="1" stroke-opacity="0"></use></g></g><g><use xlink:href="#dBWHUuJEz" opacity="1" fill="#8b8b8b" fill-opacity="1"></use><g><use xlink:href="#dBWHUuJEz" opacity="1" fill-opacity="0" stroke="#000000" stroke-width="1" stroke-opacity="0"></use></g></g><g><use xlink:href="#a9pgEcyr" opacity="1" fill="#8b8b8b" fill-opacity="1"></use><g><use xlink:href="#a9pgEcyr" opacity="1" fill-opacity="0" stroke="#000000" stroke-width="1" stroke-opacity="0"></use></g></g><g><use xlink:href="#ePuzttef2" opacity="1" fill="#8b8b8b" fill-opacity="1"></use><g><use xlink:href="#ePuzttef2" opacity="1" fill-opacity="0" stroke="#000000" stroke-width="1" stroke-opacity="0"></use></g></g><g><use xlink:href="#c5t1wBwm9p" opacity="1" fill="#8b8b8b" fill-opacity="1"></use><g><use xlink:href="#c5t1wBwm9p" opacity="1" fill-opacity="0" stroke="#000000" stroke-width="1" stroke-opacity="0"></use></g></g><g><use xlink:href="#a1FUuGH0u7" opacity="1" fill="#8b8b8b" fill-opacity="1"></use><g><use xlink:href="#a1FUuGH0u7" opacity="1" fill-opacity="0" stroke="#000000" stroke-width="1" stroke-opacity="0"></use></g></g><g><use xlink:href="#a516wfOTt" opacity="1" fill="#8b8b8b" fill-opacity="1"></use><g><use xlink:href="#a516wfOTt" opacity="1" fill-opacity="0" stroke="#000000" stroke-width="1" stroke-opacity="0"></use></g></g><g><use xlink:href="#d8t6q2dvG" opacity="1" fill="#8b8b8b" fill-opacity="1"></use><g><use xlink:href="#d8t6q2dvG" opacity="1" fill-opacity="0" stroke="#000000" stroke-width="1" stroke-opacity="0"></use></g></g><g><use xlink:href="#b5W1x5xv0X" opacity="1" fill="#8b8b8b" fill-opacity="1"></use><g><use xlink:href="#b5W1x5xv0X" opacity="1" fill-opacity="0" stroke="#000000" stroke-width="1" stroke-opacity="0"></use></g></g></g></g></svg>