<?xml version="1.0" encoding="UTF-8"?>
<svg width="425px" height="120px" viewBox="0 0 425 120" version="1.1" xmlns="http://www.w3.org/2000/svg" xmlns:xlink="http://www.w3.org/1999/xlink">
    <!-- Generator: Sketch 52.1 (67048) - http://www.bohemiancoding.com/sketch -->
    <title>Logo-boxme-global</title>
    <desc>Created with Sketch.</desc>
    <g id="Logo-boxme-global" stroke="none" stroke-width="1" fill="none" fill-rule="evenodd">
        <g id="XMLID_120_-Copy" transform="translate(15.000000, 11.000000)">
            <path d="M117.758621,96.3231328 C116.896552,95.8272292 116.206897,95.1660244 115.689655,94.2568677 C115.258621,93.3477111 115,92.2732532 115,91.0334941 C115,89.7937351 115.258621,88.7192772 115.689655,87.8101206 C116.12069,86.9009639 116.810345,86.2397591 117.758621,85.7438554 C118.62069,85.2479518 119.655172,85 120.862069,85 C121.724138,85 122.5,85.1653012 123.189655,85.413253 C123.87931,85.6612048 124.482759,85.9918073 125,86.4877109 L124.396552,87.72747 C123.793103,87.3142169 123.275862,86.9836145 122.672414,86.7356627 C122.155172,86.5703615 121.465517,86.4050603 120.862069,86.4050603 C119.568966,86.4050603 118.62069,86.8183133 117.931034,87.5621687 C117.241379,88.3060242 116.896552,89.4631327 116.896552,90.9508435 C116.896552,92.4385544 117.241379,93.5956629 117.931034,94.3395183 C118.62069,95.1660244 119.655172,95.5792774 120.862069,95.5792774 C121.551724,95.5792774 122.155172,95.4966268 122.672414,95.248675 C123.189655,95.0833738 123.793103,94.7527714 124.396552,94.2568677 L125,95.4966268 C124.482759,95.9925304 123.87931,96.3231328 123.189655,96.5710847 C122.5,96.8190365 121.724138,96.9843377 120.862069,96.9843377 C119.741379,97.0669883 118.706897,96.8190365 117.758621,96.3231328 Z" id="XMLID_368_" fill="#F9A733"></path>
            <path d="M138,97 L136.070175,97 L134.491228,93 C134.315789,92.5833333 134.052632,92.25 133.789474,92.0833333 C133.526316,91.9166667 133,91.8333333 132.473684,91.8333333 L129.754386,91.8333333 L129.754386,96.9166667 L128,96.9166667 L128,85 L133.175439,85 C134.578947,85 135.631579,85.25 136.333333,85.8333333 C137.035088,86.4166667 137.473684,87.25 137.473684,88.3333333 C137.473684,89.0833333 137.298246,89.75 136.859649,90.3333333 C136.421053,90.9166667 135.807018,91.25 135.017544,91.5 C135.719298,91.5833333 136.245614,92.0833333 136.596491,93 L138,97 Z M132.824561,90.5 C133.701754,90.5 134.403509,90.3333333 134.842105,90 C135.280702,89.6666667 135.54386,89.1666667 135.54386,88.5 C135.54386,87.8333333 135.280702,87.3333333 134.842105,87 C134.403509,86.6666667 133.701754,86.5 132.824561,86.5 L129.666667,86.5 L129.666667,90.5833333 L132.824561,90.5833333 L132.824561,90.5 Z" id="XMLID_332_" fill="#F9A733" fill-rule="nonzero"></path>
            <path d="M143.583333,96.260274 C142.75,95.7671233 142.083333,95.109589 141.666667,94.2054795 C141.25,93.3013699 141,92.2328767 141,91 C141,89.7671233 141.25,88.6986301 141.666667,87.7945205 C142.083333,86.890411 142.75,86.2328767 143.583333,85.739726 C144.416667,85.2465753 145.416667,85 146.5,85 C147.666667,85 148.583333,85.2465753 149.416667,85.739726 C150.25,86.2328767 150.916667,86.890411 151.333333,87.7945205 C151.75,88.6986301 152,89.7671233 152,91 C152,92.2328767 151.75,93.3013699 151.333333,94.2054795 C150.916667,95.109589 150.25,95.7671233 149.416667,96.260274 C148.583333,96.7534247 147.583333,97 146.5,97 C145.416667,97 144.416667,96.7534247 143.583333,96.260274 Z M149.333333,94.4520548 C150,93.630137 150.333333,92.4794521 150.333333,91 C150.333333,89.5205479 150,88.369863 149.333333,87.630137 C148.666667,86.8082192 147.75,86.3972603 146.583333,86.3972603 C145.416667,86.3972603 144.5,86.8082192 143.833333,87.630137 C143.166667,88.4520548 142.833333,89.6027397 142.833333,91 C142.833333,92.4794521 143.166667,93.630137 143.833333,94.4520548 C144.5,95.2739726 145.416667,95.6849315 146.583333,95.6849315 C147.75,95.6027397 148.666667,95.1917808 149.333333,94.4520548 Z" id="XMLID_329_" fill="#F9A733" fill-rule="nonzero"></path>
            <path d="M157.928571,96.5102041 C157.205357,96.2653061 156.5625,95.9387755 156,95.4489796 L156.5625,94.2244898 C157.125,94.7142857 157.6875,95.0408163 158.330357,95.2040816 C158.973214,95.4489796 159.616071,95.5306122 160.339286,95.5306122 C161.223214,95.5306122 161.866071,95.3673469 162.348214,95.0408163 C162.830357,94.7142857 163.071429,94.2244898 163.071429,93.6530612 C163.071429,93.1632653 162.830357,92.755102 162.428571,92.5102041 C162.026786,92.2653061 161.303571,92.0204082 160.339286,91.7755102 C159.455357,91.6122449 158.651786,91.3673469 158.089286,91.122449 C157.526786,90.877551 157.044643,90.5510204 156.723214,90.0612245 C156.401786,89.6530612 156.241071,89.0816327 156.241071,88.4285714 C156.241071,87.7755102 156.401786,87.122449 156.803571,86.6326531 C157.125,86.1428571 157.6875,85.7346939 158.330357,85.4081633 C158.973214,85.0816327 159.696429,85 160.580357,85 C161.383929,85 162.107143,85.1632653 162.830357,85.4081633 C163.553571,85.6530612 164.116071,85.9795918 164.598214,86.4693878 L164.035714,87.6938776 C163.473214,87.2857143 162.991071,86.877551 162.428571,86.7142857 C161.866071,86.4693878 161.303571,86.3877551 160.660714,86.3877551 C159.857143,86.3877551 159.214286,86.5510204 158.732143,86.9591837 C158.25,87.2857143 158.008929,87.7755102 158.008929,88.4285714 C158.008929,88.9183673 158.25,89.3265306 158.651786,89.6530612 C159.053571,89.8979592 159.696429,90.1428571 160.660714,90.3877551 C161.625,90.6326531 162.428571,90.7959184 162.991071,91.0408163 C163.553571,91.2857143 164.035714,91.6122449 164.4375,92.0204082 C164.758929,92.4285714 165,93 165,93.6530612 C165,94.3061224 164.839286,94.9591837 164.4375,95.4489796 C164.116071,95.9387755 163.553571,96.3469388 162.910714,96.5918367 C162.267857,96.8367347 161.464286,97 160.580357,97 C159.455357,96.8367347 158.651786,96.755102 157.928571,96.5102041 Z" id="XMLID_327_" fill="#F9A733"></path>
            <path d="M169.928571,96.5102041 C169.205357,96.2653061 168.5625,95.9387755 168,95.4489796 L168.5625,94.2244898 C169.125,94.7142857 169.6875,95.0408163 170.330357,95.2040816 C170.973214,95.4489796 171.616071,95.5306122 172.339286,95.5306122 C173.223214,95.5306122 173.866071,95.3673469 174.348214,95.0408163 C174.830357,94.7142857 175.071429,94.2244898 175.071429,93.6530612 C175.071429,93.1632653 174.830357,92.755102 174.428571,92.5102041 C174.026786,92.2653061 173.303571,92.0204082 172.339286,91.7755102 C171.455357,91.6122449 170.651786,91.3673469 170.089286,91.122449 C169.526786,90.877551 169.044643,90.5510204 168.723214,90.0612245 C168.401786,89.6530612 168.241071,89.0816327 168.241071,88.4285714 C168.241071,87.7755102 168.401786,87.122449 168.803571,86.6326531 C169.125,86.1428571 169.6875,85.7346939 170.330357,85.4081633 C170.973214,85.0816327 171.696429,85 172.580357,85 C173.383929,85 174.107143,85.1632653 174.830357,85.4081633 C175.553571,85.6530612 176.116071,85.9795918 176.598214,86.4693878 L176.035714,87.6938776 C175.473214,87.2857143 174.991071,86.877551 174.428571,86.7142857 C173.866071,86.4693878 173.303571,86.3877551 172.660714,86.3877551 C171.857143,86.3877551 171.214286,86.5510204 170.732143,86.9591837 C170.25,87.2857143 170.008929,87.7755102 170.008929,88.4285714 C170.008929,88.9183673 170.25,89.3265306 170.651786,89.6530612 C171.053571,89.8979592 171.696429,90.1428571 172.660714,90.3877551 C173.625,90.6326531 174.428571,90.7959184 174.991071,91.0408163 C175.553571,91.2857143 176.035714,91.6122449 176.4375,92.0204082 C176.758929,92.4285714 177,93 177,93.6530612 C177,94.3061224 176.839286,94.9591837 176.4375,95.4489796 C176.116071,95.9387755 175.553571,96.3469388 174.910714,96.5918367 C174.267857,96.8367347 173.464286,97 172.580357,97 C171.535714,96.8367347 170.732143,96.755102 169.928571,96.5102041 Z" id="XMLID_325_" fill="#F9A733"></path>
            <g id="XMLID_304_" transform="translate(185.000000, 85.000000)" fill="#F9A733">
                <path d="M9.37391304,7.3125 C9.7923913,7.8 9.95978261,8.36875 9.95978261,9.1 C9.95978261,10.075 9.625,10.8875 8.87173913,11.45625 C8.11847826,12.025 7.19782609,12.26875 5.85869565,12.26875 L0.669565217,12.26875 L0.669565217,0.65 L5.69130435,0.65 C6.94673913,0.65 7.8673913,0.89375 8.53695652,1.4625 C9.20652174,2.03125 9.54130435,2.7625 9.54130435,3.7375 C9.54130435,4.3875 9.37391304,4.875 9.03913043,5.3625 C8.70434783,5.85 8.28586957,6.175 7.61630435,6.3375 C8.45326087,6.5 9.03913043,6.825 9.37391304,7.3125 Z M2.42717391,5.76875 L5.44021739,5.76875 C7.11413043,5.76875 7.95108696,5.11875 7.95108696,3.9 C7.95108696,2.68125 7.11413043,2.1125 5.44021739,2.1125 L2.42717391,2.1125 L2.42717391,5.76875 Z M7.7,10.48125 C8.11847826,10.15625 8.28586957,9.66875 8.28586957,9.01875 C8.28586957,8.36875 8.11847826,7.88125 7.7,7.55625 C7.28152174,7.23125 6.69565217,7.06875 5.775,7.06875 L2.51086957,7.06875 L2.51086957,10.96875 L5.775,10.96875 C6.61195652,10.96875 7.28152174,10.80625 7.7,10.48125 Z" id="XMLID_320_" fill-rule="nonzero"></path>
                <path d="M15.9858696,11.7 C15.148913,11.2125 14.4793478,10.5625 14.0608696,9.66875 C13.6423913,8.775 13.3913043,7.71875 13.3913043,6.5 C13.3913043,5.28125 13.6423913,4.225 14.0608696,3.33125 C14.4793478,2.4375 15.148913,1.7875 15.9858696,1.3 C16.8228261,0.8125 17.8271739,0.56875 18.9152174,0.56875 C20.0869565,0.56875 21.0076087,0.8125 21.8445652,1.3 C22.6815217,1.7875 23.351087,2.4375 23.7695652,3.33125 C24.1880435,4.225 24.4391304,5.28125 24.4391304,6.5 C24.4391304,7.71875 24.1880435,8.775 23.7695652,9.66875 C23.351087,10.5625 22.6815217,11.2125 21.8445652,11.7 C21.0076087,12.1875 20.0032609,12.43125 18.9152174,12.43125 C17.8271739,12.43125 16.8228261,12.1875 15.9858696,11.7 Z M21.7608696,9.9125 C22.4304348,9.1 22.7652174,7.9625 22.7652174,6.5 C22.7652174,5.0375 22.4304348,3.9 21.7608696,3.16875 C21.0913043,2.35625 20.1706522,1.95 18.998913,1.95 C17.8271739,1.95 16.9065217,2.35625 16.2369565,3.16875 C15.5673913,3.98125 15.2326087,5.11875 15.2326087,6.5 C15.2326087,7.9625 15.5673913,9.1 16.2369565,9.9125 C16.9065217,10.725 17.8271739,11.13125 18.998913,11.13125 C20.0869565,11.05 21.0913043,10.64375 21.7608696,9.9125 Z" id="XMLID_316_" fill-rule="nonzero"></path>
                <path d="M37.9978261,12.35 L36.1565217,12.35 L34.65,8.45 C34.4826087,8.04375 34.2315217,7.71875 33.9804348,7.55625 C33.6456522,7.39375 33.2271739,7.3125 32.725,7.3125 L30.1304348,7.3125 L30.1304348,12.26875 L28.4565217,12.26875 L28.4565217,0.65 L33.3945652,0.65 C34.7336957,0.65 35.7380435,0.89375 36.4076087,1.4625 C37.0771739,2.03125 37.4956522,2.84375 37.4956522,3.9 C37.4956522,4.63125 37.3282609,5.28125 36.9097826,5.85 C36.4913043,6.41875 35.9054348,6.74375 35.1521739,6.9875 C35.8217391,7.06875 36.323913,7.55625 36.6586957,8.45 L37.9978261,12.35 Z M33.1434783,6.0125 C33.9804348,6.0125 34.65,5.85 35.0684783,5.525 C35.4869565,5.2 35.7380435,4.7125 35.7380435,4.0625 C35.7380435,3.4125 35.5706522,2.925 35.0684783,2.6 C34.65,2.275 33.9804348,2.1125 33.1434783,2.1125 L30.1304348,2.1125 L30.1304348,6.09375 L33.1434783,6.09375 L33.1434783,6.0125 Z" id="XMLID_313_" fill-rule="nonzero"></path>
                <path d="M41.5967391,0.65 L45.7815217,0.65 C47.7065217,0.65 49.2130435,1.1375 50.301087,2.19375 C51.3891304,3.16875 51.8913043,4.63125 51.8913043,6.5 C51.8913043,8.36875 51.3891304,9.75 50.301087,10.80625 C49.2130435,11.8625 47.7065217,12.35 45.7815217,12.35 L41.5967391,12.35 L41.5967391,0.65 Z M45.6978261,10.8875 C48.6271739,10.8875 50.1336957,9.425 50.1336957,6.5 C50.1336957,3.575 48.6271739,2.1125 45.6978261,2.1125 L43.3543478,2.1125 L43.3543478,10.8875 L45.6978261,10.8875 Z" id="XMLID_310_" fill-rule="nonzero"></path>
                <polygon id="XMLID_308_" points="55.825 12.35 55.825 0.73125 63.6086957 0.73125 63.6086957 2.1125 57.5826087 2.1125 57.5826087 5.76875 63.273913 5.76875 63.273913 7.15 57.5826087 7.15 57.5826087 10.96875 63.6086957 10.96875 63.6086957 12.35 55.825 12.35"></polygon>
                <path d="M76.8326087,12.35 L74.9913043,12.35 L73.4847826,8.45 C73.3173913,8.04375 73.0663043,7.71875 72.8152174,7.55625 C72.4804348,7.39375 72.0619565,7.3125 71.5597826,7.3125 L68.9652174,7.3125 L68.9652174,12.26875 L67.2913043,12.26875 L67.2913043,0.65 L72.2293478,0.65 C73.5684783,0.65 74.5728261,0.89375 75.2423913,1.4625 C75.9119565,2.03125 76.3304348,2.84375 76.3304348,3.9 C76.3304348,4.63125 76.1630435,5.28125 75.7445652,5.85 C75.326087,6.41875 74.7402174,6.74375 73.9869565,6.9875 C74.6565217,7.06875 75.1586957,7.55625 75.4934783,8.45 L76.8326087,12.35 Z M71.9782609,6.0125 C72.8152174,6.0125 73.4847826,5.85 73.9032609,5.525 C74.3217391,5.2 74.5728261,4.7125 74.5728261,4.0625 C74.5728261,3.4125 74.3217391,2.925 73.9032609,2.6 C73.4847826,2.275 72.8152174,2.1125 71.9782609,2.1125 L68.9652174,2.1125 L68.9652174,6.09375 L71.9782609,6.09375 L71.9782609,6.0125 Z" id="XMLID_305_" fill-rule="nonzero"></path>
            </g>
            <g id="XMLID_154_" transform="translate(270.000000, 85.000000)" fill="#F9A733">
                <polygon id="XMLID_302_" points="0.336 12.35 0.336 0.73125 7.98 0.73125 7.98 2.1125 2.1 2.1125 2.1 5.76875 7.644 5.76875 7.644 7.15 2.1 7.15 2.1 12.35 0.336 12.35"></polygon>
                <path d="M12.6,11.2125 C11.76,10.4 11.34,9.2625 11.34,7.6375 L11.34,0.65 L13.02,0.65 L13.02,7.8 C13.02,8.85625 13.272,9.66875 13.86,10.2375 C14.364,10.80625 15.204,11.05 16.212,11.05 C17.22,11.05 18.06,10.80625 18.564,10.2375 C19.068,9.66875 19.404,8.85625 19.404,7.8 L19.404,0.65 L21.168,0.65 L21.168,7.6375 C21.168,9.18125 20.748,10.4 19.908,11.2125 C19.068,12.025 17.892,12.43125 16.296,12.43125 C14.616,12.43125 13.44,12.025 12.6,11.2125 Z" id="XMLID_300_"></path>
                <polygon id="XMLID_298_" points="25.368 12.35 25.368 0.73125 27.132 0.73125 27.132 10.96875 33.012 10.96875 33.012 12.35"></polygon>
                <polygon id="XMLID_296_" points="36.204 12.35 36.204 0.73125 43.848 0.73125 43.848 2.1125 37.968 2.1125 37.968 5.76875 43.512 5.76875 43.512 7.15 37.968 7.15 37.968 12.35 36.204 12.35"></polygon>
                <polygon id="XMLID_294_" points="47.292 12.35 47.292 0.73125 49.056 0.73125 49.056 12.35"></polygon>
                <polygon id="XMLID_292_" points="53.34 12.35 53.34 0.73125 55.104 0.73125 55.104 10.96875 60.984 10.96875 60.984 12.35"></polygon>
                <polygon id="XMLID_290_" points="64.176 12.35 64.176 0.73125 65.94 0.73125 65.94 10.96875 71.82 10.96875 71.82 12.35"></polygon>
                <polygon id="XMLID_162_" points="85.092 0.65 86.52 0.65 86.52 12.26875 84.924 12.26875 84.924 4.30625 81.396 12.26875 80.22 12.26875 76.608 4.30625 76.608 12.26875 75.012 12.26875 75.012 0.65 76.44 0.65 80.808 10.2375"></polygon>
                <polygon id="XMLID_160_" points="90.888 12.35 90.888 0.73125 98.7 0.73125 98.7 2.1125 92.652 2.1125 92.652 5.76875 98.364 5.76875 98.364 7.15 92.652 7.15 92.652 10.96875 98.7 10.96875 98.7 12.35 90.888 12.35"></polygon>
                <polygon id="XMLID_158_" points="110.544 0.65 112.14 0.65 112.14 12.26875 110.88 12.26875 103.992 3.49375 103.992 12.26875 102.396 12.26875 102.396 0.65 103.74 0.65 110.628 9.425 110.628 0.65"></polygon>
                <polygon id="XMLID_156_" points="119.364 12.35 119.364 2.1125 115.332 2.1125 115.332 0.73125 125.244 0.73125 125.244 2.1125 121.212 2.1125 121.212 12.35"></polygon>
            </g>
            <path d="M158.254973,53.2143885 C160.084991,55.6345324 161,58.6388489 161,62.2273381 C161,67.1510791 159.253165,71.0733813 155.759494,73.8273381 C152.265823,76.6647482 147.44123,78 141.202532,78 L115,78 L115,20 L140.453888,20 C146.443038,20 151.101266,21.3352518 154.511754,24.0057554 C157.922242,26.676259 159.669078,30.4316547 159.669078,35.105036 C159.669078,38.1093525 158.837251,40.7798561 157.256781,43.0330935 C155.676311,45.2863309 153.43038,46.9553957 150.60217,47.9568345 C153.846293,49.0417266 156.424955,50.7942446 158.254973,53.2143885 Z M125.148282,44.5352518 L138.62387,44.5352518 C145.860759,44.5352518 149.520796,41.781295 149.520796,36.3568345 C149.520796,33.6028777 148.605787,31.6 146.858951,30.2647482 C145.112116,28.9294964 142.367089,28.2618705 138.62387,28.2618705 L125.148282,28.2618705 L125.148282,44.5352518 Z M148.356239,67.9021583 C150.103074,66.5669065 151.018083,64.3971223 151.018083,61.476259 C151.018083,58.4719424 150.103074,56.3021583 148.356239,54.8834532 C146.609403,53.4647482 143.781193,52.7971223 140.037975,52.7971223 L125.148282,52.7971223 L125.148282,69.9884892 L140.037975,69.9884892 C143.864376,69.905036 146.609403,69.2374101 148.356239,67.9021583 Z" id="XMLID_149_" fill="#F9A733" fill-rule="nonzero"></path>
            <path d="M182.725581,74.4899135 C178.623256,72.1498559 175.525581,68.7233429 173.348837,64.3775216 C171.172093,60.0317003 170,54.8501441 170,48.9164265 C170,43.0662824 171.088372,37.8847262 173.265116,33.5389049 C175.44186,29.1930836 178.539535,25.7665706 182.64186,23.5100865 C186.744186,21.1700288 191.516279,20 197.04186,20 C202.567442,20 207.339535,21.1700288 211.44186,23.5100865 C215.544186,25.8501441 218.64186,29.1930836 220.734884,33.5389049 C222.911628,37.8847262 224,43.0662824 224,48.9164265 C224,54.8501441 222.911628,60.0317003 220.734884,64.3775216 C218.55814,68.7233429 215.460465,72.1498559 211.44186,74.4899135 C207.423256,76.8299712 202.651163,78 197.125581,78 C191.6,78 186.827907,76.8299712 182.725581,74.4899135 Z M209.348837,64.3775216 C212.27907,60.7838617 213.702326,55.6023055 213.702326,48.832853 C213.702326,42.1469741 212.27907,37.0489914 209.348837,33.4553314 C206.418605,29.8616715 202.316279,28.1066282 197.04186,28.1066282 C191.767442,28.1066282 187.665116,29.8616715 184.734884,33.4553314 C181.804651,37.0489914 180.381395,42.1469741 180.381395,48.9164265 C180.381395,55.685879 181.804651,60.8674352 184.734884,64.4610951 C187.665116,68.054755 191.767442,69.8933718 197.04186,69.8933718 C202.316279,69.8933718 206.418605,67.9711816 209.348837,64.3775216 Z" id="XMLID_8_" fill="#F9A733" fill-rule="nonzero"></path>
            <polygon id="XMLID_6_" fill="#F9A733" points="260.850746 48.457554 283 78 270.713433 78 255 56.3021583 239.286567 78 227 78 249.149254 48.457554 227.752239 20 240.038806 20 255.083582 40.7798561 270.295522 20 282.498507 20"></polygon>
            <polygon id="XMLID_4_" fill="#F9A733" points="340.555556 20 349 20 349 78 339.626667 78 339.626667 42.0316547 324.004444 78 316.995556 78 301.373333 42.3654676 301.373333 78 292 78 292 20 300.444444 20 320.626667 65.3985612"></polygon>
            <polygon id="XMLID_2_" fill="#F9A733" points="357 78 357 20 396 20 396 28.3453237 367.316129 28.3453237 367.316129 44.3683453 394.23871 44.3683453 394.23871 52.7136691 367.316129 52.7136691 367.316129 69.6546763 396 69.6546763 396 78"></polygon>
            <g id="XMLID_121_">
                <path d="M49.8376068,34.9282051 L35.5982906,29.5675214 L32.834188,28.5623932 C31.9128205,28.2273504 30.991453,28.3948718 30.2376068,28.8974359 C29.8188034,29.2324786 29.4837607,29.7350427 29.2324786,30.2376068 L23.3692308,28.0598291 L23.3692308,27.0547009 C23.3692308,25.8820513 22.6991453,24.8769231 21.6102564,24.4581197 L20.1863248,23.8717949 C20.1025641,23.7880342 19.9350427,23.7880342 19.8512821,23.7880342 L4.60683761,18.008547 C4.02051282,17.757265 3.35042735,17.757265 2.76410256,17.9247863 L2.5965812,18.008547 C1.84273504,18.3435897 1.25641026,18.8461538 1.00512821,19.6837607 C0.837606838,20.0188034 0.753846154,20.3538462 0.753846154,20.6888889 L0.753846154,40.1213675 L48.8324786,59.6376068 L48.8324786,74.5470085 L0.753846154,54.3606838 L0.753846154,72.034188 C0.753846154,73.1230769 1.34017094,74.0444444 2.34529915,74.5470085 L19.2649573,82.9230769 C19.2649573,82.9230769 19.2649573,82.9230769 19.2649573,82.9230769 L30.4888889,88.5350427 C30.4888889,88.5350427 30.4888889,88.5350427 30.5726496,88.5350427 L47.5760684,96.9948718 C47.9948718,97.1623932 48.3299145,97.2461538 48.8324786,97.2461538 C49.3350427,97.2461538 49.8376068,97.1623932 50.3401709,96.8273504 C51.1777778,96.2410256 51.6803419,95.3196581 51.6803419,94.3982906 L51.6803419,37.4410256 C51.6803419,36.4358974 50.9264957,35.3470085 49.8376068,34.9282051 Z" id="XMLID_1_" fill="#F9BD27"></path>
                <path d="M97.3299145,20.6051282 C97.3299145,21.7777778 96.5760684,22.8666667 95.4871795,23.2854701 L49.8376068,40.2888889 C49.5025641,40.3726496 49.1675214,40.4564103 48.8324786,40.4564103 L48.8324786,37.608547 L37.9435897,33.5042735 L37.8598291,33.5042735 L34.6769231,32.3316239 L31.4102564,31.0752137 L17.9247863,25.965812 L0.921367521,19.6 C1.17264957,18.8461538 1.75897436,18.2598291 2.51282051,17.9247863 L2.68034188,17.8410256 L4.52307692,17.1709402 L47.7435897,0.921367521 C48.4136752,0.67008547 49.0837607,0.67008547 49.7538462,0.921367521 L66.5897436,7.11965812 L84.4307692,13.8205128 L95.3196581,17.9247863 C96.0735043,18.1760684 96.5760684,18.8461538 96.8273504,19.6 C97.1623932,20.0188034 97.3299145,20.2700855 97.3299145,20.6051282 Z" id="XMLID_126_" fill="#FDD32D"></path>
                <path d="M97.3299145,20.6051282 L97.3299145,77.5623932 C97.3299145,78.7350427 96.5760684,79.8239316 95.4871795,80.242735 L49.8376068,97.2461538 C49.5025641,97.3299145 49.1675214,97.4136752 48.8324786,97.4136752 L48.8324786,37.608547 L96.9948718,19.6837607 C97.1623932,20.0188034 97.3299145,20.2700855 97.3299145,20.6051282 Z" id="XMLID_125_" fill="#F9A733"></path>
                <path d="M48.8324786,59.5538462 C48.8324786,59.3025641 71.1128205,50.6752137 71.1128205,50.6752137 L71.1128205,65.6683761 L48.8324786,74.5470085 L48.8324786,59.5538462 Z" id="XMLID_124_" fill="#F1F1F2"></path>
                <polygon id="XMLID_123_" fill="#F1F1F2" points="68.1811966 46.3196581 68.1811966 71.4478632 81.6666667 53.9418803"></polygon>
                <polygon id="XMLID_122_" fill="#FFFFFF" points="48.8324786 59.5538462 0.753846154 40.0376068 0.753846154 54.2769231 48.8324786 74.4632479"></polygon>
            </g>
        </g>
    </g>
</svg>