<?xml version="1.0" encoding="UTF-8" standalone="no"?>
<!DOCTYPE svg PUBLIC "-//W3C//DTD SVG 1.1//EN" "http://www.w3.org/Graphics/SVG/1.1/DTD/svg11.dtd">
<svg version="1.1" xmlns="http://www.w3.org/2000/svg" xmlns:xlink="http://www.w3.org/1999/xlink" preserveAspectRatio="xMidYMid meet" viewBox="0 0 640 640" width="640" height="640"><defs><path d="M440.32 353.79C436.8 347.61 431.77 341.58 425.21 335.68C418.65 329.78 412.76 325.04 407.53 321.43C402.3 317.81 395.12 313.77 386 309.3C376.88 304.83 369.65 301.51 364.33 299.32C359.01 297.14 351.3 294.14 341.23 290.34C332.29 286.92 325.64 284.31 321.26 282.5C316.89 280.69 311.14 278.13 304.01 274.8C296.89 271.48 291.56 268.53 288.04 265.96C284.53 263.4 280.77 260.26 276.78 256.55C272.79 252.85 269.98 248.9 268.37 244.72C266.75 240.54 265.95 235.97 265.95 231.03C265.95 218.11 271.65 207.55 283.05 199.38C294.46 191.21 309.2 187.12 327.26 187.12C335.24 187.12 343.37 188.21 351.64 190.4C359.9 192.59 366.98 195.05 372.88 197.81C378.78 200.57 384.34 203.61 389.57 206.94C394.79 210.27 398.5 212.78 400.69 214.49C402.87 216.21 404.26 217.35 404.82 217.92C407.3 219.82 409.86 220.48 412.52 219.91C415.37 219.72 417.56 218.2 419.08 215.35C421.39 211.19 439.88 177.88 442.19 173.72C444.47 169.92 443.99 166.3 440.76 162.88C439.62 161.74 438.2 160.41 436.47 158.89C434.77 157.37 431.06 154.61 425.35 150.62C419.65 146.63 413.61 143.06 407.25 139.92C400.88 136.79 392.61 133.6 382.43 130.37C372.27 127.14 361.76 124.95 350.92 123.81C350.92 118.79 350.92 78.64 350.92 73.62C350.92 70.96 350.07 68.78 348.36 67.06C346.65 65.36 344.47 64.5 341.8 64.5C337.95 64.5 307.15 64.5 303.3 64.5C300.83 64.5 298.69 65.4 296.89 67.21C295.08 69.01 294.18 71.15 294.18 73.62C294.18 78.76 294.18 119.82 294.18 124.95C264.33 130.65 240.09 143.39 221.46 163.16C202.83 182.93 193.51 205.93 193.51 232.17C193.51 239.97 194.32 247.38 195.94 254.41C197.55 261.45 199.55 267.77 201.93 273.38C204.3 278.99 207.68 284.5 212.05 289.92C216.42 295.34 220.56 299.99 224.46 303.89C228.35 307.78 233.44 311.82 239.71 316.01C245.99 320.19 251.36 323.57 255.83 326.13C260.3 328.69 266.24 331.65 273.65 334.96C281.06 338.29 286.91 340.81 291.19 342.52C295.46 344.23 301.31 346.61 308.73 349.65C318.99 353.64 326.6 356.73 331.54 358.92C336.49 361.11 342.76 364.15 350.37 368.04C357.97 371.94 363.53 375.5 367.05 378.74C370.56 381.97 373.75 385.96 376.6 390.71C379.45 395.46 380.88 400.5 380.88 405.83C380.88 420.85 375.04 432.44 363.34 440.61C351.65 448.79 338.1 452.87 322.71 452.87C315.68 452.87 308.64 452.12 301.61 450.6C276.89 445.65 253.79 433.77 232.31 414.95C232.26 414.89 231.8 414.43 231.74 414.38C230.03 412.29 227.75 411.43 224.9 411.82C221.86 412.2 219.67 413.34 218.34 415.24C215.4 419.09 191.91 449.89 188.97 453.74C186.12 457.54 186.31 461.43 189.54 465.43C190.49 466.57 192.15 468.28 194.53 470.56C196.91 472.85 201.33 476.4 207.79 481.26C214.25 486.11 221.29 490.67 228.89 494.95C236.5 499.23 246.15 503.46 257.84 507.64C269.53 511.82 281.65 514.76 294.2 516.47C294.2 521.46 294.2 561.38 294.2 566.37C294.2 568.85 295.1 570.99 296.91 572.79C298.71 574.6 300.85 575.5 303.32 575.5C307.17 575.5 337.97 575.5 341.82 575.5C344.49 575.5 346.67 574.65 348.38 572.94C350.09 571.23 350.94 569.04 350.94 566.38C350.94 561.39 350.94 521.46 350.94 516.47C381.18 511.53 405.75 498.56 424.66 477.55C443.58 456.54 453.04 431.49 453.04 402.41C453.03 392.91 451.79 383.97 449.3 375.6C446.83 367.24 443.84 359.97 440.32 353.79Z" id="a8KGcRvWr"></path></defs><g><g><g><use xlink:href="#a8KGcRvWr" opacity="1" fill="#ffffff" fill-opacity="1"></use><g><use xlink:href="#a8KGcRvWr" opacity="1" fill-opacity="0" stroke="#000000" stroke-width="1" stroke-opacity="0"></use></g></g></g></g></svg>