<?xml version="1.0" encoding="UTF-8" standalone="no"?>
<!DOCTYPE svg PUBLIC "-//W3C//DTD SVG 1.1//EN" "http://www.w3.org/Graphics/SVG/1.1/DTD/svg11.dtd">
<svg version="1.1" xmlns="http://www.w3.org/2000/svg" xmlns:xlink="http://www.w3.org/1999/xlink" preserveAspectRatio="xMidYMid meet" viewBox="0 0 640 640" width="640" height="640"><defs><path d="M467.17 42.8C404.84 42.8 350.41 75.9 320 125.37C289.59 75.9 235.14 42.8 172.81 42.8C77.36 42.8 0 120.18 0 215.63C0 267.6 23.03 314.09 59.32 345.75C83.81 370.24 279.74 566.18 304.23 590.67C308.41 594.85 314.08 597.2 320 597.2C325.91 597.2 331.59 594.85 335.77 590.67C360.26 566.18 556.18 370.24 580.67 345.75C616.97 314.09 640 267.6 640 215.63C640 120.18 562.62 42.8 467.17 42.8Z" id="c1CKpLhF83"></path></defs><g><g><g><use xlink:href="#c1CKpLhF83" opacity="1" fill="#ffffff" fill-opacity="1"></use><g><use xlink:href="#c1CKpLhF83" opacity="1" fill-opacity="0" stroke="#000000" stroke-width="1" stroke-opacity="0"></use></g></g></g></g></svg>