<?xml version="1.0" encoding="UTF-8" standalone="no"?>
<!DOCTYPE svg PUBLIC "-//W3C//DTD SVG 1.1//EN" "http://www.w3.org/Graphics/SVG/1.1/DTD/svg11.dtd">
<svg version="1.1" xmlns="http://www.w3.org/2000/svg" xmlns:xlink="http://www.w3.org/1999/xlink" preserveAspectRatio="xMidYMid meet" viewBox="0 0 640 640" width="640" height="640"><defs><path d="M430.3 0.05L431.29 0.12L432.28 0.21L433.26 0.33L434.24 0.48L435.21 0.65L436.17 0.85L437.13 1.07L438.07 1.32L439.01 1.59L439.94 1.88L440.86 2.2L441.77 2.55L442.67 2.91L443.56 3.3L444.44 3.72L445.3 4.15L446.16 4.61L447 5.09L447.83 5.59L448.64 6.12L449.45 6.66L450.23 7.23L451.01 7.82L451.76 8.43L452.5 9.05L453.23 9.7L453.94 10.37L454.63 11.06L455.31 11.77L455.96 12.49L456.6 13.24L457.22 14L457.82 14.78L458.4 15.58L458.96 16.4L459.5 17.23L460.02 18.08L460.52 18.95L503.08 95.47L544.67 95.47L547.2 95.52L549.7 95.68L552.17 95.93L554.62 96.28L557.03 96.72L559.41 97.26L561.75 97.89L564.06 98.61L566.33 99.42L568.55 100.31L570.73 101.28L572.87 102.34L574.96 103.47L576.99 104.69L578.98 105.98L580.91 107.34L582.79 108.77L584.61 110.27L586.37 111.84L588.07 113.48L589.71 115.18L591.28 116.94L592.78 118.76L594.22 120.64L595.58 122.57L596.87 124.56L598.08 126.6L599.22 128.69L600.27 130.82L601.25 133L602.14 135.23L602.94 137.5L603.66 139.8L604.29 142.15L604.83 144.52L605.28 146.94L605.62 149.38L605.88 151.86L606.03 154.36L606.08 156.89L606.08 298.14L636.79 298.14L636.79 454.74L606.08 454.74L606.08 578.59L606.03 581.11L605.88 583.61L605.62 586.09L605.28 588.53L604.83 590.95L604.29 593.33L603.66 595.67L602.94 597.98L602.14 600.24L601.25 602.47L600.27 604.65L599.22 606.78L598.08 608.87L596.87 610.91L595.58 612.9L594.22 614.83L592.78 616.71L591.28 618.53L589.71 620.29L588.07 621.99L586.37 623.63L584.61 625.2L582.79 626.7L580.91 628.13L578.98 629.5L576.99 630.78L574.96 632L572.87 633.13L570.73 634.19L568.55 635.16L566.33 636.06L564.06 636.86L561.75 637.58L559.41 638.21L557.03 638.75L554.62 639.19L552.17 639.54L549.7 639.79L547.2 639.95L544.67 640L64.63 640L62.1 639.95L59.6 639.79L57.12 639.54L54.68 639.19L52.26 638.75L49.88 638.21L47.54 637.58L45.23 636.86L42.97 636.06L40.74 635.16L38.56 634.19L36.43 633.13L34.34 632L32.3 630.78L30.31 629.5L28.38 628.13L26.5 626.7L24.68 625.2L22.92 623.63L21.22 621.99L19.58 620.29L18.01 618.53L16.51 616.71L15.08 614.83L13.72 612.9L12.43 610.91L11.21 608.87L10.08 606.78L9.02 604.65L8.05 602.47L7.15 600.24L6.35 597.98L5.63 595.67L5 593.33L4.46 590.95L4.02 588.53L3.67 586.09L3.42 583.61L3.26 581.11L3.21 578.59L3.21 156.88L3.26 154.36L3.42 151.85L3.67 149.38L4.02 146.94L4.46 144.52L5 142.14L5.63 139.8L6.35 137.49L7.15 135.23L8.05 133L9.02 130.82L10.08 128.69L11.21 126.6L12.43 124.56L13.72 122.57L15.08 120.64L16.51 118.76L18.01 116.94L19.58 115.18L21.22 113.48L22.92 111.84L24.68 110.27L26.5 108.77L28.38 107.34L30.31 105.97L32.3 104.69L34.34 103.47L36.43 102.34L38.56 101.28L40.74 100.31L42.97 99.41L45.23 98.61L47.54 97.89L49.88 97.26L52.26 96.72L54.68 96.28L57.12 95.93L59.6 95.68L62.1 95.52L64.63 95.47L247.07 95.47L410.41 4.64L410.82 4.42L411.23 4.2L411.65 3.98L412.07 3.78L412.49 3.57L412.91 3.37L413.34 3.18L413.77 2.99L414.2 2.81L414.63 2.64L415.07 2.47L415.5 2.3L415.94 2.14L416.38 1.99L416.83 1.84L417.27 1.7L417.72 1.56L418.16 1.43L418.61 1.3L419.06 1.18L419.52 1.07L419.97 0.96L420.42 0.86L420.88 0.76L421.34 0.67L421.8 0.58L422.26 0.5L422.72 0.43L423.18 0.36L423.64 0.3L424.11 0.24L424.57 0.19L425.03 0.15L425.5 0.11L425.97 0.08L426.43 0.05L426.9 0.03L427.37 0.01L427.83 0L428.3 0L429.3 0.01L430.3 0.05ZM63.11 120.07L61.61 120.16L60.12 120.31L58.66 120.52L57.21 120.79L55.78 121.11L54.38 121.49L52.99 121.92L51.63 122.4L50.3 122.94L48.99 123.52L47.71 124.16L46.45 124.84L45.23 125.57L44.04 126.34L42.88 127.16L41.75 128.02L40.66 128.92L39.6 129.86L38.58 130.84L37.6 131.86L36.66 132.92L35.76 134.01L34.9 135.14L34.08 136.3L33.31 137.49L32.58 138.71L31.9 139.97L31.26 141.25L30.68 142.56L30.14 143.89L29.66 145.25L29.23 146.64L28.85 148.04L28.53 149.47L28.26 150.92L28.05 152.38L27.9 153.87L27.81 155.37L27.78 156.89L27.78 578.59L27.81 580.1L27.9 581.6L28.05 583.09L28.26 584.55L28.53 586L28.85 587.43L29.23 588.84L29.66 590.22L30.14 591.58L30.68 592.91L31.26 594.22L31.9 595.5L32.58 596.76L33.31 597.98L34.08 599.17L34.9 600.33L35.76 601.46L36.66 602.55L37.6 603.61L38.58 604.63L39.6 605.61L40.66 606.55L41.75 607.45L42.88 608.31L44.04 609.13L45.23 609.9L46.45 610.63L47.71 611.31L48.99 611.95L50.3 612.53L51.63 613.07L52.99 613.55L54.38 613.98L55.78 614.36L57.21 614.68L58.66 614.95L60.12 615.16L61.61 615.31L63.11 615.4L64.63 615.43L544.67 615.43L545.68 615.41L546.69 615.34L547.69 615.23L548.69 615.07L549.69 614.86L550.68 614.6L551.66 614.31L552.64 613.96L553.62 613.57L554.59 613.13L555.55 612.65L556.52 612.12L557.47 611.54L558.42 610.92L559.37 610.25L560.31 609.54L561.25 608.78L562.18 607.97L563.11 607.12L564.04 606.22L564.95 605.28L565.87 604.29L566.78 603.25L567.68 602.17L568.58 601.04L569.48 599.87L570.37 598.64L571.25 597.38L572.14 596.07L573.01 594.71L573.88 593.3L574.75 591.85L575.61 590.35L576.47 588.81L577.32 587.22L578.17 585.59L579.01 583.91L579.85 582.18L580.69 580.4L581.52 578.59L581.52 454.75L491.69 454.75L488.58 454.69L485.5 454.5L482.45 454.19L479.44 453.76L476.47 453.21L473.54 452.55L470.65 451.77L467.81 450.89L465.02 449.89L462.27 448.8L459.59 447.59L456.96 446.29L454.38 444.89L451.87 443.4L449.42 441.81L447.04 440.13L444.73 438.37L442.48 436.51L440.31 434.58L438.22 432.56L436.21 430.47L434.27 428.3L432.42 426.06L430.65 423.74L428.97 421.36L427.39 418.91L425.89 416.4L424.49 413.83L423.19 411.2L421.99 408.51L420.89 405.77L419.9 402.98L419.01 400.14L418.24 397.25L417.57 394.32L417.02 391.35L416.59 388.34L416.28 385.29L416.1 382.21L416.03 379.09L416.03 373.81L416.1 370.7L416.28 367.61L416.59 364.57L417.02 361.56L417.57 358.58L418.24 355.65L419.01 352.76L419.9 349.92L420.89 347.13L421.99 344.39L423.19 341.7L424.49 339.07L425.89 336.5L427.39 333.99L428.97 331.54L430.65 329.16L432.42 326.84L434.27 324.6L436.2 322.43L438.22 320.34L440.31 318.32L442.48 316.39L444.73 314.53L447.04 312.77L449.42 311.09L451.87 309.5L454.38 308.01L456.95 306.61L459.59 305.31L462.27 304.11L465.01 303.01L467.81 302.01L470.65 301.13L473.53 300.35L476.47 299.69L479.44 299.14L482.45 298.71L485.5 298.4L488.58 298.21L491.69 298.15L581.52 298.15L581.52 177.36L72.3 177.36L71.8 177.35L71.29 177.32L70.8 177.27L70.31 177.2L69.82 177.11L69.35 177.01L68.88 176.88L68.42 176.74L67.96 176.57L67.52 176.4L67.08 176.2L66.65 175.99L66.24 175.76L65.83 175.52L65.43 175.26L65.04 174.99L64.67 174.71L64.31 174.4L63.95 174.09L63.61 173.76L63.29 173.42L62.97 173.07L62.67 172.71L62.39 172.33L62.12 171.95L61.86 171.55L61.62 171.14L61.39 170.72L61.18 170.3L60.98 169.86L60.81 169.41L60.65 168.96L60.5 168.5L60.38 168.03L60.27 167.55L60.18 167.07L60.11 166.58L60.06 166.09L60.03 165.59L60.02 165.08L60.03 164.57L60.06 164.07L60.11 163.58L60.18 163.09L60.27 162.6L60.38 162.13L60.5 161.66L60.65 161.2L60.81 160.74L60.98 160.3L61.18 159.86L61.39 159.44L61.62 159.02L61.86 158.61L62.12 158.21L62.39 157.83L62.67 157.45L62.97 157.09L63.29 156.73L63.61 156.4L63.95 156.07L64.31 155.75L64.67 155.45L65.04 155.17L65.43 154.89L65.83 154.64L66.24 154.39L66.65 154.17L67.08 153.96L67.52 153.76L67.96 153.58L68.42 153.42L68.88 153.28L69.35 153.15L69.82 153.05L70.31 152.96L70.8 152.89L71.29 152.84L71.8 152.81L72.3 152.8L144 152.8L202.9 120.04L64.63 120.04L63.11 120.07ZM489.59 322.74L487.51 322.87L485.45 323.08L483.41 323.37L481.41 323.74L479.43 324.19L477.48 324.71L475.56 325.31L473.67 325.98L471.82 326.72L470.01 327.53L468.23 328.41L466.49 329.36L464.8 330.37L463.14 331.44L461.53 332.57L459.97 333.76L458.46 335.01L456.99 336.32L455.58 337.68L454.22 339.1L452.91 340.56L451.66 342.08L450.47 343.64L449.33 345.25L448.26 346.9L447.25 348.6L446.31 350.33L445.43 352.11L444.62 353.93L443.88 355.78L443.21 357.66L442.61 359.58L442.08 361.53L441.64 363.51L441.27 365.52L440.98 367.55L440.77 369.61L440.64 371.69L440.6 373.8L440.6 379.08L440.64 381.18L440.77 383.26L440.98 385.32L441.27 387.36L441.64 389.36L442.08 391.34L442.61 393.29L443.21 395.21L443.88 397.1L444.62 398.95L445.43 400.76L446.31 402.54L447.25 404.28L448.26 405.98L449.33 407.63L450.47 409.24L451.66 410.8L452.91 412.31L454.22 413.78L455.58 415.19L456.99 416.55L458.46 417.86L459.97 419.11L461.53 420.3L463.14 421.44L464.8 422.51L466.49 423.52L468.23 424.46L470.01 425.34L471.82 426.15L473.67 426.9L475.56 427.57L477.48 428.16L479.43 428.69L481.41 429.14L483.42 429.51L485.45 429.8L487.51 430.01L489.59 430.13L491.69 430.17L612.22 430.17L612.22 322.7L491.69 322.7L489.59 322.74ZM534.95 152.79L581.11 152.79L580.95 151.65L580.72 150.51L580.44 149.38L580.09 148.26L579.67 147.15L579.2 146.04L578.66 144.94L578.05 143.85L577.39 142.77L576.66 141.69L575.87 140.63L575.01 139.57L574.09 138.52L573.11 137.47L572.07 136.44L570.96 135.41L569.79 134.39L568.56 133.38L567.26 132.38L565.9 131.38L564.48 130.39L562.99 129.41L561.44 128.44L559.83 127.47L558.16 126.52L556.42 125.57L554.62 124.63L552.76 123.69L550.83 122.77L548.84 121.85L546.78 120.94L544.67 120.04L516.75 120.04L534.95 152.79ZM424.96 25.98L424.33 26L423.68 26.03L423.03 26.07L422.36 26.11L194.55 152.78L506.85 152.78L439.05 30.88L438.88 30.6L438.7 30.32L438.51 30.06L438.31 29.8L438.09 29.55L437.86 29.31L437.62 29.08L437.36 28.85L437.09 28.64L436.81 28.43L436.52 28.23L436.21 28.04L435.89 27.86L435.56 27.68L435.21 27.52L434.85 27.36L434.48 27.21L434.09 27.07L433.7 26.94L433.29 26.82L432.86 26.7L432.42 26.6L431.98 26.5L431.51 26.41L431.04 26.33L430.55 26.25L430.05 26.19L429.53 26.13L429.01 26.09L428.47 26.05L427.91 26.01L427.35 25.99L426.77 25.98L426.18 25.97L425.57 25.97L424.96 25.98Z" id="a2QG8wmSC0"></path></defs><g><g><g><use xlink:href="#a2QG8wmSC0" opacity="1" fill="#555555" fill-opacity="1"></use><g><use xlink:href="#a2QG8wmSC0" opacity="1" fill-opacity="0" stroke="#000000" stroke-width="1" stroke-opacity="0"></use></g></g></g></g></svg>