<?xml version="1.0" encoding="UTF-8" standalone="no"?>
<!DOCTYPE svg PUBLIC "-//W3C//DTD SVG 1.1//EN" "http://www.w3.org/Graphics/SVG/1.1/DTD/svg11.dtd">
<svg version="1.1" xmlns="http://www.w3.org/2000/svg" xmlns:xlink="http://www.w3.org/1999/xlink" preserveAspectRatio="xMidYMid meet" viewBox="0 0 640 640" width="640" height="640"><defs><path d="M399.94 386.65C399.94 373.52 412.28 362.84 427.44 362.84C442.61 362.84 454.94 373.52 454.94 386.65C454.94 393.55 460.54 399.15 467.44 399.15C474.34 399.15 479.94 393.55 479.94 386.65C479.94 363.74 462.87 344.48 439.94 339.25C439.94 338.6 439.94 333.4 439.94 332.75C439.94 325.85 434.34 320.25 427.44 320.25C420.54 320.25 414.94 325.85 414.94 332.75C414.94 333.4 414.94 338.6 414.94 339.25C392.01 344.48 374.94 363.74 374.94 386.65C374.94 413.55 398.49 435.45 427.44 435.45C442.61 435.45 454.94 446.12 454.94 459.25C454.94 472.37 442.61 483.05 427.44 483.05C412.28 483.05 399.94 472.37 399.94 459.25C399.94 452.35 394.34 446.75 387.44 446.75C380.54 446.75 374.94 452.35 374.94 459.25C374.94 482.16 392.01 501.42 414.94 506.64C414.94 507.18 414.94 511.5 414.94 512.04C414.94 518.95 420.54 524.54 427.44 524.54C434.34 524.54 439.94 518.95 439.94 512.04C439.94 511.5 439.94 507.18 439.94 506.64C462.87 501.42 479.94 482.16 479.94 459.25C479.94 432.34 456.39 410.45 427.44 410.45C412.28 410.45 399.94 399.77 399.94 386.65Z" id="em5fAR9MK"></path><path d="M497.82 277.22C491.6 274.23 484.13 276.85 481.14 283.07C478.15 289.29 480.77 296.76 486.99 299.75C534.38 322.53 565 371.2 565 423.75C565 446.24 559.46 468.53 548.97 488.24C545.73 494.33 548.04 501.9 554.14 505.15C556.01 506.14 558.02 506.61 560 506.61C564.47 506.61 568.8 504.21 571.04 499.98C583.44 476.68 590 450.32 590 423.75C590 392.55 581.13 362.24 564.35 336.09C548.02 310.65 525.02 290.29 497.82 277.22Z" id="b3jXYFgwpM"></path><path d="M446.25 261.25C439.35 261.25 433.75 266.85 433.75 273.75C433.75 280.65 439.35 286.25 446.25 286.25C446.32 286.25 446.9 286.25 446.97 286.25C446.99 286.25 447.01 286.25 447.03 286.25C453.91 286.25 459.5 280.69 459.53 273.81C459.56 266.91 453.99 261.28 447.09 261.25C446.92 261.25 446.33 261.25 446.25 261.25Z" id="a2ZNSoVTeV"></path><path d="M290 423.75C290 401.27 295.54 378.97 306.03 359.26C309.27 353.17 306.96 345.6 300.86 342.36C294.77 339.11 287.2 341.42 283.96 347.52C271.56 370.83 265 397.19 265 423.75C265 454.95 273.87 485.26 290.65 511.41C306.98 536.85 329.98 557.21 357.18 570.28C358.92 571.12 360.77 571.52 362.58 571.52C367.24 571.52 371.71 568.91 373.86 564.43C376.85 558.21 374.23 550.74 368.01 547.75C320.62 524.97 290 476.3 290 423.75Z" id="bxwviku7"></path><path d="M408.03 561.25C401.09 561.24 395.5 566.78 395.47 573.69C395.44 580.59 401.01 586.22 407.91 586.25C408 586.25 408.67 586.25 408.75 586.25C415.65 586.25 421.25 580.65 421.25 573.75C421.25 566.85 415.65 561.25 408.75 561.25C408.61 561.25 408.1 561.25 408.03 561.25Z" id="c2srNjGlj"></path><path d="M368.46 3.94L370.77 4.18L373.06 4.5L375.32 4.92L377.55 5.42L379.74 6.01L381.9 6.69L384.03 7.44L386.11 8.28L388.15 9.19L390.15 10.18L392.11 11.24L394.01 12.38L395.88 13.58L397.69 14.86L399.44 16.2L401.15 17.61L402.8 19.08L404.39 20.61L405.92 22.2L407.39 23.85L408.8 25.56L410.14 27.31L411.42 29.12L412.62 30.98L413.76 32.89L414.82 34.85L415.81 36.85L416.72 38.89L417.56 40.97L418.31 43.1L418.99 45.25L419.58 47.45L420.08 49.68L420.5 51.94L420.82 54.22L421.06 56.54L421.2 58.88L421.25 61.25L421.24 62.15L421.22 63.05L421.19 63.95L421.14 64.84L421.08 65.73L421 66.61L420.91 67.49L420.81 68.37L420.69 69.24L420.57 70.11L420.42 70.98L420.27 71.84L420.1 72.69L419.92 73.54L419.73 74.39L419.53 75.23L419.31 76.07L419.08 76.9L418.84 77.73L418.59 78.55L418.32 79.37L418.04 80.18L417.75 80.98L417.45 81.78L417.14 82.58L416.82 83.37L416.48 84.15L416.14 84.93L415.78 85.7L415.41 86.46L415.03 87.22L414.64 87.97L414.24 88.72L413.83 89.46L413.41 90.19L412.98 90.92L412.54 91.64L412.08 92.35L411.62 93.05L411.15 93.75L511.25 93.75L513.62 93.8L515.96 93.94L518.27 94.18L520.56 94.5L522.82 94.92L525.05 95.42L527.24 96.01L529.4 96.69L531.53 97.44L533.61 98.28L535.65 99.19L537.65 100.18L539.61 101.24L541.51 102.38L543.38 103.58L545.19 104.86L546.94 106.2L548.65 107.61L550.3 109.08L551.89 110.61L553.42 112.2L554.89 113.85L556.3 115.55L557.64 117.31L558.92 119.12L560.12 120.98L561.26 122.89L562.32 124.85L563.31 126.85L564.22 128.89L565.06 130.97L565.81 133.1L566.49 135.25L567.07 137.45L567.58 139.68L567.99 141.94L568.32 144.22L568.56 146.54L568.7 148.88L568.75 151.25L568.7 153.62L568.56 155.96L568.32 158.28L567.99 160.56L567.58 162.82L567.07 165.05L566.49 167.25L565.81 169.4L565.06 171.53L564.22 173.61L563.31 175.65L562.32 177.65L561.26 179.61L560.12 181.52L558.92 183.38L557.64 185.19L556.3 186.94L554.89 188.65L553.42 190.3L551.89 191.89L550.3 193.42L548.65 194.89L546.94 196.3L545.19 197.64L543.38 198.92L541.51 200.12L539.61 201.26L537.65 202.32L535.65 203.31L533.61 204.22L531.53 205.06L529.4 205.81L527.24 206.49L525.05 207.08L522.82 207.58L520.56 208L518.27 208.32L515.96 208.56L513.62 208.7L511.25 208.75L478.71 208.75L478.87 208.99L479.03 209.23L479.19 209.47L479.35 209.71L479.51 209.95L479.66 210.19L479.82 210.44L479.97 210.68L480.12 210.93L480.28 211.17L480.43 211.42L480.58 211.67L480.72 211.92L480.87 212.17L481.02 212.42L481.16 212.67L481.3 212.92L481.45 213.17L481.59 213.43L481.73 213.68L481.86 213.94L482 214.2L482.14 214.45L482.27 214.71L482.41 214.97L482.54 215.23L482.67 215.49L482.8 215.75L482.93 216.02L483.06 216.28L483.18 216.54L483.31 216.81L483.43 217.08L483.55 217.34L483.67 217.61L483.79 217.88L483.91 218.15L484.03 218.42L484.15 218.69L484.26 218.96L490.94 220.93L497.53 223.12L504.03 225.51L510.42 228.11L516.71 230.91L522.89 233.9L528.95 237.08L534.9 240.45L540.73 244.01L546.44 247.75L552.01 251.66L557.46 255.74L562.77 259.99L567.93 264.41L572.96 268.98L577.83 273.71L582.55 278.6L587.12 283.63L591.53 288.8L595.77 294.12L599.84 299.57L603.74 305.16L607.47 310.87L611.01 316.7L614.37 322.66L617.55 328.73L620.53 334.92L623.31 341.21L625.9 347.61L628.28 354.11L630.45 360.71L632.41 367.39L634.16 374.17L635.69 381.03L636.99 387.97L638.06 394.99L638.9 402.08L639.51 409.24L639.88 416.47L640 423.75L639.82 432.5L639.29 441.15L638.42 449.71L637.21 458.17L635.68 466.52L633.81 474.76L631.64 482.87L629.15 490.84L626.36 498.69L623.27 506.39L619.9 513.93L616.25 521.32L612.32 528.55L608.12 535.6L603.66 542.48L598.95 549.17L593.99 555.67L588.78 561.97L583.35 568.06L577.69 573.94L571.81 579.6L565.72 585.03L559.42 590.24L552.92 595.2L546.23 599.91L539.35 604.37L532.3 608.57L525.07 612.5L517.68 616.15L510.14 619.52L502.44 622.61L494.59 625.4L486.62 627.89L478.51 630.06L470.27 631.93L461.92 633.46L453.46 634.67L444.9 635.54L436.25 636.07L427.5 636.25L422.92 636.2L418.37 636.06L413.84 635.82L409.34 635.48L404.86 635.05L400.41 634.53L395.99 633.92L391.6 633.21L387.23 632.42L382.9 631.54L378.6 630.57L374.34 629.51L370.1 628.37L365.91 627.15L361.75 625.84L357.62 624.44L353.54 622.97L349.49 621.41L345.48 619.78L341.52 618.07L337.6 616.27L333.71 614.4L329.88 612.46L326.09 610.44L322.34 608.35L318.64 606.18L314.99 603.94L311.38 601.63L307.83 599.26L304.33 596.81L300.88 594.29L297.48 591.71L294.14 589.06L290.85 586.35L287.61 583.57L284.44 580.73L281.32 577.82L278.25 574.86L275.25 571.83L272.31 568.75L125 568.75L122.63 568.7L120.29 568.56L117.97 568.32L115.69 567.99L113.43 567.58L111.2 567.07L109 566.49L106.85 565.81L104.72 565.06L102.64 564.22L100.6 563.31L98.6 562.32L96.64 561.26L94.73 560.12L92.87 558.92L91.06 557.64L89.3 556.3L87.6 554.89L85.95 553.42L84.36 551.89L82.83 550.3L81.36 548.65L79.95 546.94L78.61 545.19L77.33 543.38L76.13 541.51L74.99 539.61L73.93 537.65L72.94 535.65L72.03 533.61L71.19 531.53L70.44 529.4L69.76 527.24L69.17 525.05L68.67 522.82L68.25 520.56L67.93 518.27L67.69 515.96L67.55 513.62L67.5 511.25L67.52 509.89L67.56 508.53L67.64 507.19L67.75 505.85L67.89 504.52L68.06 503.2L68.26 501.89L68.49 500.59L68.75 499.3L69.04 498.02L69.35 496.75L69.7 495.49L70.07 494.25L70.47 493.01L70.89 491.79L71.35 490.58L71.82 489.38L72.33 488.2L72.86 487.03L73.42 485.87L74 484.73L74.6 483.61L75.23 482.5L75.88 481.4L76.56 480.32L77.26 479.26L77.98 478.21L78.72 477.18L79.49 476.16L80.28 475.17L81.09 474.19L81.92 473.23L82.77 472.29L83.64 471.37L84.53 470.46L85.44 469.58L86.37 468.72L87.32 467.87L88.28 467.05L89.27 466.25L88.28 465.45L87.32 464.63L86.37 463.78L85.44 462.92L84.53 462.04L83.64 461.13L82.77 460.21L81.92 459.27L81.09 458.31L80.28 457.33L79.49 456.33L78.72 455.32L77.98 454.29L77.26 453.24L76.56 452.18L75.88 451.1L75.23 450L74.6 448.89L74 447.77L73.42 446.62L72.86 445.47L72.33 444.3L71.82 443.12L71.35 441.92L70.89 440.71L70.47 439.49L70.07 438.25L69.7 437.01L69.35 435.75L69.04 434.48L68.75 433.2L68.49 431.91L68.26 430.61L68.06 429.3L67.89 427.98L67.75 426.65L67.64 425.31L67.56 423.97L67.52 422.61L67.5 421.25L67.52 419.89L67.56 418.53L67.64 417.19L67.75 415.85L67.89 414.52L68.06 413.2L68.26 411.89L68.49 410.59L68.75 409.3L69.04 408.02L69.35 406.75L69.7 405.49L70.07 404.25L70.47 403.01L70.89 401.79L71.35 400.58L71.82 399.38L72.33 398.2L72.86 397.03L73.42 395.87L74 394.73L74.6 393.61L75.23 392.5L75.88 391.4L76.56 390.32L77.26 389.26L77.98 388.21L78.72 387.18L79.49 386.16L80.28 385.17L81.09 384.19L81.92 383.23L82.77 382.29L83.64 381.37L84.53 380.46L85.44 379.58L86.37 378.72L87.32 377.87L88.28 377.05L89.27 376.25L88.28 375.45L87.32 374.63L86.37 373.78L85.44 372.92L84.53 372.04L83.64 371.13L82.77 370.21L81.92 369.27L81.09 368.31L80.28 367.33L79.49 366.34L78.72 365.32L77.98 364.29L77.26 363.24L76.56 362.18L75.88 361.1L75.23 360L74.6 358.89L74 357.77L73.42 356.62L72.86 355.47L72.33 354.3L71.82 353.12L71.35 351.92L70.89 350.71L70.47 349.49L70.07 348.25L69.7 347.01L69.35 345.75L69.04 344.48L68.75 343.2L68.49 341.91L68.26 340.61L68.06 339.3L67.89 337.98L67.75 336.65L67.64 335.31L67.56 333.97L67.52 332.61L67.5 331.25L67.52 329.89L67.56 328.53L67.64 327.19L67.75 325.85L67.89 324.52L68.06 323.2L68.26 321.89L68.49 320.59L68.75 319.3L69.04 318.02L69.35 316.75L69.7 315.49L70.07 314.25L70.47 313.01L70.89 311.79L71.35 310.58L71.82 309.38L72.33 308.2L72.86 307.03L73.42 305.87L74 304.73L74.6 303.61L75.23 302.5L75.88 301.4L76.56 300.32L77.26 299.26L77.98 298.21L78.72 297.18L79.49 296.16L80.28 295.17L81.09 294.19L81.92 293.23L82.77 292.29L83.64 291.37L84.53 290.46L85.44 289.58L86.37 288.72L87.32 287.87L88.28 287.05L89.27 286.25L88.28 285.45L87.32 284.63L86.37 283.78L85.44 282.92L84.53 282.04L83.64 281.13L82.77 280.21L81.92 279.27L81.09 278.31L80.28 277.33L79.49 276.34L78.72 275.32L77.98 274.29L77.26 273.24L76.56 272.18L75.88 271.1L75.23 270L74.6 268.89L74 267.77L73.42 266.62L72.86 265.47L72.33 264.3L71.82 263.12L71.35 261.92L70.89 260.71L70.47 259.49L70.07 258.25L69.7 257.01L69.35 255.75L69.04 254.48L68.75 253.2L68.49 251.91L68.26 250.61L68.06 249.3L67.89 247.98L67.75 246.65L67.64 245.31L67.56 243.97L67.52 242.61L67.5 241.25L67.55 238.88L67.69 236.54L67.93 234.22L68.25 231.94L68.67 229.68L69.17 227.45L69.76 225.25L70.44 223.09L71.19 220.97L72.03 218.89L72.94 216.85L73.93 214.85L74.99 212.89L76.13 210.98L77.33 209.12L78.61 207.31L79.95 205.55L81.36 203.85L82.83 202.2L84.36 200.61L85.95 199.08L87.6 197.61L89.3 196.2L91.06 194.86L92.87 193.58L94.73 192.38L96.64 191.24L98.6 190.18L100.6 189.19L102.64 188.28L104.72 187.44L106.85 186.69L109 186.01L111.2 185.42L113.43 184.92L115.69 184.5L117.97 184.18L120.29 183.94L122.63 183.8L125 183.75L157.6 183.75L157.13 183.05L156.66 182.35L156.21 181.64L155.77 180.92L155.34 180.19L154.92 179.46L154.51 178.72L154.11 177.97L153.72 177.22L153.34 176.46L152.97 175.7L152.61 174.93L152.27 174.15L151.93 173.37L151.61 172.58L151.29 171.78L150.99 170.98L150.71 170.18L150.43 169.37L150.16 168.55L149.91 167.73L149.67 166.9L149.44 166.07L149.22 165.23L149.02 164.39L148.82 163.54L148.65 162.69L148.48 161.84L148.32 160.98L148.18 160.11L148.05 159.24L147.94 158.37L147.84 157.49L147.75 156.61L147.67 155.73L147.61 154.84L147.56 153.95L147.53 153.05L147.51 152.15L147.5 151.25L147.51 150.35L147.53 149.45L147.56 148.55L147.61 147.66L147.67 146.77L147.75 145.89L147.84 145.01L147.94 144.13L148.05 143.26L148.18 142.39L148.32 141.52L148.48 140.66L148.65 139.81L148.83 138.96L149.02 138.11L149.22 137.27L149.44 136.43L149.67 135.6L149.91 134.77L150.16 133.95L150.43 133.13L150.71 132.32L150.99 131.52L151.3 130.72L151.61 129.92L151.93 129.13L152.27 128.35L152.61 127.57L152.97 126.8L153.34 126.04L153.72 125.28L154.11 124.53L154.51 123.78L154.92 123.04L155.34 122.31L155.77 121.58L156.21 120.86L156.66 120.15L157.13 119.45L157.6 118.75L57.5 118.75L55.13 118.7L52.79 118.56L50.47 118.32L48.19 118L45.93 117.58L43.7 117.08L41.5 116.49L39.35 115.81L37.22 115.06L35.14 114.22L33.1 113.31L31.1 112.32L29.14 111.26L27.23 110.12L25.37 108.92L23.56 107.64L21.81 106.3L20.1 104.89L18.45 103.42L16.86 101.89L15.33 100.3L13.86 98.65L12.45 96.94L11.11 95.19L9.83 93.38L8.63 91.52L7.49 89.61L6.43 87.65L5.44 85.65L4.53 83.61L3.69 81.53L2.94 79.4L2.26 77.25L1.67 75.05L1.17 72.82L0.75 70.56L0.43 68.28L0.19 65.96L0.05 63.62L0 61.25L0.05 58.88L0.19 56.54L0.43 54.22L0.75 51.94L1.17 49.68L1.67 47.45L2.26 45.25L2.94 43.1L3.69 40.97L4.53 38.89L5.44 36.85L6.43 34.85L7.49 32.89L8.63 30.98L9.83 29.12L11.11 27.31L12.45 25.56L13.86 23.85L15.33 22.2L16.86 20.61L18.45 19.08L20.1 17.61L21.81 16.2L23.56 14.86L25.37 13.58L27.23 12.38L29.14 11.24L31.1 10.18L33.1 9.19L35.14 8.28L37.22 7.44L39.35 6.69L41.5 6.01L43.7 5.42L45.93 4.92L48.19 4.5L50.47 4.18L52.79 3.94L55.13 3.8L57.5 3.75L363.75 3.75L366.12 3.8L368.46 3.94ZM412.14 236.87L404.59 237.64L397.13 238.71L389.76 240.07L382.5 241.71L375.34 243.63L368.3 245.83L361.38 248.29L354.59 251.01L347.93 253.99L341.41 257.21L335.03 260.68L328.81 264.38L322.74 268.32L316.84 272.48L311.1 276.85L305.55 281.44L300.17 286.24L294.98 291.23L289.99 296.42L285.19 301.8L280.6 307.35L276.23 313.09L272.07 318.99L268.13 325.06L264.43 331.28L260.96 337.66L257.74 344.18L254.76 350.84L252.04 357.63L249.58 364.55L247.38 371.59L245.46 378.75L243.82 386.01L242.46 393.38L241.39 400.84L240.62 408.39L240.16 416.03L240 423.75L240.16 431.47L240.62 439.11L241.39 446.66L242.46 454.12L243.82 461.49L245.46 468.75L247.38 475.91L249.58 482.95L252.04 489.87L254.76 496.66L257.74 503.32L260.96 509.84L264.43 516.22L268.13 522.44L272.07 528.51L276.23 534.41L280.6 540.15L285.19 545.71L289.99 551.08L294.98 556.27L300.17 561.27L305.55 566.06L311.1 570.65L316.84 575.03L322.74 579.18L328.81 583.12L335.03 586.82L341.41 590.29L347.93 593.52L354.59 596.49L361.38 599.21L368.3 601.68L375.34 603.87L382.5 605.79L389.76 607.43L397.13 608.79L404.59 609.86L412.14 610.63L419.78 611.09L427.5 611.25L435.22 611.09L442.86 610.63L450.41 609.86L457.87 608.79L465.24 607.43L472.5 605.79L479.66 603.87L486.7 601.68L493.62 599.21L500.41 596.49L507.07 593.52L513.59 590.29L519.97 586.82L526.19 583.12L532.26 579.18L538.16 575.03L543.9 570.65L549.46 566.06L554.83 561.27L560.02 556.27L565.02 551.08L569.81 545.71L574.4 540.15L578.78 534.41L582.93 528.51L586.87 522.44L590.57 516.22L594.04 509.84L597.27 503.32L600.24 496.66L602.96 489.87L605.43 482.95L607.62 475.91L609.54 468.75L611.18 461.49L612.54 454.12L613.61 446.66L614.38 439.11L614.84 431.47L615 423.75L614.84 416.03L614.38 408.39L613.61 400.84L612.54 393.38L611.18 386.01L609.54 378.75L607.62 371.59L605.43 364.55L602.96 357.63L600.24 350.84L597.27 344.18L594.04 337.66L590.57 331.28L586.87 325.06L582.93 318.99L578.78 313.09L574.4 307.35L569.81 301.8L565.02 296.42L560.02 291.23L554.83 286.24L549.46 281.44L543.9 276.85L538.16 272.48L532.26 268.32L526.19 264.38L519.97 260.68L513.59 257.21L507.07 253.99L500.41 251.01L493.62 248.29L486.7 245.83L479.66 243.63L472.5 241.71L465.24 240.07L457.87 238.71L450.41 237.64L442.86 236.87L435.22 236.41L427.5 236.25L419.78 236.41L412.14 236.87ZM123.66 478.78L122.34 478.86L121.03 478.99L119.73 479.18L118.46 479.41L117.2 479.7L115.96 480.03L114.74 480.41L113.54 480.84L112.36 481.31L111.21 481.82L110.08 482.38L108.97 482.98L107.89 483.62L106.84 484.31L105.82 485.03L104.82 485.79L103.86 486.58L102.93 487.41L102.03 488.28L101.16 489.18L100.33 490.11L99.54 491.07L98.78 492.07L98.06 493.09L97.38 494.14L96.73 495.22L96.13 496.33L95.57 497.46L95.06 498.61L94.59 499.79L94.16 500.99L93.78 502.21L93.45 503.45L93.16 504.71L92.93 505.98L92.74 507.28L92.61 508.59L92.53 509.91L92.5 511.25L92.52 512.14L92.58 513.03L92.68 513.92L92.82 514.8L93.01 515.68L93.23 516.55L93.5 517.42L93.8 518.28L94.15 519.14L94.53 520L94.96 520.85L95.42 521.7L95.93 522.54L96.48 523.38L97.07 524.22L97.7 525.05L98.37 525.88L99.08 526.7L99.83 527.52L100.62 528.33L101.46 529.15L102.33 529.95L103.25 530.75L104.2 531.55L105.2 532.34L106.23 533.13L107.31 533.92L108.42 534.7L109.58 535.48L110.78 536.25L112.02 537.02L113.3 537.78L114.62 538.54L115.98 539.3L117.38 540.05L118.82 540.8L120.31 541.54L121.83 542.28L123.4 543.02L125 543.75L252.22 543.75L251.22 542.28L250.23 540.8L249.25 539.31L248.29 537.81L247.34 536.3L246.39 534.79L245.47 533.26L244.55 531.73L243.65 530.19L242.76 528.64L241.88 527.09L241.01 525.52L240.16 523.95L239.32 522.37L238.49 520.78L237.68 519.19L236.88 517.59L236.09 515.97L235.32 514.36L234.55 512.73L233.81 511.1L233.07 509.46L232.35 507.81L231.64 506.15L230.95 504.49L230.27 502.82L229.6 501.14L228.95 499.46L228.31 497.77L227.69 496.07L227.08 494.37L226.48 492.66L225.9 490.94L225.33 489.22L224.78 487.49L224.24 485.76L223.72 484.01L223.21 482.26L222.71 480.51L222.23 478.75L125 478.75L123.66 478.78ZM123.66 388.78L122.34 388.86L121.03 388.99L119.73 389.18L118.46 389.41L117.2 389.7L115.96 390.03L114.74 390.41L113.54 390.84L112.36 391.31L111.21 391.82L110.08 392.38L108.97 392.98L107.89 393.63L106.84 394.31L105.82 395.03L104.82 395.79L103.86 396.58L102.93 397.41L102.03 398.28L101.16 399.18L100.33 400.11L99.54 401.07L98.78 402.07L98.06 403.09L97.38 404.14L96.73 405.22L96.13 406.33L95.57 407.46L95.06 408.61L94.59 409.79L94.16 410.99L93.78 412.21L93.45 413.45L93.16 414.71L92.93 415.98L92.74 417.28L92.61 418.59L92.53 419.91L92.5 421.25L92.53 422.59L92.61 423.91L92.74 425.22L92.93 426.51L93.16 427.79L93.45 429.05L93.78 430.29L94.16 431.51L94.59 432.71L95.06 433.89L95.57 435.04L96.13 436.17L96.73 437.28L97.38 438.36L98.06 439.41L98.78 440.43L99.54 441.42L100.33 442.39L101.16 443.32L102.03 444.22L102.93 445.09L103.86 445.92L104.82 446.71L105.82 447.47L106.84 448.19L107.89 448.87L108.97 449.52L110.08 450.12L111.21 450.68L112.36 451.19L113.54 451.66L114.74 452.09L115.96 452.47L117.2 452.8L118.46 453.09L119.73 453.32L121.03 453.51L122.34 453.64L123.66 453.72L125 453.75L217.13 453.75L217.03 453.01L216.92 452.28L216.83 451.54L216.73 450.8L216.64 450.06L216.55 449.32L216.46 448.58L216.37 447.84L216.29 447.1L216.21 446.36L216.13 445.61L216.06 444.87L215.98 444.13L215.91 443.38L215.84 442.63L215.78 441.89L215.72 441.14L215.66 440.39L215.6 439.64L215.54 438.89L215.49 438.14L215.44 437.39L215.39 436.64L215.35 435.89L215.31 435.13L215.27 434.38L215.23 433.62L215.2 432.87L215.17 432.11L215.14 431.35L215.11 430.6L215.09 429.84L215.07 429.08L215.05 428.32L215.04 427.56L215.02 426.8L215.01 426.04L215.01 425.28L215 424.51L215 423.75L215 422.86L215.01 421.96L215.02 421.07L215.03 420.18L215.05 419.29L215.07 418.4L215.09 417.51L215.12 416.63L215.15 415.74L215.19 414.85L215.23 413.97L215.27 413.09L215.31 412.2L215.36 411.32L215.42 410.44L215.48 409.56L215.54 408.68L215.6 407.8L215.67 406.93L215.74 406.05L215.81 405.18L215.89 404.3L215.97 403.43L216.06 402.56L216.15 401.69L216.24 400.82L216.34 399.95L216.44 399.08L216.54 398.21L216.65 397.35L216.76 396.48L216.87 395.62L216.99 394.76L217.11 393.9L217.23 393.03L217.36 392.18L217.49 391.32L217.62 390.46L217.76 389.6L217.9 388.75L125 388.75L123.66 388.78ZM123.66 298.78L122.34 298.86L121.03 298.99L119.73 299.18L118.46 299.41L117.2 299.7L115.96 300.03L114.74 300.41L113.54 300.84L112.36 301.31L111.21 301.82L110.08 302.38L108.97 302.98L107.89 303.63L106.84 304.31L105.82 305.03L104.82 305.79L103.86 306.58L102.93 307.41L102.03 308.28L101.16 309.18L100.33 310.11L99.54 311.07L98.78 312.07L98.06 313.09L97.38 314.14L96.73 315.22L96.13 316.33L95.57 317.46L95.06 318.61L94.59 319.79L94.16 320.99L93.78 322.21L93.45 323.45L93.16 324.71L92.93 325.98L92.74 327.28L92.61 328.59L92.53 329.91L92.5 331.25L92.53 332.59L92.61 333.91L92.74 335.22L92.93 336.51L93.16 337.79L93.45 339.05L93.78 340.29L94.16 341.51L94.59 342.71L95.06 343.89L95.57 345.04L96.13 346.17L96.73 347.28L97.38 348.36L98.06 349.41L98.78 350.43L99.54 351.43L100.33 352.39L101.16 353.32L102.03 354.22L102.93 355.09L103.86 355.92L104.82 356.71L105.82 357.47L106.84 358.19L107.89 358.87L108.97 359.52L110.08 360.12L111.21 360.68L112.36 361.19L113.54 361.66L114.74 362.09L115.96 362.47L117.2 362.8L118.46 363.09L119.73 363.32L121.03 363.51L122.34 363.64L123.66 363.72L125 363.75L223.64 363.75L224.17 361.98L224.71 360.22L225.27 358.46L225.85 356.71L226.44 354.97L227.04 353.23L227.66 351.5L228.29 349.78L228.94 348.07L229.6 346.36L230.28 344.66L230.97 342.96L231.67 341.28L232.39 339.6L233.13 337.92L233.87 336.26L234.63 334.6L235.41 332.95L236.19 331.31L237 329.68L237.81 328.05L238.64 326.43L239.48 324.82L240.34 323.22L241.2 321.63L242.09 320.04L242.98 318.47L243.89 316.9L244.81 315.34L245.74 313.78L246.69 312.24L247.65 310.71L248.62 309.18L249.6 307.66L250.6 306.15L251.61 304.66L252.63 303.17L253.66 301.68L254.71 300.21L255.77 298.75L125 298.75L123.66 298.78ZM123.66 208.78L122.34 208.86L121.03 208.99L119.74 209.18L118.46 209.41L117.2 209.7L115.96 210.03L114.74 210.41L113.54 210.84L112.36 211.31L111.21 211.82L110.08 212.38L108.97 212.98L107.89 213.63L106.84 214.31L105.82 215.03L104.82 215.79L103.86 216.58L102.93 217.41L102.03 218.28L101.16 219.18L100.33 220.11L99.54 221.07L98.78 222.07L98.06 223.09L97.38 224.14L96.73 225.22L96.13 226.33L95.57 227.46L95.06 228.61L94.59 229.79L94.16 230.99L93.78 232.21L93.45 233.45L93.16 234.71L92.93 235.98L92.74 237.28L92.61 238.59L92.53 239.91L92.5 241.25L92.53 242.59L92.61 243.91L92.74 245.22L92.93 246.51L93.16 247.79L93.45 249.05L93.78 250.29L94.16 251.51L94.59 252.71L95.06 253.89L95.57 255.04L96.13 256.17L96.73 257.28L97.38 258.36L98.06 259.41L98.78 260.43L99.54 261.42L100.33 262.39L101.16 263.32L102.03 264.22L102.93 265.09L103.86 265.92L104.82 266.71L105.82 267.47L106.84 268.19L107.89 268.87L108.97 269.52L110.08 270.12L111.21 270.68L112.36 271.19L113.54 271.66L114.74 272.09L115.96 272.47L117.2 272.8L118.46 273.09L119.74 273.32L121.03 273.51L122.34 273.64L123.66 273.72L125 273.75L277.13 273.75L280.04 270.88L283.01 268.07L286.03 265.32L289.11 262.62L292.23 259.99L295.41 257.41L298.64 254.89L301.91 252.43L305.24 250.04L308.61 247.7L312.03 245.44L315.49 243.23L319 241.09L322.55 239.02L326.15 237.02L329.79 235.08L333.47 233.21L337.19 231.41L340.94 229.69L344.74 228.03L348.58 226.45L352.45 224.94L356.36 223.5L360.3 222.14L364.28 220.85L368.3 219.64L372.34 218.51L376.42 217.46L380.52 216.48L384.66 215.59L388.83 214.78L393.02 214.05L397.25 213.4L401.5 212.83L405.77 212.35L410.07 211.96L414.39 211.65L418.74 211.43L423.11 211.3L427.5 211.25L427.95 211.25L428.41 211.25L428.86 211.26L429.31 211.26L429.76 211.26L430.21 211.27L430.67 211.28L431.12 211.28L431.57 211.29L432.02 211.3L432.47 211.31L432.92 211.32L433.37 211.33L433.82 211.35L434.27 211.36L434.72 211.38L435.17 211.39L435.62 211.41L436.06 211.43L436.51 211.45L436.96 211.47L437.41 211.49L437.86 211.51L438.3 211.53L438.75 211.55L439.2 211.58L439.65 211.6L440.09 211.63L440.54 211.66L440.98 211.69L441.43 211.71L441.88 211.74L442.32 211.78L442.77 211.81L443.21 211.84L443.65 211.87L444.1 211.91L444.54 211.94L444.99 211.98L445.43 212.01L445.11 211.86L444.78 211.71L444.45 211.56L444.12 211.41L443.79 211.27L443.45 211.14L443.12 211L442.78 210.87L442.44 210.74L442.1 210.62L441.76 210.5L441.41 210.39L441.07 210.27L440.72 210.17L440.37 210.06L440.02 209.96L439.67 209.86L439.32 209.77L438.96 209.68L438.61 209.6L438.25 209.52L437.89 209.44L437.53 209.36L437.17 209.3L436.81 209.23L436.45 209.17L436.08 209.11L435.72 209.06L435.35 209.01L434.98 208.97L434.61 208.92L434.24 208.89L433.87 208.86L433.5 208.83L433.13 208.8L432.75 208.78L432.38 208.77L432 208.76L431.63 208.75L431.25 208.75L125 208.75L123.66 208.78ZM203.66 118.78L202.34 118.86L201.03 118.99L199.73 119.18L198.46 119.41L197.2 119.7L195.96 120.03L194.74 120.41L193.54 120.84L192.36 121.31L191.21 121.82L190.08 122.38L188.97 122.98L187.89 123.63L186.84 124.31L185.82 125.03L184.82 125.79L183.86 126.58L182.93 127.41L182.03 128.28L181.16 129.18L180.33 130.11L179.54 131.07L178.78 132.07L178.06 133.09L177.38 134.14L176.73 135.22L176.13 136.33L175.57 137.46L175.06 138.61L174.59 139.79L174.16 140.99L173.78 142.21L173.45 143.45L173.16 144.71L172.93 145.99L172.74 147.28L172.61 148.59L172.53 149.91L172.5 151.25L172.53 152.59L172.61 153.91L172.74 155.22L172.93 156.51L173.16 157.79L173.45 159.05L173.78 160.29L174.16 161.51L174.59 162.71L175.06 163.89L175.57 165.04L176.13 166.17L176.73 167.28L177.38 168.36L178.06 169.41L178.78 170.43L179.54 171.42L180.33 172.39L181.16 173.32L182.03 174.22L182.93 175.09L183.86 175.92L184.82 176.71L185.82 177.47L186.84 178.19L187.89 178.87L188.97 179.52L190.08 180.12L191.21 180.68L192.36 181.19L193.54 181.66L194.74 182.09L195.96 182.47L197.2 182.8L198.46 183.09L199.73 183.32L201.03 183.51L202.34 183.64L203.66 183.72L205 183.75L511.25 183.75L512.59 183.72L513.91 183.64L515.22 183.51L516.51 183.32L517.79 183.09L519.05 182.8L520.29 182.47L521.51 182.09L522.71 181.66L523.89 181.19L525.04 180.68L526.17 180.12L527.28 179.52L528.36 178.87L529.41 178.19L530.43 177.47L531.42 176.71L532.39 175.92L533.32 175.09L534.22 174.22L535.09 173.32L535.92 172.39L536.71 171.42L537.47 170.43L538.19 169.41L538.87 168.36L539.52 167.28L540.12 166.17L540.68 165.04L541.19 163.89L541.66 162.71L542.09 161.51L542.47 160.29L542.8 159.05L543.09 157.79L543.32 156.51L543.51 155.22L543.64 153.91L543.72 152.59L543.75 151.25L543.73 150.36L543.67 149.47L543.57 148.58L543.42 147.7L543.24 146.82L543.02 145.95L542.75 145.08L542.45 144.22L542.1 143.35L541.72 142.5L541.29 141.65L540.82 140.8L540.32 139.95L539.77 139.11L539.18 138.28L538.55 137.45L537.88 136.62L537.17 135.8L536.42 134.98L535.62 134.16L534.79 133.35L533.92 132.55L533 131.75L532.05 130.95L531.05 130.15L530.02 129.36L528.94 128.58L527.82 127.8L526.67 127.02L525.47 126.25L524.23 125.48L522.95 124.72L521.63 123.96L520.27 123.2L518.87 122.45L517.42 121.7L515.94 120.96L514.42 120.22L512.85 119.48L511.25 118.75L205 118.75L203.66 118.78ZM56.16 28.78L54.84 28.86L53.53 28.99L52.24 29.18L50.96 29.41L49.7 29.7L48.46 30.03L47.24 30.41L46.04 30.84L44.86 31.31L43.71 31.82L42.58 32.38L41.47 32.98L40.39 33.63L39.34 34.31L38.32 35.03L37.32 35.79L36.36 36.58L35.43 37.41L34.53 38.28L33.66 39.18L32.83 40.11L32.04 41.07L31.28 42.07L30.56 43.09L29.88 44.14L29.23 45.22L28.63 46.33L28.07 47.46L27.56 48.61L27.09 49.79L26.66 50.99L26.28 52.21L25.95 53.45L25.66 54.71L25.43 55.99L25.24 57.28L25.11 58.59L25.03 59.91L25 61.25L25.02 62.14L25.08 63.03L25.18 63.92L25.32 64.8L25.51 65.68L25.73 66.55L26 67.42L26.3 68.28L26.65 69.14L27.03 70L27.46 70.85L27.92 71.7L28.43 72.55L28.98 73.38L29.57 74.22L30.2 75.05L30.87 75.88L31.58 76.7L32.33 77.52L33.12 78.33L33.96 79.15L34.83 79.95L35.75 80.75L36.7 81.55L37.7 82.35L38.73 83.13L39.81 83.92L40.92 84.7L42.08 85.48L43.28 86.25L44.52 87.02L45.8 87.78L47.12 88.54L48.48 89.3L49.88 90.05L51.32 90.8L52.81 91.54L54.33 92.28L55.9 93.02L57.5 93.75L363.75 93.75L365.09 93.72L366.41 93.64L367.72 93.51L369.01 93.32L370.29 93.09L371.55 92.8L372.79 92.47L374.01 92.09L375.21 91.66L376.39 91.19L377.54 90.68L378.67 90.12L379.78 89.52L380.86 88.87L381.91 88.19L382.93 87.47L383.93 86.71L384.89 85.92L385.82 85.09L386.72 84.22L387.59 83.32L388.42 82.39L389.21 81.43L389.97 80.43L390.69 79.41L391.37 78.36L392.02 77.28L392.62 76.17L393.18 75.04L393.69 73.89L394.16 72.71L394.59 71.51L394.97 70.29L395.3 69.05L395.59 67.79L395.82 66.51L396.01 65.22L396.14 63.91L396.22 62.59L396.25 61.25L396.22 59.91L396.14 58.59L396.01 57.28L395.82 55.99L395.59 54.71L395.3 53.45L394.97 52.21L394.59 50.99L394.16 49.79L393.69 48.61L393.18 47.46L392.62 46.33L392.02 45.22L391.37 44.14L390.69 43.09L389.97 42.07L389.21 41.07L388.42 40.11L387.59 39.18L386.72 38.28L385.82 37.41L384.89 36.58L383.93 35.79L382.93 35.03L381.91 34.31L380.86 33.63L379.78 32.98L378.67 32.38L377.54 31.82L376.39 31.31L375.21 30.84L374.01 30.41L372.79 30.03L371.55 29.7L370.29 29.41L369.01 29.18L367.72 28.99L366.41 28.86L365.09 28.78L363.75 28.75L57.5 28.75L56.16 28.78Z" id="eELOjESlB"></path></defs><g><g><g><use xlink:href="#em5fAR9MK" opacity="1" fill="#555555" fill-opacity="1"></use><g><use xlink:href="#em5fAR9MK" opacity="1" fill-opacity="0" stroke="#000000" stroke-width="1" stroke-opacity="0"></use></g></g><g><use xlink:href="#b3jXYFgwpM" opacity="1" fill="#555555" fill-opacity="1"></use><g><use xlink:href="#b3jXYFgwpM" opacity="1" fill-opacity="0" stroke="#000000" stroke-width="1" stroke-opacity="0"></use></g></g><g><use xlink:href="#a2ZNSoVTeV" opacity="1" fill="#555555" fill-opacity="1"></use><g><use xlink:href="#a2ZNSoVTeV" opacity="1" fill-opacity="0" stroke="#000000" stroke-width="1" stroke-opacity="0"></use></g></g><g><use xlink:href="#bxwviku7" opacity="1" fill="#555555" fill-opacity="1"></use><g><use xlink:href="#bxwviku7" opacity="1" fill-opacity="0" stroke="#000000" stroke-width="1" stroke-opacity="0"></use></g></g><g><use xlink:href="#c2srNjGlj" opacity="1" fill="#555555" fill-opacity="1"></use><g><use xlink:href="#c2srNjGlj" opacity="1" fill-opacity="0" stroke="#000000" stroke-width="1" stroke-opacity="0"></use></g></g><g><use xlink:href="#eELOjESlB" opacity="1" fill="#555555" fill-opacity="1"></use><g><use xlink:href="#eELOjESlB" opacity="1" fill-opacity="0" stroke="#000000" stroke-width="1" stroke-opacity="0"></use></g></g></g></g></svg>