<?xml version="1.0" encoding="utf-8"?>
<svg id="master-artboard" viewBox="0 0 1400 980" version="1.1" xmlns="http://www.w3.org/2000/svg" x="0px" y="0px" style="enable-background:new 0 0 1400 980;" width="1400px" height="980px"><rect id="ee-background" x="0" y="0" width="1400" height="980" style="fill: white; fill-opacity: 1; pointer-events: none;"/>


<g transform="matrix(16.314302098369275, 0, 0, 16.314302098369275, 209.99992683566416, 0)"><g>
	<path d="M59.921,27.964C58.908,13.099,46.934,1.124,32.068,0.11L31,0.038v28.994h28.994L59.921,27.964z M33,27.032V2.199&#10;&#9;&#9;c2.475,0.265,4.854,0.859,7.097,1.732c-0.004,0.035-0.02,0.065-0.02,0.101c0,0.552,0.448,1,1,1c0.301,0,0.562-0.14,0.746-0.35&#10;&#9;&#9;c4.937,2.317,9.089,6.035,11.952,10.637c-0.18-0.177-0.426-0.287-0.698-0.287c-0.552,0-1,0.448-1,1s0.448,1,1,1s1-0.448,1-1&#10;&#9;&#9;c0-0.129-0.029-0.25-0.073-0.363c0.512,0.85,0.969,1.735,1.39,2.64c-0.193,0.182-0.317,0.437-0.317,0.723c0,0.552,0.448,1,1,1&#10;&#9;&#9;c0.021,0,0.039-0.011,0.061-0.012c0.855,2.218,1.434,4.569,1.696,7.012H33z" style="fill: rgb(37, 151, 187);"/>
	<path d="M31.318,31.032l20.097,20.097l0.706-0.766c4.618-5.008,7.415-11.494,7.876-18.263l0.073-1.068H31.318z M51.343,48.229&#10;&#9;&#9;L36.146,33.032h21.762C57.308,38.616,55.007,43.942,51.343,48.229z" style="fill: rgb(37, 151, 187);"/>
	<path d="M 36.076 4.032 A 1 1 0 0 1 35.076 5.032 A 1 1 0 0 1 34.076 4.032 A 1 1 0 0 1 35.076 3.032 A 1 1 0 0 1 36.076 4.032 Z" style="fill: rgb(37, 151, 187);"/>
	<path d="M 36.076 10.032 A 1 1 0 0 1 35.076 11.032 A 1 1 0 0 1 34.076 10.032 A 1 1 0 0 1 35.076 9.032 A 1 1 0 0 1 36.076 10.032 Z" style="fill: rgb(37, 151, 187);"/>
	<path d="M 39.076 7.032 A 1 1 0 0 1 38.076 8.032 A 1 1 0 0 1 37.076 7.032 A 1 1 0 0 1 38.076 6.032 A 1 1 0 0 1 39.076 7.032 Z" style="fill: rgb(37, 151, 187);"/>
	<path d="M 45.076 7.032 A 1 1 0 0 1 44.076 8.032 A 1 1 0 0 1 43.076 7.032 A 1 1 0 0 1 44.076 6.032 A 1 1 0 0 1 45.076 7.032 Z" style="fill: rgb(37, 151, 187);"/>
	<path d="M 42.076 10.032 A 1 1 0 0 1 41.076 11.032 A 1 1 0 0 1 40.076 10.032 A 1 1 0 0 1 41.076 9.032 A 1 1 0 0 1 42.076 10.032 Z" style="fill: rgb(37, 151, 187);"/>
	<path d="M 48.076 10.032 A 1 1 0 0 1 47.076 11.032 A 1 1 0 0 1 46.076 10.032 A 1 1 0 0 1 47.076 9.032 A 1 1 0 0 1 48.076 10.032 Z" style="fill: rgb(37, 151, 187);"/>
	<path d="M 51.076 13.032 A 1 1 0 0 1 50.076 14.032 A 1 1 0 0 1 49.076 13.032 A 1 1 0 0 1 50.076 12.032 A 1 1 0 0 1 51.076 13.032 Z" style="fill: rgb(37, 151, 187);"/>
	<path d="M 39.076 13.032 A 1 1 0 0 1 38.076 14.032 A 1 1 0 0 1 37.076 13.032 A 1 1 0 0 1 38.076 12.032 A 1 1 0 0 1 39.076 13.032 Z" style="fill: rgb(37, 151, 187);"/>
	<path d="M 45.076 13.032 A 1 1 0 0 1 44.076 14.032 A 1 1 0 0 1 43.076 13.032 A 1 1 0 0 1 44.076 12.032 A 1 1 0 0 1 45.076 13.032 Z" style="fill: rgb(37, 151, 187);"/>
	<path d="M 51.076 19.032 A 1 1 0 0 1 50.076 20.032 A 1 1 0 0 1 49.076 19.032 A 1 1 0 0 1 50.076 18.032 A 1 1 0 0 1 51.076 19.032 Z" style="fill: rgb(37, 151, 187);"/>
	<path d="M 54.076 22.032 A 1 1 0 0 1 53.076 23.032 A 1 1 0 0 1 52.076 22.032 A 1 1 0 0 1 53.076 21.032 A 1 1 0 0 1 54.076 22.032 Z" style="fill: rgb(37, 151, 187);"/>
	<path d="M 36.076 16.032 A 1 1 0 0 1 35.076 17.032 A 1 1 0 0 1 34.076 16.032 A 1 1 0 0 1 35.076 15.032 A 1 1 0 0 1 36.076 16.032 Z" style="fill: rgb(37, 151, 187);"/>
	<path d="M 36.076 22.032 A 1 1 0 0 1 35.076 23.032 A 1 1 0 0 1 34.076 22.032 A 1 1 0 0 1 35.076 21.032 A 1 1 0 0 1 36.076 22.032 Z" style="fill: rgb(37, 151, 187);"/>
	<path d="M 39.076 19.032 A 1 1 0 0 1 38.076 20.032 A 1 1 0 0 1 37.076 19.032 A 1 1 0 0 1 38.076 18.032 A 1 1 0 0 1 39.076 19.032 Z" style="fill: rgb(37, 151, 187);"/>
	<path d="M 45.076 19.032 A 1 1 0 0 1 44.076 20.032 A 1 1 0 0 1 43.076 19.032 A 1 1 0 0 1 44.076 18.032 A 1 1 0 0 1 45.076 19.032 Z" style="fill: rgb(37, 151, 187);"/>
	<path d="M 42.076 16.032 A 1 1 0 0 1 41.076 17.032 A 1 1 0 0 1 40.076 16.032 A 1 1 0 0 1 41.076 15.032 A 1 1 0 0 1 42.076 16.032 Z" style="fill: rgb(37, 151, 187);"/>
	<path d="M 48.076 16.032 A 1 1 0 0 1 47.076 17.032 A 1 1 0 0 1 46.076 16.032 A 1 1 0 0 1 47.076 15.032 A 1 1 0 0 1 48.076 16.032 Z" style="fill: rgb(37, 151, 187);"/>
	<path d="M 42.076 22.032 A 1 1 0 0 1 41.076 23.032 A 1 1 0 0 1 40.076 22.032 A 1 1 0 0 1 41.076 21.032 A 1 1 0 0 1 42.076 22.032 Z" style="fill: rgb(37, 151, 187);"/>
	<path d="M 48.076 22.032 A 1 1 0 0 1 47.076 23.032 A 1 1 0 0 1 46.076 22.032 A 1 1 0 0 1 47.076 21.032 A 1 1 0 0 1 48.076 22.032 Z" style="fill: rgb(37, 151, 187);"/>
	<path d="M 57.076 25.032 A 1 1 0 0 1 56.076 26.032 A 1 1 0 0 1 55.076 25.032 A 1 1 0 0 1 56.076 24.032 A 1 1 0 0 1 57.076 25.032 Z" style="fill: rgb(37, 151, 187);"/>
	<path d="M 51.076 25.032 A 1 1 0 0 1 50.076 26.032 A 1 1 0 0 1 49.076 25.032 A 1 1 0 0 1 50.076 24.032 A 1 1 0 0 1 51.076 25.032 Z" style="fill: rgb(37, 151, 187);"/>
	<path d="M 39.076 25.032 A 1 1 0 0 1 38.076 26.032 A 1 1 0 0 1 37.076 25.032 A 1 1 0 0 1 38.076 24.032 A 1 1 0 0 1 39.076 25.032 Z" style="fill: rgb(37, 151, 187);"/>
	<path d="M 45.076 25.032 A 1 1 0 0 1 44.076 26.032 A 1 1 0 0 1 43.076 25.032 A 1 1 0 0 1 44.076 24.032 A 1 1 0 0 1 45.076 25.032 Z" style="fill: rgb(37, 151, 187);"/>
	<path d="M29,0.038L27.932,0.11C12.269,1.179,0,14.321,0,30.032c0,7.239,2.621,14.233,7.38,19.695l0.704,0.808L29,29.618V0.038z&#10;&#9;&#9; M27,28.79L8.199,47.591C4.194,42.623,2,36.43,2,30.032C2,15.729,12.896,3.705,27,2.199V28.79z" style="fill: rgb(37, 151, 187);"/>
	<path d="M9.498,51.948l0.808,0.704c5.461,4.759,12.456,7.38,19.694,7.38c6.927,0,13.687-2.425,19.037-6.826l0.851-0.7&#10;&#9;&#9;L29.414,32.032L9.498,51.948z M29.414,34.86l1.101,1.101L13.707,52.768c-0.426-0.306-0.856-0.604-1.266-0.934L29.414,34.86z&#10;&#9;&#9; M21.198,56.592c-0.695-0.231-1.379-0.491-2.053-0.776l15.613-15.613l1.414,1.414L21.198,56.592z M37.586,43.032L39,44.446&#10;&#9;&#9;L25.756,57.691c-0.795-0.122-1.583-0.277-2.362-0.467L37.586,43.032z M17.219,54.914c-0.616-0.316-1.218-0.657-1.81-1.019&#10;&#9;&#9;l16.52-16.52l1.415,1.415L17.219,54.914z M28.315,57.96l12.099-12.1l1.414,1.414L31.117,57.986&#10;&#9;&#9;c-0.372,0.015-0.743,0.046-1.117,0.046C29.436,58.032,28.876,57.994,28.315,57.96z M43.242,48.689l1.415,1.415l-6.763,6.763&#10;&#9;&#9;c-1.2,0.354-2.419,0.639-3.659,0.83L43.242,48.689z M42.56,55.029l3.512-3.512l0.828,0.828&#10;&#9;&#9;C45.536,53.38,44.077,54.266,42.56,55.029z" style="fill: rgb(37, 151, 187);"/>
</g><g>
</g><g>
</g><g>
</g><g>
</g><g>
</g><g>
</g><g>
</g><g>
</g><g>
</g><g>
</g><g>
</g><g>
</g><g>
</g><g>
</g><g>
</g></g></svg>