<?xml version="1.0" encoding="UTF-8" standalone="no"?>
<!DOCTYPE svg PUBLIC "-//W3C//DTD SVG 1.1//EN" "http://www.w3.org/Graphics/SVG/1.1/DTD/svg11.dtd">
<svg version="1.1" xmlns="http://www.w3.org/2000/svg" xmlns:xlink="http://www.w3.org/1999/xlink" preserveAspectRatio="xMidYMid meet" viewBox="0 0 640 640" width="640" height="640"><defs><path d="M187.06 138.29C187.06 150.45 177.17 160.34 165.01 160.34C152.85 160.34 142.96 150.45 142.96 138.29C142.96 126.13 152.85 116.24 165.01 116.24C170.54 116.24 175.03 111.76 175.03 106.22C175.03 100.69 170.55 96.2 165.01 96.2C141.8 96.2 122.92 115.08 122.92 138.29C122.92 161.49 141.8 180.38 165.01 180.38C188.22 180.38 207.1 161.49 207.1 138.29C207.1 132.75 202.61 128.27 197.08 128.27C191.54 128.27 187.06 132.75 187.06 138.29Z" id="aa6IasrrW"></path><path d="M187.06 255.87C187.06 268.02 177.17 277.91 165.01 277.91C152.85 277.91 142.96 268.02 142.96 255.87C142.96 243.71 152.85 233.82 165.01 233.82C170.54 233.82 175.03 229.33 175.03 223.8C175.03 218.26 170.55 213.78 165.01 213.78C141.8 213.78 122.92 232.66 122.92 255.87C122.92 279.07 141.8 297.95 165.01 297.95C188.22 297.95 207.1 279.07 207.1 255.87C207.1 250.33 202.61 245.84 197.08 245.84C191.54 245.84 187.06 250.33 187.06 255.87Z" id="cdjRsTtZb"></path><path d="M239.83 267.22C234.3 267.22 229.81 271.71 229.81 277.25C229.81 282.78 234.3 287.27 239.83 287.27C247.31 287.27 307.17 287.27 314.65 287.27C320.19 287.27 324.68 282.78 324.68 277.25C324.68 271.71 320.19 267.22 314.65 267.22C299.69 267.22 247.31 267.22 239.83 267.22Z" id="b167qkRp6E"></path><path d="M239.83 224.47C234.3 224.47 229.81 228.95 229.81 234.49C229.81 240.02 234.3 244.51 239.83 244.51C247.31 244.51 307.17 244.51 314.65 244.51C320.19 244.51 324.68 240.02 324.68 234.49C324.68 228.95 320.19 224.47 314.65 224.47C299.69 224.47 247.31 224.47 239.83 224.47Z" id="bnqi6yLpj"></path><path d="M239.83 384.8C234.3 384.8 229.81 389.29 229.81 394.82C229.81 400.36 234.3 404.84 239.83 404.84C245.18 404.84 287.93 404.84 293.28 404.84C298.81 404.84 303.3 400.36 303.3 394.82C303.3 389.29 298.81 384.8 293.28 384.8C282.59 384.8 245.18 384.8 239.83 384.8Z" id="b1j6ljKNkw"></path><path d="M239.83 342.05C234.3 342.05 229.81 346.53 229.81 352.07C229.81 357.6 234.3 362.09 239.83 362.09C247.31 362.09 307.17 362.09 314.65 362.09C320.19 362.09 324.68 357.6 324.68 352.07C324.68 346.53 320.19 342.05 314.65 342.05C299.69 342.05 247.31 342.05 239.83 342.05Z" id="d2fgxXKQsC"></path><path d="M239.83 149.64C234.3 149.64 229.81 154.13 229.81 159.67C229.81 165.2 234.3 169.69 239.83 169.69C256.93 169.69 393.75 169.69 410.86 169.69C416.39 169.69 420.88 165.2 420.88 159.67C420.88 154.13 416.39 149.64 410.86 149.64C376.65 149.64 256.93 149.64 239.83 149.64Z" id="a63MzC4LP"></path><path d="M239.83 106.89C234.3 106.89 229.81 111.38 229.81 116.91C229.81 122.45 234.3 126.93 239.83 126.93C252.66 126.93 355.27 126.93 368.1 126.93C373.63 126.93 378.12 122.45 378.12 116.91C378.12 111.38 373.64 106.89 368.1 106.89C342.45 106.89 252.66 106.89 239.83 106.89Z" id="hbm8uwCse"></path><path d="M187.06 373.44C187.06 385.6 177.17 395.49 165.01 395.49C152.85 395.49 142.96 385.6 142.96 373.44C142.96 361.29 152.85 351.4 165.01 351.4C170.54 351.4 175.03 346.91 175.03 341.38C175.03 335.84 170.55 331.36 165.01 331.36C141.8 331.36 122.92 350.24 122.92 373.44C122.92 396.65 141.8 415.53 165.01 415.53C188.22 415.53 207.1 396.65 207.1 373.44C207.1 367.91 202.61 363.42 197.08 363.42C191.54 363.42 187.06 367.91 187.06 373.44Z" id="acSplI6hi"></path><path d="M90.19 0C72.88 0 58.79 14.09 58.79 31.4C58.79 76.29 58.79 435.44 58.79 480.33C58.79 497.65 72.87 511.73 90.19 511.73C108.36 511.73 253.73 511.73 271.9 511.73C277.43 511.73 281.92 507.25 281.92 501.71C281.92 496.18 277.44 491.69 271.9 491.69C253.73 491.69 108.36 491.69 90.19 491.69C83.93 491.69 78.83 486.6 78.83 480.33C78.83 435.44 78.83 76.29 78.83 31.4C78.83 25.14 83.93 20.04 90.19 20.04C126.53 20.04 417.27 20.04 453.61 20.04C459.87 20.04 464.97 25.14 464.97 31.4C464.97 64.53 464.97 329.62 464.97 362.76C464.97 368.29 469.46 372.78 474.99 372.78C480.52 372.78 485.01 368.29 485.01 362.76C485.01 329.62 485.01 64.53 485.01 31.4C485.01 14.09 470.93 0 453.61 0C380.93 0 126.53 0 90.19 0Z" id="h6ecwgp8k"></path><path d="M385.81 224.51L386.58 224.56L387.34 224.62L388.11 224.7L388.87 224.79L389.63 224.9L390.39 225.02L391.15 225.16L391.9 225.31L392.64 225.48L393.39 225.67L394.12 225.87L394.86 226.08L395.59 226.31L396.31 226.56L397.03 226.82L397.74 227.09L398.45 227.38L399.15 227.69L399.85 228.01L400.54 228.34L401.22 228.69L401.89 229.05L402.56 229.43L403.22 229.82L403.87 230.23L404.52 230.64L405.15 231.08L405.78 231.52L406.4 231.98L407.01 232.46L407.61 232.95L408.2 233.45L408.78 233.96L409.35 234.49L409.91 235.03L410.45 235.58L410.99 236.13L411.51 236.7L412.01 237.28L412.51 237.87L412.99 238.47L413.46 239.08L413.91 239.7L414.36 240.32L414.78 240.96L415.2 241.6L415.6 242.25L415.99 242.91L416.36 243.57L416.72 244.25L417.06 244.93L417.39 245.62L417.71 246.31L418.01 247.01L418.3 247.72L418.57 248.43L418.83 249.15L419.08 249.87L419.3 250.6L419.52 251.33L419.72 252.07L419.9 252.81L420.07 253.56L420.22 254.31L420.36 255.07L420.48 255.82L420.58 256.59L420.67 257.35L420.75 258.12L420.8 258.89L420.84 259.66L420.87 260.43L420.88 261.21L420.88 388.83L421.35 388.59L421.82 388.36L422.29 388.14L422.77 387.93L423.26 387.72L423.74 387.52L424.23 387.33L424.72 387.14L425.21 386.96L425.71 386.79L426.2 386.62L426.7 386.46L427.21 386.31L427.71 386.17L428.22 386.03L428.72 385.9L429.24 385.78L429.75 385.66L430.26 385.55L430.78 385.45L431.3 385.36L431.81 385.27L432.33 385.19L432.86 385.12L433.38 385.05L433.9 385L434.43 384.95L434.96 384.91L435.48 384.87L436.01 384.84L436.54 384.82L437.07 384.81L437.6 384.81L438.14 384.81L438.67 384.82L439.2 384.84L439.73 384.87L440.27 384.9L440.8 384.94L441.33 384.99L442.2 385.09L443.06 385.21L443.91 385.35L444.76 385.51L445.6 385.69L446.43 385.9L447.25 386.12L448.07 386.36L448.88 386.62L449.68 386.91L450.48 387.21L451.26 387.53L452.04 387.87L452.8 388.22L453.56 388.6L454.31 388.99L455.05 389.4L455.78 389.83L456.49 390.27L457.2 390.73L457.9 391.21L458.58 391.7L459.26 392.21L459.92 392.73L460.57 393.27L461.21 393.82L461.84 394.39L462.46 394.97L463.06 395.57L463.65 396.18L464.23 396.81L464.79 397.44L465.34 398.09L465.88 398.76L466.4 399.43L466.91 400.12L467.4 400.82L467.88 401.53L468.34 402.25L468.79 402.98L469.34 402.57L469.91 402.17L470.48 401.78L471.05 401.4L471.64 401.03L472.23 400.67L472.82 400.32L473.42 399.99L474.03 399.66L474.65 399.35L475.26 399.05L475.89 398.76L476.52 398.49L477.15 398.22L477.79 397.97L478.44 397.73L479.08 397.5L479.74 397.28L480.39 397.08L481.05 396.89L481.71 396.71L482.38 396.54L483.05 396.38L483.73 396.24L484.4 396.11L485.08 395.99L485.76 395.88L486.45 395.79L487.13 395.71L487.82 395.64L488.51 395.59L489.2 395.55L489.9 395.52L490.59 395.5L491.29 395.5L491.98 395.51L492.68 395.53L493.38 395.57L494.08 395.62L494.78 395.68L495.64 395.78L496.5 395.9L497.36 396.04L498.2 396.2L499.04 396.38L499.87 396.58L500.7 396.81L501.52 397.05L502.33 397.31L503.13 397.59L503.92 397.9L504.7 398.22L505.48 398.55L506.25 398.91L507.01 399.29L507.75 399.68L508.49 400.09L509.22 400.51L509.94 400.96L510.65 401.42L511.34 401.89L512.03 402.39L512.7 402.89L513.37 403.42L514.02 403.96L514.66 404.51L515.29 405.08L515.9 405.66L516.51 406.26L517.1 406.87L517.67 407.49L518.24 408.13L518.78 408.78L519.32 409.44L519.84 410.12L520.35 410.81L520.84 411.51L521.32 412.22L521.78 412.94L522.23 413.67L522.79 413.26L523.35 412.86L523.92 412.46L524.5 412.08L525.08 411.71L525.67 411.36L526.27 411.01L526.87 410.68L527.48 410.35L528.09 410.04L528.71 409.74L529.34 409.45L529.96 409.18L530.6 408.91L531.24 408.66L531.88 408.42L532.53 408.19L533.18 407.97L533.84 407.77L534.5 407.57L535.16 407.39L535.83 407.23L536.5 407.07L537.17 406.93L537.85 406.8L538.53 406.68L539.21 406.57L539.89 406.48L540.58 406.4L541.27 406.33L541.96 406.28L542.65 406.23L543.34 406.2L544.04 406.19L544.73 406.19L545.43 406.2L546.13 406.22L546.83 406.25L547.52 406.3L548.22 406.37L549.6 406.53L550.97 406.76L552.31 407.03L553.64 407.36L554.95 407.74L556.24 408.16L557.51 408.64L558.76 409.17L559.98 409.74L561.18 410.36L562.36 411.02L563.51 411.72L564.63 412.47L565.72 413.26L566.79 414.09L567.83 414.96L568.83 415.86L569.81 416.8L570.75 417.78L571.65 418.79L572.53 419.83L573.36 420.91L574.16 422.02L574.93 423.15L575.65 424.32L576.34 425.51L576.98 426.73L577.58 427.97L578.14 429.24L578.66 430.53L579.13 431.84L579.56 433.18L579.94 434.53L580.27 435.9L580.55 437.29L580.79 438.69L580.97 440.11L581.1 441.55L581.18 442.99L581.21 444.45L581.21 555.16L581.14 558.65L580.93 562.11L580.58 565.53L580.1 568.9L579.48 572.24L578.74 575.52L577.87 578.76L576.88 581.95L575.76 585.08L574.53 588.15L573.19 591.17L571.73 594.12L570.16 597L568.48 599.82L566.7 602.56L564.82 605.23L562.84 607.83L560.76 610.34L558.59 612.78L556.33 615.12L553.98 617.38L551.55 619.55L549.04 621.63L546.44 623.61L543.77 625.49L541.02 627.27L538.21 628.95L535.32 630.52L532.37 631.98L529.36 633.32L526.29 634.56L523.15 635.67L519.97 636.66L516.73 637.53L513.44 638.28L510.11 638.89L506.73 639.37L503.31 639.72L499.86 639.93L496.37 640L405.98 640L403.03 639.95L400.09 639.8L397.18 639.56L394.3 639.21L391.45 638.77L388.62 638.24L385.83 637.61L383.07 636.9L380.35 636.09L377.66 635.2L375.01 634.22L372.41 633.15L369.84 632L367.33 630.77L364.85 629.46L362.43 628.07L360.05 626.6L357.73 625.05L355.46 623.43L353.25 621.74L351.09 619.97L349 618.14L346.96 616.23L344.99 614.25L343.08 612.21L341.23 610.11L339.46 607.94L337.75 605.7L336.12 603.41L334.56 601.06L333.07 598.65L331.67 596.18L330.34 593.66L329.09 591.09L327.92 588.46L326.84 585.78L325.85 583.05L324.94 580.28L324.12 577.46L323.39 574.59L301.03 479.54L300.67 477.93L300.36 476.31L300.08 474.69L299.85 473.07L299.66 471.45L299.51 469.83L299.4 468.21L299.34 466.59L299.31 464.98L299.33 463.37L299.39 461.77L299.49 460.17L299.63 458.57L299.8 456.98L300.02 455.4L300.28 453.83L300.58 452.27L300.92 450.71L301.29 449.16L301.71 447.63L302.16 446.1L302.66 444.59L303.19 443.09L303.76 441.6L304.37 440.13L305.01 438.67L305.7 437.22L306.42 435.79L307.18 434.38L307.97 432.99L308.81 431.61L309.68 430.25L310.58 428.91L311.53 427.59L312.5 426.29L313.52 425.02L314.57 423.76L315.65 422.53L316.78 421.32L317.93 420.13L347.39 390.67L347.39 262.74L347.42 261.28L347.5 259.83L347.63 258.4L347.81 256.98L348.05 255.58L348.33 254.19L348.67 252.82L349.04 251.47L349.47 250.13L349.94 248.82L350.46 247.53L351.02 246.26L351.62 245.02L352.27 243.8L352.95 242.61L353.67 241.44L354.44 240.3L355.24 239.2L356.07 238.12L356.95 237.08L357.85 236.07L358.8 235.09L359.77 234.15L360.78 233.24L361.81 232.38L362.88 231.55L363.97 230.76L365.1 230.01L366.24 229.31L367.42 228.65L368.62 228.03L369.84 227.46L371.09 226.93L372.36 226.45L373.65 226.02L374.96 225.65L376.29 225.32L377.64 225.04L379 224.82L380.38 224.66L381.16 224.59L381.93 224.53L382.71 224.5L383.49 224.48L384.26 224.47L385.03 224.49L385.81 224.51ZM383.46 244.52L383.1 244.54L382.74 244.57L382.38 244.6L381.75 244.67L381.13 244.78L380.52 244.91L379.92 245.06L379.33 245.24L378.74 245.44L378.17 245.66L377.6 245.91L377.05 246.18L376.51 246.47L375.97 246.79L375.45 247.12L374.94 247.48L374.45 247.85L373.97 248.24L373.5 248.66L373.04 249.09L372.6 249.54L372.17 250L371.76 250.48L371.37 250.98L370.99 251.49L370.62 252.02L370.28 252.56L369.95 253.12L369.64 253.69L369.35 254.27L369.08 254.86L368.82 255.47L368.59 256.08L368.38 256.71L368.18 257.35L368.01 257.99L367.86 258.65L367.73 259.31L367.62 259.98L367.54 260.66L367.48 261.35L367.44 262.04L367.43 262.74L367.43 453.61L367.42 454.02L367.4 454.43L367.36 454.84L367.3 455.24L367.23 455.63L367.14 456.02L367.04 456.4L366.92 456.78L366.79 457.15L366.65 457.51L366.49 457.87L366.31 458.22L366.13 458.56L365.93 458.89L365.72 459.21L365.5 459.53L365.27 459.84L365.02 460.13L364.76 460.42L364.5 460.7L364.22 460.96L363.93 461.22L363.64 461.47L363.33 461.7L363.01 461.92L362.69 462.13L362.36 462.33L362.02 462.51L361.67 462.69L361.31 462.85L360.95 462.99L360.58 463.12L360.2 463.24L359.82 463.34L359.43 463.43L359.04 463.5L358.64 463.56L358.23 463.6L357.82 463.62L357.41 463.63L357 463.62L356.59 463.6L356.19 463.56L355.79 463.5L355.39 463.43L355 463.34L354.62 463.24L354.24 463.12L353.87 462.99L353.51 462.84L353.15 462.69L352.81 462.51L352.46 462.33L352.13 462.13L351.81 461.92L351.49 461.7L351.19 461.47L350.89 461.22L350.6 460.96L350.32 460.7L350.06 460.42L349.8 460.13L349.56 459.84L349.32 459.53L349.1 459.21L348.89 458.89L348.69 458.56L348.51 458.22L348.34 457.87L348.18 457.51L348.03 457.15L347.9 456.78L347.78 456.4L347.68 456.02L347.59 455.63L347.52 455.24L347.46 454.84L347.42 454.43L347.4 454.02L347.39 453.61L347.39 419.01L332.1 434.3L331.31 435.11L330.55 435.94L329.8 436.78L329.08 437.64L328.39 438.52L327.72 439.41L327.08 440.31L326.46 441.22L325.86 442.15L325.29 443.1L324.75 444.05L324.23 445.02L323.73 445.99L323.27 446.98L322.82 447.98L322.41 448.99L322.02 450.01L321.65 451.03L321.32 452.07L321 453.11L320.72 454.16L320.46 455.22L320.23 456.29L320.03 457.36L319.85 458.43L319.7 459.52L319.58 460.6L319.48 461.69L319.42 462.79L319.38 463.89L319.37 464.99L319.38 466.09L319.43 467.2L319.5 468.3L319.6 469.41L319.73 470.52L319.89 471.63L320.08 472.74L320.29 473.84L320.54 474.95L342.9 570L343.46 572.19L344.08 574.34L344.78 576.46L345.54 578.54L346.36 580.59L347.25 582.6L348.21 584.56L349.22 586.49L350.3 588.37L351.43 590.21L352.62 592.01L353.87 593.76L355.17 595.47L356.53 597.12L357.94 598.73L359.39 600.29L360.9 601.8L362.46 603.26L364.06 604.66L365.71 606.01L367.4 607.3L369.13 608.54L370.9 609.72L372.72 610.84L374.57 611.91L376.46 612.91L378.38 613.85L380.34 614.73L382.33 615.54L384.35 616.29L386.4 616.97L388.48 617.59L390.59 618.13L392.72 618.61L394.88 619.02L397.06 619.35L399.26 619.62L401.48 619.8L403.73 619.92L405.98 619.96L496.37 619.96L498.15 619.92L499.92 619.8L501.69 619.59L503.45 619.31L505.2 618.94L506.94 618.5L508.67 617.97L510.39 617.37L512.11 616.68L513.82 615.91L515.52 615.06L517.21 614.13L518.89 613.11L520.56 612.02L522.23 610.84L523.89 609.59L525.54 608.25L527.18 606.84L528.81 605.34L530.44 603.76L532.05 602.1L533.66 600.36L535.26 598.53L536.85 596.63L538.43 594.64L540.01 592.58L541.57 590.43L543.13 588.2L544.68 585.9L546.22 583.51L547.75 581.04L549.28 578.48L550.79 575.85L552.3 573.14L553.8 570.34L555.29 567.47L556.78 564.51L558.25 561.47L559.72 558.36L561.18 555.16L561.18 444.44L561.16 443.75L561.13 443.06L561.07 442.37L560.98 441.69L560.88 441.02L560.75 440.36L560.6 439.7L560.43 439.05L560.23 438.42L560.02 437.79L559.78 437.17L559.53 436.57L559.26 435.98L558.97 435.39L558.66 434.83L558.33 434.27L557.98 433.73L557.62 433.2L557.24 432.69L556.84 432.19L556.43 431.71L556.01 431.24L555.57 430.8L555.11 430.37L554.64 429.95L554.16 429.56L553.66 429.19L553.15 428.83L552.63 428.5L552.1 428.18L551.56 427.89L551 427.62L550.44 427.37L549.86 427.15L549.28 426.94L548.68 426.77L548.08 426.61L547.47 426.49L546.86 426.38L546.23 426.31L545.87 426.27L545.51 426.25L545.15 426.23L544.79 426.22L544.44 426.22L544.08 426.22L543.73 426.23L543.37 426.25L543.02 426.28L542.67 426.31L542.32 426.35L541.98 426.4L541.63 426.45L541.29 426.52L540.95 426.59L540.61 426.66L540.27 426.74L539.94 426.83L539.6 426.93L539.27 427.04L538.95 427.15L538.62 427.26L538.3 427.39L537.98 427.52L537.66 427.66L537.34 427.8L537.03 427.95L536.72 428.11L536.42 428.28L536.11 428.45L535.81 428.63L535.52 428.81L535.22 429.01L534.94 429.2L534.65 429.41L534.37 429.62L534.09 429.84L533.81 430.06L533.54 430.29L533.27 430.53L533.01 430.77L532.76 431.01L532.51 431.26L532.27 431.52L532.03 431.78L531.8 432.04L531.58 432.31L531.36 432.58L531.14 432.86L530.94 433.14L530.74 433.42L530.54 433.71L530.35 434L530.17 434.3L529.99 434.6L529.83 434.9L529.66 435.21L529.5 435.52L529.35 435.83L529.21 436.15L529.07 436.46L528.94 436.78L528.82 437.11L528.7 437.44L528.59 437.76L528.49 438.1L528.39 438.43L528.3 438.76L528.22 439.1L528.14 439.44L528.07 439.78L528.01 440.13L527.95 440.47L527.9 440.82L527.86 441.17L527.83 441.51L527.8 441.86L527.79 442.22L527.77 442.57L527.77 442.92L527.77 458.95L527.76 459.37L527.74 459.78L527.7 460.18L527.64 460.58L527.57 460.97L527.48 461.36L527.38 461.74L527.26 462.12L527.13 462.49L526.98 462.85L526.82 463.21L526.65 463.56L526.47 463.9L526.27 464.23L526.06 464.56L525.84 464.87L525.6 465.18L525.36 465.48L525.1 465.76L524.84 466.04L524.56 466.31L524.27 466.56L523.97 466.81L523.67 467.04L523.35 467.26L523.03 467.47L522.7 467.67L522.35 467.86L522.01 468.03L521.65 468.19L521.29 468.33L520.92 468.46L520.54 468.58L520.16 468.68L519.77 468.77L519.38 468.84L518.98 468.9L518.57 468.94L518.16 468.97L517.75 468.97L517.34 468.97L516.93 468.94L516.52 468.9L516.12 468.84L515.73 468.77L515.34 468.68L514.96 468.58L514.58 468.46L514.21 468.33L513.85 468.19L513.49 468.03L513.14 467.86L512.8 467.67L512.47 467.47L512.15 467.26L511.83 467.04L511.53 466.81L511.23 466.56L510.94 466.31L510.66 466.04L510.4 465.76L510.14 465.48L509.9 465.18L509.66 464.87L509.44 464.56L509.23 464.23L509.03 463.9L508.85 463.56L508.68 463.21L508.52 462.85L508.37 462.49L508.24 462.12L508.12 461.74L508.02 461.36L507.93 460.97L507.86 460.58L507.8 460.18L507.76 459.78L507.74 459.37L507.73 458.95L507.73 433.76L507.72 433.06L507.68 432.37L507.62 431.68L507.54 431L507.43 430.33L507.3 429.67L507.15 429.01L506.98 428.37L506.79 427.73L506.57 427.1L506.34 426.49L506.08 425.88L505.81 425.29L505.52 424.71L505.21 424.14L504.88 423.58L504.54 423.04L504.17 422.51L503.79 422L503.4 421.5L502.99 421.02L502.56 420.56L502.12 420.11L501.66 419.68L501.2 419.27L500.71 418.87L500.22 418.5L499.71 418.14L499.19 417.81L498.65 417.49L498.11 417.2L497.56 416.93L496.99 416.68L496.42 416.46L495.83 416.26L495.24 416.08L494.64 415.93L494.03 415.8L493.41 415.69L492.78 415.62L492.42 415.59L492.06 415.56L491.7 415.54L491.35 415.53L490.99 415.53L490.64 415.53L490.28 415.55L489.93 415.56L489.58 415.59L489.23 415.62L488.88 415.66L488.53 415.71L488.19 415.77L487.84 415.83L487.5 415.9L487.16 415.97L486.83 416.06L486.49 416.15L486.16 416.24L485.83 416.35L485.5 416.46L485.18 416.58L484.85 416.7L484.53 416.83L484.21 416.97L483.9 417.12L483.59 417.27L483.28 417.43L482.97 417.59L482.67 417.76L482.37 417.94L482.07 418.13L481.78 418.32L481.49 418.52L481.2 418.72L480.92 418.93L480.64 419.15L480.37 419.37L480.09 419.61L479.83 419.84L479.57 420.08L479.31 420.33L479.06 420.58L478.82 420.83L478.59 421.09L478.35 421.35L478.13 421.62L477.91 421.89L477.7 422.17L477.49 422.45L477.29 422.74L477.1 423.02L476.91 423.32L476.72 423.61L476.55 423.91L476.38 424.21L476.22 424.52L476.06 424.83L475.91 425.14L475.76 425.46L475.63 425.78L475.5 426.1L475.37 426.42L475.25 426.75L475.14 427.08L475.04 427.41L474.94 427.74L474.85 428.08L474.77 428.41L474.69 428.75L474.62 429.1L474.56 429.44L474.51 429.78L474.46 430.13L474.42 430.48L474.38 430.83L474.36 431.18L474.34 431.53L474.33 431.88L474.32 432.23L474.32 448.27L474.32 448.68L474.29 449.09L474.25 449.49L474.19 449.89L474.12 450.29L474.03 450.67L473.93 451.06L473.81 451.43L473.68 451.8L473.54 452.17L473.38 452.52L473.21 452.87L473.02 453.21L472.82 453.55L472.61 453.87L472.39 454.18L472.16 454.49L471.91 454.79L471.66 455.08L471.39 455.35L471.11 455.62L470.83 455.88L470.53 456.12L470.22 456.35L469.91 456.58L469.58 456.79L469.25 456.98L468.91 457.17L468.56 457.34L468.2 457.5L467.84 457.65L467.47 457.78L467.09 457.89L466.71 458L466.32 458.08L465.93 458.16L465.53 458.21L465.13 458.25L464.72 458.28L464.3 458.29L463.89 458.28L463.48 458.25L463.08 458.21L462.68 458.16L462.28 458.08L461.9 458L461.51 457.89L461.14 457.78L460.77 457.65L460.4 457.5L460.05 457.34L459.7 457.17L459.36 456.98L459.02 456.79L458.7 456.58L458.39 456.35L458.08 456.12L457.78 455.87L457.49 455.62L457.22 455.35L456.95 455.07L456.69 454.79L456.45 454.49L456.22 454.18L455.99 453.87L455.78 453.54L455.59 453.21L455.4 452.87L455.23 452.52L455.07 452.17L454.92 451.8L454.79 451.43L454.68 451.06L454.57 450.67L454.49 450.29L454.41 449.89L454.36 449.49L454.32 449.09L454.29 448.68L454.28 448.27L454.28 423.07L454.27 422.37L454.23 421.68L454.17 421L454.09 420.32L453.98 419.65L453.86 418.98L453.7 418.33L453.53 417.68L453.34 417.04L453.13 416.42L452.89 415.8L452.64 415.2L452.37 414.6L452.07 414.02L451.76 413.45L451.44 412.9L451.09 412.35L450.73 411.83L450.35 411.31L449.95 410.82L449.54 410.34L449.12 409.87L448.67 409.42L448.22 408.99L447.75 408.58L447.27 408.19L446.77 407.81L446.26 407.46L445.74 407.12L445.21 406.81L444.66 406.52L444.11 406.25L443.54 406L442.97 405.77L442.39 405.57L441.79 405.39L441.19 405.24L440.58 405.11L439.96 405.01L439.34 404.93L438.98 404.9L438.62 404.87L438.26 404.86L437.9 404.85L437.54 404.84L437.19 404.85L436.83 404.86L436.48 404.88L436.13 404.9L435.78 404.94L435.43 404.98L435.09 405.03L434.74 405.08L434.4 405.14L434.06 405.21L433.72 405.29L433.38 405.37L433.05 405.46L432.71 405.56L432.38 405.66L432.05 405.77L431.73 405.89L431.41 406.01L431.09 406.15L430.77 406.28L430.45 406.43L430.14 406.58L429.83 406.74L429.53 406.9L429.22 407.08L428.92 407.25L428.63 407.44L428.33 407.63L428.04 407.83L427.76 408.03L427.47 408.25L427.19 408.46L426.92 408.69L426.65 408.92L426.38 409.16L426.12 409.4L425.87 409.64L425.62 409.89L425.38 410.14L425.14 410.4L424.91 410.67L424.68 410.94L424.46 411.21L424.25 411.48L424.04 411.76L423.84 412.05L423.65 412.34L423.46 412.63L423.28 412.93L423.1 413.22L422.93 413.53L422.77 413.83L422.61 414.14L422.46 414.46L422.32 414.77L422.18 415.09L422.05 415.41L421.93 415.73L421.81 416.06L421.7 416.39L421.59 416.72L421.5 417.06L421.41 417.39L421.32 417.73L421.25 418.07L421.18 418.41L421.12 418.75L421.06 419.1L421.01 419.44L420.97 419.79L420.94 420.14L420.91 420.49L420.89 420.84L420.88 421.19L420.88 421.55L420.88 437.58L420.87 437.99L420.85 438.4L420.8 438.81L420.75 439.21L420.68 439.6L420.59 439.99L420.48 440.37L420.37 440.75L420.24 441.12L420.09 441.48L419.93 441.84L419.76 442.19L419.58 442.53L419.38 442.86L419.17 443.18L418.95 443.5L418.71 443.8L418.47 444.1L418.21 444.39L417.94 444.67L417.67 444.93L417.38 445.19L417.08 445.43L416.78 445.67L416.46 445.89L416.14 446.1L415.8 446.3L415.46 446.48L415.11 446.65L414.76 446.81L414.4 446.96L414.03 447.09L413.65 447.21L413.27 447.31L412.88 447.4L412.48 447.47L412.08 447.53L411.68 447.57L411.27 447.59L410.86 447.6L410.44 447.59L410.04 447.57L409.63 447.53L409.23 447.47L408.84 447.4L408.45 447.31L408.07 447.21L407.69 447.09L407.32 446.96L406.96 446.81L406.6 446.65L406.25 446.48L405.91 446.3L405.58 446.1L405.25 445.89L404.94 445.67L404.63 445.43L404.34 445.19L404.05 444.93L403.77 444.67L403.5 444.39L403.25 444.1L403 443.8L402.77 443.5L402.55 443.18L402.34 442.86L402.14 442.53L401.95 442.18L401.78 441.84L401.62 441.48L401.48 441.12L401.35 440.75L401.23 440.37L401.13 439.99L401.04 439.6L400.97 439.21L400.91 438.81L400.87 438.4L400.84 437.99L400.84 437.58L400.84 261.21L400.83 260.86L400.82 260.51L400.8 260.16L400.78 259.81L400.74 259.46L400.7 259.11L400.65 258.76L400.6 258.42L400.54 258.08L400.47 257.73L400.39 257.39L400.31 257.06L400.22 256.72L400.12 256.39L400.02 256.06L399.91 255.73L399.79 255.4L399.67 255.08L399.53 254.76L399.4 254.44L399.25 254.12L399.1 253.81L398.95 253.5L398.78 253.19L398.61 252.89L398.44 252.59L398.25 252.3L398.07 252L397.87 251.72L397.67 251.43L397.46 251.15L397.25 250.87L397.03 250.6L396.81 250.33L396.58 250.07L396.34 249.81L396.1 249.56L395.85 249.31L395.59 249.06L395.33 248.82L395.07 248.59L394.8 248.35L394.52 248.13L394.24 247.91L393.96 247.7L393.67 247.5L393.38 247.3L393.09 247.11L392.79 246.92L392.49 246.74L392.19 246.57L391.88 246.41L391.58 246.25L391.26 246.1L390.95 245.95L390.63 245.81L390.31 245.68L389.99 245.56L389.66 245.44L389.33 245.33L389 245.22L388.67 245.13L388.34 245.04L388 244.95L387.66 244.88L387.32 244.81L386.98 244.75L386.63 244.69L386.28 244.64L385.94 244.6L385.59 244.57L385.23 244.54L384.88 244.53L384.53 244.51L384.17 244.51L383.81 244.51L383.46 244.52Z" id="a4kK5VLhCl"></path></defs><g><g><g><use xlink:href="#aa6IasrrW" opacity="1" fill="#555555" fill-opacity="1"></use><g><use xlink:href="#aa6IasrrW" opacity="1" fill-opacity="0" stroke="#000000" stroke-width="1" stroke-opacity="0"></use></g></g><g><use xlink:href="#cdjRsTtZb" opacity="1" fill="#555555" fill-opacity="1"></use><g><use xlink:href="#cdjRsTtZb" opacity="1" fill-opacity="0" stroke="#000000" stroke-width="1" stroke-opacity="0"></use></g></g><g><use xlink:href="#b167qkRp6E" opacity="1" fill="#555555" fill-opacity="1"></use><g><use xlink:href="#b167qkRp6E" opacity="1" fill-opacity="0" stroke="#000000" stroke-width="1" stroke-opacity="0"></use></g></g><g><use xlink:href="#bnqi6yLpj" opacity="1" fill="#555555" fill-opacity="1"></use><g><use xlink:href="#bnqi6yLpj" opacity="1" fill-opacity="0" stroke="#000000" stroke-width="1" stroke-opacity="0"></use></g></g><g><use xlink:href="#b1j6ljKNkw" opacity="1" fill="#555555" fill-opacity="1"></use><g><use xlink:href="#b1j6ljKNkw" opacity="1" fill-opacity="0" stroke="#000000" stroke-width="1" stroke-opacity="0"></use></g></g><g><use xlink:href="#d2fgxXKQsC" opacity="1" fill="#555555" fill-opacity="1"></use><g><use xlink:href="#d2fgxXKQsC" opacity="1" fill-opacity="0" stroke="#000000" stroke-width="1" stroke-opacity="0"></use></g></g><g><use xlink:href="#a63MzC4LP" opacity="1" fill="#555555" fill-opacity="1"></use><g><use xlink:href="#a63MzC4LP" opacity="1" fill-opacity="0" stroke="#000000" stroke-width="1" stroke-opacity="0"></use></g></g><g><use xlink:href="#hbm8uwCse" opacity="1" fill="#555555" fill-opacity="1"></use><g><use xlink:href="#hbm8uwCse" opacity="1" fill-opacity="0" stroke="#000000" stroke-width="1" stroke-opacity="0"></use></g></g><g><use xlink:href="#acSplI6hi" opacity="1" fill="#555555" fill-opacity="1"></use><g><use xlink:href="#acSplI6hi" opacity="1" fill-opacity="0" stroke="#000000" stroke-width="1" stroke-opacity="0"></use></g></g><g><use xlink:href="#h6ecwgp8k" opacity="1" fill="#555555" fill-opacity="1"></use><g><use xlink:href="#h6ecwgp8k" opacity="1" fill-opacity="0" stroke="#000000" stroke-width="1" stroke-opacity="0"></use></g></g><g><use xlink:href="#a4kK5VLhCl" opacity="1" fill="#555555" fill-opacity="1"></use><g><use xlink:href="#a4kK5VLhCl" opacity="1" fill-opacity="0" stroke="#000000" stroke-width="1" stroke-opacity="0"></use></g></g></g></g></svg>