<?xml version="1.0" encoding="UTF-8" standalone="no"?>
<!DOCTYPE svg PUBLIC "-//W3C//DTD SVG 1.1//EN" "http://www.w3.org/Graphics/SVG/1.1/DTD/svg11.dtd">
<svg version="1.1" xmlns="http://www.w3.org/2000/svg" xmlns:xlink="http://www.w3.org/1999/xlink" preserveAspectRatio="xMidYMid meet" viewBox="0 0 640 640" width="640" height="640"><defs><path d="M482.5 237.5C468.69 237.5 457.5 248.69 457.5 262.5C457.5 276.31 468.69 287.5 482.5 287.5C496.31 287.5 507.5 276.31 507.5 262.5C507.5 248.69 496.31 237.5 482.5 237.5Z" id="a3rn8bsSS"></path><path d="M507.5 50C507.5 35 507.5 26.67 507.5 25C507.5 11.19 496.31 0 482.5 0C468.69 0 457.5 11.19 457.5 25C457.5 26.67 457.5 35 457.5 50L343.75 50C343.75 35 343.75 26.67 343.75 25C343.75 11.19 332.56 0 318.75 0C304.94 0 293.75 11.19 293.75 25C293.75 26.67 293.75 35 293.75 50L181.25 50C181.25 35 181.25 26.67 181.25 25C181.25 11.19 170.06 0 156.25 0C142.44 0 131.25 11.19 131.25 25C131.25 26.67 131.25 35 131.25 50C112.5 50 102.08 50 100 50C44.86 50 0 94.86 0 150C0 189 0 501 0 540C0 595.14 44.86 640 100 640C119.13 640 272.13 640 291.25 640C305.06 640 316.25 628.81 316.25 615C316.25 601.19 305.06 590 291.25 590C272.13 590 119.13 590 100 590C72.43 590 50 567.57 50 540C50 501 50 189 50 150C50 122.43 72.43 100 100 100C102.08 100 112.5 100 131.25 100C131.25 115 131.25 123.33 131.25 125C131.25 138.81 142.44 150 156.25 150C170.06 150 181.25 138.81 181.25 125C181.25 123.33 181.25 115 181.25 100L293.75 100C293.75 115 293.75 123.33 293.75 125C293.75 138.81 304.94 150 318.75 150C332.56 150 343.75 138.81 343.75 125C343.75 123.33 343.75 115 343.75 100L457.5 100C457.5 115 457.5 123.33 457.5 125C457.5 138.81 468.69 150 482.5 150C496.31 150 507.5 138.81 507.5 125C507.5 123.33 507.5 115 507.5 100C527 100 537.83 100 540 100C567.57 100 590 122.43 590 150C590 164.25 590 278.25 590 292.5C590 306.31 601.19 317.5 615 317.5C628.81 317.5 640 306.31 640 292.5C640 278.25 640 164.25 640 150C640 94.86 595.14 50 540 50C535.67 50 524.83 50 507.5 50Z" id="a1M0Fa9IsV"></path><path d="M501.14 338L507.23 338.62L513.25 339.48L519.19 340.58L525.05 341.9L530.83 343.45L536.51 345.22L542.09 347.21L547.57 349.4L552.94 351.81L558.2 354.41L563.34 357.2L568.36 360.19L573.26 363.37L578.02 366.72L582.64 370.25L587.13 373.95L591.46 377.82L595.65 381.85L599.68 386.04L603.55 390.37L607.25 394.86L610.78 399.48L614.13 404.24L617.31 409.14L620.3 414.16L623.09 419.3L625.69 424.56L628.1 429.93L630.29 435.41L632.28 440.99L634.05 446.67L635.6 452.45L636.92 458.31L638.02 464.25L638.88 470.27L639.5 476.36L639.87 482.52L640 488.75L639.87 494.98L639.5 501.14L638.88 507.23L638.02 513.25L636.92 519.19L635.6 525.05L634.05 530.83L632.28 536.51L630.29 542.09L628.1 547.57L625.69 552.94L623.09 558.2L620.3 563.34L617.31 568.36L614.13 573.26L610.78 578.02L607.25 582.64L603.55 587.13L599.68 591.46L595.65 595.65L591.46 599.68L587.13 603.55L582.64 607.25L578.02 610.78L573.26 614.13L568.36 617.31L563.34 620.3L558.2 623.09L552.94 625.69L547.57 628.1L542.09 630.29L536.51 632.28L530.83 634.05L525.05 635.6L519.19 636.92L513.25 638.02L507.23 638.88L501.14 639.5L494.98 639.87L488.75 640L482.52 639.87L476.36 639.5L470.27 638.88L464.25 638.02L458.31 636.92L452.45 635.6L446.67 634.05L440.99 632.28L435.41 630.29L429.93 628.1L424.56 625.69L419.3 623.09L414.16 620.3L409.14 617.31L404.24 614.13L399.48 610.78L394.86 607.25L390.37 603.55L386.04 599.68L381.85 595.65L377.82 591.46L373.95 587.13L370.25 582.64L366.72 578.02L363.37 573.26L360.19 568.36L357.2 563.34L354.41 558.2L351.81 552.94L349.4 547.57L347.21 542.09L345.22 536.51L343.45 530.83L341.9 525.05L340.58 519.19L339.48 513.25L338.62 507.23L338 501.14L337.63 494.98L337.5 488.75L337.63 482.52L338 476.36L338.62 470.27L339.48 464.25L340.58 458.31L341.9 452.45L343.45 446.67L345.22 440.99L347.21 435.41L349.4 429.93L351.81 424.56L354.41 419.3L357.2 414.16L360.19 409.14L363.37 404.24L366.72 399.48L370.25 394.86L373.95 390.37L377.82 386.04L381.85 381.85L386.04 377.82L390.37 373.95L394.86 370.25L399.48 366.72L404.24 363.37L409.14 360.19L414.16 357.2L419.3 354.41L424.56 351.81L429.93 349.4L435.41 347.21L440.99 345.22L446.67 343.45L452.45 341.9L458.31 340.58L464.25 339.48L470.27 338.62L476.36 338L482.52 337.63L488.75 337.5L494.98 337.63L501.14 338ZM480.46 387.84L476.38 388.25L472.35 388.83L468.37 389.56L464.45 390.45L460.58 391.49L456.78 392.67L453.05 394L449.38 395.47L445.78 397.08L442.26 398.82L438.82 400.69L435.46 402.69L432.18 404.82L428.99 407.06L425.9 409.42L422.89 411.9L419.99 414.49L417.19 417.19L414.49 419.99L411.9 422.89L409.42 425.9L407.06 428.99L404.82 432.18L402.69 435.46L400.69 438.82L398.82 442.26L397.08 445.78L395.47 449.38L394 453.04L392.67 456.78L391.49 460.58L390.45 464.45L389.56 468.37L388.83 472.35L388.25 476.38L387.84 480.46L387.58 484.58L387.5 488.75L387.58 492.92L387.84 497.04L388.25 501.12L388.83 505.15L389.56 509.13L390.45 513.05L391.49 516.92L392.67 520.72L394 524.46L395.47 528.12L397.08 531.72L398.82 535.24L400.69 538.68L402.69 542.04L404.82 545.32L407.06 548.51L409.42 551.6L411.9 554.61L414.49 557.51L417.19 560.31L419.99 563.01L422.89 565.6L425.9 568.08L428.99 570.44L432.18 572.68L435.46 574.81L438.82 576.81L442.26 578.68L445.78 580.42L449.38 582.03L453.05 583.5L456.78 584.83L460.58 586.01L464.45 587.05L468.37 587.94L472.35 588.67L476.38 589.25L480.46 589.66L484.58 589.92L488.75 590L492.92 589.92L497.04 589.66L501.12 589.25L505.15 588.67L509.13 587.94L513.05 587.05L516.92 586.01L520.72 584.83L524.45 583.5L528.12 582.03L531.72 580.42L535.24 578.68L538.68 576.81L542.04 574.81L545.32 572.68L548.51 570.44L551.6 568.08L554.61 565.6L557.51 563.01L560.31 560.31L563.01 557.51L565.6 554.61L568.08 551.6L570.44 548.51L572.68 545.32L574.81 542.04L576.81 538.68L578.68 535.24L580.42 531.72L582.03 528.12L583.5 524.46L584.83 520.72L586.01 516.92L587.05 513.05L587.94 509.13L588.67 505.15L589.25 501.12L589.66 497.04L589.92 492.92L590 488.75L589.92 484.58L589.66 480.46L589.25 476.38L588.67 472.35L587.94 468.37L587.05 464.45L586.01 460.58L584.83 456.78L583.5 453.04L582.03 449.38L580.42 445.78L578.68 442.26L576.81 438.82L574.81 435.46L572.68 432.18L570.44 428.99L568.08 425.9L565.6 422.89L563.01 419.99L560.31 417.19L557.51 414.49L554.61 411.9L551.6 409.42L548.51 407.06L545.32 404.82L542.04 402.69L538.68 400.69L535.24 398.82L531.72 397.08L528.12 395.47L524.45 394L520.72 392.67L516.92 391.49L513.05 390.45L509.13 389.56L505.15 388.83L501.12 388.25L497.04 387.84L492.92 387.58L488.75 387.5L484.58 387.58L480.46 387.84Z" id="a9HBTNbfE"></path><path d="M513.75 463.75C513.75 448 513.75 439.25 513.75 437.5C513.75 423.69 502.56 412.5 488.75 412.5C474.94 412.5 463.75 423.69 463.75 437.5C463.75 442.63 463.75 483.63 463.75 488.75C463.75 502.56 474.94 513.75 488.75 513.75C492.38 513.75 521.38 513.75 525 513.75C538.81 513.75 550 502.56 550 488.75C550 474.94 538.81 463.75 525 463.75C523.5 463.75 519.75 463.75 513.75 463.75Z" id="b2y2liBkB"></path><path d="M373.75 237.5C359.94 237.5 348.75 248.69 348.75 262.5C348.75 276.31 359.94 287.5 373.75 287.5C387.56 287.5 398.75 276.31 398.75 262.5C398.75 248.69 387.56 237.5 373.75 237.5Z" id="ac0l5VcXU"></path><path d="M265 346.25C251.19 346.25 240 357.44 240 371.25C240 385.06 251.19 396.25 265 396.25C278.81 396.25 290 385.06 290 371.25C290 357.44 278.81 346.25 265 346.25Z" id="c2vKXnAT1f"></path><path d="M156.25 237.5C142.44 237.5 131.25 248.69 131.25 262.5C131.25 276.31 142.44 287.5 156.25 287.5C170.06 287.5 181.25 276.31 181.25 262.5C181.25 248.69 170.06 237.5 156.25 237.5Z" id="bBeCEU7g2"></path><path d="M156.25 346.25C142.44 346.25 131.25 357.44 131.25 371.25C131.25 385.06 142.44 396.25 156.25 396.25C170.06 396.25 181.25 385.06 181.25 371.25C181.25 357.44 170.06 346.25 156.25 346.25Z" id="dxdEqAjm"></path><path d="M156.25 455C142.44 455 131.25 466.19 131.25 480C131.25 493.81 142.44 505 156.25 505C170.06 505 181.25 493.81 181.25 480C181.25 466.19 170.06 455 156.25 455Z" id="caCbqUvnG"></path><path d="M265 455C251.19 455 240 466.19 240 480C240 493.81 251.19 505 265 505C278.81 505 290 493.81 290 480C290 466.19 278.81 455 265 455Z" id="b1M8y5thMK"></path><path d="M265 237.5C251.19 237.5 240 248.69 240 262.5C240 276.31 251.19 287.5 265 287.5C278.81 287.5 290 276.31 290 262.5C290 248.69 278.81 237.5 265 237.5Z" id="a39WRdYHls"></path></defs><g><g><g><use xlink:href="#a3rn8bsSS" opacity="1" fill="#555555" fill-opacity="1"></use><g><use xlink:href="#a3rn8bsSS" opacity="1" fill-opacity="0" stroke="#000000" stroke-width="1" stroke-opacity="0"></use></g></g><g><use xlink:href="#a1M0Fa9IsV" opacity="1" fill="#555555" fill-opacity="1"></use><g><use xlink:href="#a1M0Fa9IsV" opacity="1" fill-opacity="0" stroke="#000000" stroke-width="1" stroke-opacity="0"></use></g></g><g><use xlink:href="#a9HBTNbfE" opacity="1" fill="#555555" fill-opacity="1"></use><g><use xlink:href="#a9HBTNbfE" opacity="1" fill-opacity="0" stroke="#000000" stroke-width="1" stroke-opacity="0"></use></g></g><g><use xlink:href="#b2y2liBkB" opacity="1" fill="#555555" fill-opacity="1"></use><g><use xlink:href="#b2y2liBkB" opacity="1" fill-opacity="0" stroke="#000000" stroke-width="1" stroke-opacity="0"></use></g></g><g><use xlink:href="#ac0l5VcXU" opacity="1" fill="#555555" fill-opacity="1"></use><g><use xlink:href="#ac0l5VcXU" opacity="1" fill-opacity="0" stroke="#000000" stroke-width="1" stroke-opacity="0"></use></g></g><g><use xlink:href="#c2vKXnAT1f" opacity="1" fill="#555555" fill-opacity="1"></use><g><use xlink:href="#c2vKXnAT1f" opacity="1" fill-opacity="0" stroke="#000000" stroke-width="1" stroke-opacity="0"></use></g></g><g><use xlink:href="#bBeCEU7g2" opacity="1" fill="#555555" fill-opacity="1"></use><g><use xlink:href="#bBeCEU7g2" opacity="1" fill-opacity="0" stroke="#000000" stroke-width="1" stroke-opacity="0"></use></g></g><g><use xlink:href="#dxdEqAjm" opacity="1" fill="#555555" fill-opacity="1"></use><g><use xlink:href="#dxdEqAjm" opacity="1" fill-opacity="0" stroke="#000000" stroke-width="1" stroke-opacity="0"></use></g></g><g><use xlink:href="#caCbqUvnG" opacity="1" fill="#555555" fill-opacity="1"></use><g><use xlink:href="#caCbqUvnG" opacity="1" fill-opacity="0" stroke="#000000" stroke-width="1" stroke-opacity="0"></use></g></g><g><use xlink:href="#b1M8y5thMK" opacity="1" fill="#555555" fill-opacity="1"></use><g><use xlink:href="#b1M8y5thMK" opacity="1" fill-opacity="0" stroke="#000000" stroke-width="1" stroke-opacity="0"></use></g></g><g><use xlink:href="#a39WRdYHls" opacity="1" fill="#555555" fill-opacity="1"></use><g><use xlink:href="#a39WRdYHls" opacity="1" fill-opacity="0" stroke="#000000" stroke-width="1" stroke-opacity="0"></use></g></g></g></g></svg>