<svg 
 xmlns="http://www.w3.org/2000/svg"
 xmlns:xlink="http://www.w3.org/1999/xlink"
 width="19.5px" height="26.5px">
<path fill-rule="evenodd"  stroke="rgb(44, 47, 51)" stroke-width="1px" stroke-linecap="butt" stroke-linejoin="miter" opacity="0.831" fill="rgb(51, 51, 51)"
 d="M16.745,25.501 L2.282,25.501 C1.306,25.501 0.512,24.791 0.512,23.918 L0.512,2.075 C0.512,1.202 1.306,0.492 2.281,0.492 L16.745,0.492 C17.721,0.492 18.514,1.202 18.514,2.075 L18.514,23.918 C18.514,24.791 17.721,25.501 16.745,25.501 ZM17.628,2.075 C17.628,1.640 17.232,1.286 16.745,1.286 L2.281,1.286 C1.795,1.286 1.399,1.640 1.399,2.075 L1.399,3.943 L17.628,3.943 L17.628,2.075 ZM17.628,4.472 L1.399,4.472 L1.399,21.011 L17.628,21.011 L17.628,4.472 ZM17.628,21.540 L1.399,21.540 L1.399,23.918 C1.399,24.353 1.795,24.708 2.281,24.708 L16.745,24.708 C17.232,24.708 17.628,24.353 17.628,23.918 L17.628,21.540 ZM9.513,24.489 C8.713,24.489 8.061,23.906 8.061,23.190 C8.061,22.473 8.713,21.891 9.513,21.891 C10.314,21.891 10.965,22.473 10.965,23.190 C10.965,23.906 10.314,24.489 9.513,24.489 ZM9.513,22.419 C9.039,22.419 8.652,22.765 8.652,23.190 C8.652,23.615 9.039,23.960 9.513,23.960 C9.988,23.960 10.374,23.615 10.374,23.190 C10.374,22.765 9.988,22.419 9.513,22.419 ZM6.440,2.483 C6.517,2.483 6.594,2.511 6.649,2.561 C6.703,2.610 6.735,2.678 6.735,2.748 C6.735,2.818 6.703,2.885 6.649,2.935 C6.594,2.984 6.517,3.012 6.440,3.012 C6.362,3.012 6.286,2.984 6.231,2.935 C6.176,2.885 6.144,2.818 6.144,2.748 C6.144,2.678 6.176,2.610 6.231,2.561 C6.286,2.511 6.362,2.483 6.440,2.483 ZM7.504,2.483 L11.523,2.483 C11.686,2.483 11.819,2.602 11.819,2.748 C11.819,2.894 11.686,3.012 11.523,3.012 L7.504,3.012 C7.340,3.012 7.208,2.894 7.208,2.748 C7.208,2.602 7.340,2.483 7.504,2.483 Z"/>
</svg>