<svg 
 xmlns="http://www.w3.org/2000/svg"
 xmlns:xlink="http://www.w3.org/1999/xlink"
 width="25px" height="24px">
<path fill-rule="evenodd"  opacity="0.78" fill="rgb(51, 51, 51)"
 d="M19.229,7.600 C19.229,7.379 19.408,7.200 19.629,7.200 L21.229,7.200 C21.449,7.200 21.628,7.379 21.628,7.600 L21.628,10.000 C21.628,10.221 21.449,10.400 21.229,10.400 L19.629,10.400 C19.408,10.400 19.229,10.221 19.229,10.000 L19.229,7.600 ZM20.029,9.600 L20.829,9.600 L20.829,8.000 L20.029,8.000 L20.029,9.600 ZM19.629,16.800 L21.229,16.800 C21.449,16.800 21.628,16.979 21.628,17.200 L21.628,19.600 C21.628,19.820 21.449,20.000 21.229,20.000 L19.629,20.000 C19.408,20.000 19.229,19.820 19.229,19.600 L19.229,17.200 C19.229,16.979 19.408,16.800 19.629,16.800 ZM20.029,19.200 L20.829,19.200 L20.829,17.600 L20.029,17.600 L20.029,19.200 ZM19.229,12.400 C19.229,12.179 19.408,12.000 19.629,12.000 L21.229,12.000 C21.449,12.000 21.628,12.179 21.628,12.400 L21.628,14.800 C21.628,15.021 21.449,15.200 21.229,15.200 L19.629,15.200 C19.408,15.200 19.229,15.021 19.229,14.800 L19.229,12.400 ZM20.029,14.400 L20.829,14.400 L20.829,12.800 L20.029,12.800 L20.029,14.400 ZM22.828,24.000 L19.629,24.000 C18.967,24.000 18.429,23.461 18.429,22.800 C18.429,22.138 18.967,21.600 19.629,21.600 C19.698,21.600 19.767,21.606 19.834,21.618 C20.110,21.121 20.635,20.800 21.229,20.800 C21.822,20.800 22.347,21.121 22.623,21.618 C22.690,21.606 22.759,21.600 22.828,21.600 C22.969,21.600 23.103,21.629 23.228,21.673 L23.228,5.600 L18.829,5.600 C18.608,5.600 18.429,5.421 18.429,5.200 C18.429,4.979 18.608,4.800 18.829,4.800 L23.628,4.800 C23.849,4.800 24.028,4.979 24.028,5.200 L24.028,22.800 C24.028,23.461 23.490,24.000 22.828,24.000 ZM22.612,22.465 C22.502,22.535 22.365,22.548 22.244,22.499 C22.124,22.451 22.034,22.346 22.005,22.219 C21.921,21.855 21.601,21.600 21.229,21.600 C20.856,21.600 20.536,21.855 20.452,22.219 C20.423,22.346 20.333,22.451 20.213,22.499 C20.092,22.548 19.955,22.535 19.845,22.465 C19.778,22.422 19.705,22.400 19.629,22.400 C19.408,22.400 19.229,22.579 19.229,22.800 C19.229,23.020 19.408,23.200 19.629,23.200 L22.828,23.200 C23.049,23.200 23.228,23.020 23.228,22.800 C23.228,22.503 22.872,22.297 22.612,22.465 ZM17.229,23.200 L6.430,23.200 L6.430,23.600 C6.430,23.820 6.251,24.000 6.030,24.000 C5.809,24.000 5.630,23.820 5.630,23.600 L5.630,22.800 C5.630,22.579 5.809,22.400 6.030,22.400 L17.229,22.400 C17.450,22.400 17.629,22.579 17.629,22.800 C17.629,23.021 17.450,23.200 17.229,23.200 ZM11.229,14.800 C11.229,15.021 11.050,15.200 10.830,15.200 L9.230,15.200 C9.009,15.200 8.830,15.021 8.830,14.800 L8.830,12.400 C8.830,12.179 9.009,12.000 9.230,12.000 L10.830,12.000 C11.050,12.000 11.229,12.179 11.229,12.400 L11.229,14.800 ZM10.430,12.800 L9.630,12.800 L9.630,14.400 L10.430,14.400 L10.430,12.800 ZM10.830,5.600 L9.230,5.600 C9.009,5.600 8.830,5.421 8.830,5.200 L8.830,2.800 C8.830,2.579 9.009,2.400 9.230,2.400 L10.830,2.400 C11.050,2.400 11.229,2.579 11.229,2.800 L11.229,5.200 C11.229,5.421 11.050,5.600 10.830,5.600 ZM10.430,3.200 L9.630,3.200 L9.630,4.800 L10.430,4.800 L10.430,3.200 ZM11.229,10.000 C11.229,10.221 11.050,10.400 10.830,10.400 L9.230,10.400 C9.009,10.400 8.830,10.221 8.830,10.000 L8.830,7.600 C8.830,7.379 9.009,7.200 9.230,7.200 L10.830,7.200 C11.050,7.200 11.229,7.379 11.229,7.600 L11.229,10.000 ZM10.430,8.000 L9.630,8.000 L9.630,9.600 L10.430,9.600 L10.430,8.000 ZM15.229,14.800 C15.229,15.021 15.050,15.200 14.829,15.200 L13.229,15.200 C13.009,15.200 12.829,15.021 12.829,14.800 L12.829,12.400 C12.829,12.179 13.009,12.000 13.229,12.000 L14.829,12.000 C15.050,12.000 15.229,12.179 15.229,12.400 L15.229,14.800 ZM14.429,12.800 L13.629,12.800 L13.629,14.400 L14.429,14.400 L14.429,12.800 ZM14.829,5.600 L13.229,5.600 C13.009,5.600 12.829,5.421 12.829,5.200 L12.829,2.800 C12.829,2.579 13.009,2.400 13.229,2.400 L14.829,2.400 C15.050,2.400 15.229,2.579 15.229,2.800 L15.229,5.200 C15.229,5.421 15.050,5.600 14.829,5.600 ZM14.429,3.200 L13.629,3.200 L13.629,4.800 L14.429,4.800 L14.429,3.200 ZM15.229,10.000 C15.229,10.221 15.050,10.400 14.829,10.400 L13.229,10.400 C13.009,10.400 12.829,10.221 12.829,10.000 L12.829,7.600 C12.829,7.379 13.009,7.200 13.229,7.200 L14.829,7.200 C15.050,7.200 15.229,7.379 15.229,7.600 L15.229,10.000 ZM14.429,8.000 L13.629,8.000 L13.629,9.600 L14.429,9.600 L14.429,8.000 ZM12.313,19.316 C12.385,19.392 12.429,19.496 12.429,19.600 C12.429,19.704 12.385,19.808 12.313,19.884 C12.237,19.956 12.133,20.000 12.029,20.000 C11.926,20.000 11.821,19.956 11.745,19.884 C11.673,19.808 11.630,19.704 11.630,19.600 C11.630,19.496 11.673,19.392 11.745,19.316 C11.897,19.168 12.162,19.168 12.313,19.316 ZM10.030,21.600 C9.809,21.600 9.630,21.421 9.630,21.200 L9.630,17.600 L8.430,17.600 C8.209,17.600 8.030,17.421 8.030,17.200 C8.030,16.979 8.209,16.800 8.430,16.800 L15.629,16.800 C15.850,16.800 16.029,16.979 16.029,17.200 C16.029,17.421 15.850,17.600 15.629,17.600 L14.429,17.600 L14.429,21.200 C14.429,21.421 14.250,21.600 14.029,21.600 C13.809,21.600 13.629,21.421 13.629,21.200 L13.629,17.600 L10.430,17.600 L10.430,21.200 C10.430,21.421 10.250,21.600 10.030,21.600 ZM17.229,21.600 C17.008,21.600 16.829,21.421 16.829,21.200 L16.829,0.800 L7.230,0.800 L7.230,21.200 C7.230,21.421 7.051,21.600 6.830,21.600 C6.609,21.600 6.430,21.421 6.430,21.200 L6.430,0.400 C6.430,0.179 6.609,-0.000 6.830,-0.000 L17.229,-0.000 C17.450,-0.000 17.629,0.179 17.629,0.400 L17.629,21.200 C17.629,21.421 17.450,21.600 17.229,21.600 ZM5.230,5.600 L0.831,5.600 L0.831,13.200 C0.831,13.421 0.651,13.600 0.431,13.600 C0.210,13.600 0.031,13.421 0.031,13.200 L0.031,5.200 C0.031,4.979 0.210,4.800 0.431,4.800 L5.230,4.800 C5.451,4.800 5.630,4.979 5.630,5.200 C5.630,5.421 5.451,5.600 5.230,5.600 ZM2.030,14.400 C4.008,14.400 4.030,19.548 4.030,19.600 C4.030,20.566 3.342,21.373 2.430,21.559 L2.430,23.600 C2.430,23.820 2.251,24.000 2.030,24.000 C1.810,24.000 1.631,23.820 1.631,23.600 L1.631,21.559 C0.719,21.373 0.031,20.566 0.031,19.600 C0.031,19.548 0.054,14.400 2.030,14.400 ZM2.030,20.800 C2.692,20.800 3.230,20.261 3.230,19.600 C3.230,17.607 2.695,15.200 2.030,15.200 C1.366,15.200 0.831,17.607 0.831,19.600 C0.831,20.261 1.369,20.800 2.030,20.800 ZM4.430,10.400 L2.830,10.400 C2.610,10.400 2.430,10.221 2.430,10.000 L2.430,7.600 C2.430,7.379 2.610,7.200 2.830,7.200 L4.430,7.200 C4.651,7.200 4.830,7.379 4.830,7.600 L4.830,10.000 C4.830,10.221 4.651,10.400 4.430,10.400 ZM4.030,8.000 L3.230,8.000 L3.230,9.600 L4.030,9.600 L4.030,9.600 L4.030,8.000 ZM4.030,12.800 L3.230,12.800 L3.230,13.200 C3.230,13.421 3.051,13.600 2.830,13.600 C2.610,13.600 2.430,13.421 2.430,13.200 L2.430,12.400 C2.430,12.179 2.610,12.000 2.830,12.000 L4.430,12.000 C4.651,12.000 4.830,12.179 4.830,12.400 L4.830,14.800 C4.830,15.021 4.651,15.200 4.430,15.200 C4.209,15.200 4.030,15.021 4.030,14.800 L4.030,12.800 Z"/>
</svg>