<svg 
 xmlns="http://www.w3.org/2000/svg"
 xmlns:xlink="http://www.w3.org/1999/xlink"
 width="23px" height="22px">
<path fill-rule="evenodd"  opacity="0.89" fill="rgb(51, 51, 51)"
 d="M21.039,6.453 C22.814,10.338 22.143,14.872 19.398,18.098 C19.383,18.139 19.368,18.181 19.339,18.214 C19.147,18.434 18.982,18.611 18.819,18.774 C18.816,18.776 18.814,18.779 18.812,18.782 C16.661,20.924 13.837,21.996 11.013,21.997 C11.011,21.998 11.009,21.999 11.006,21.999 C11.004,21.999 11.002,21.997 10.999,21.997 C10.995,21.997 10.991,21.997 10.987,21.997 C9.932,21.995 8.877,21.845 7.858,21.544 C7.832,21.537 7.807,21.525 7.781,21.517 C7.466,21.422 7.154,21.316 6.848,21.193 C6.766,21.159 6.687,21.116 6.606,21.081 C6.358,20.974 6.110,20.867 5.869,20.741 C5.687,20.645 5.512,20.532 5.334,20.426 C5.200,20.346 5.062,20.275 4.930,20.188 C4.319,19.787 3.739,19.318 3.201,18.782 C3.036,18.617 2.868,18.437 2.674,18.214 C2.666,18.205 2.664,18.192 2.657,18.183 C-0.910,14.069 -0.909,7.936 2.661,3.824 C2.666,3.816 2.667,3.805 2.674,3.798 C2.867,3.576 3.035,3.396 3.201,3.230 C3.248,3.184 3.302,3.150 3.349,3.104 C3.729,2.739 4.123,2.394 4.541,2.093 C4.792,1.911 5.064,1.770 5.327,1.612 C5.554,1.475 5.771,1.319 6.005,1.201 C6.385,1.007 6.781,0.860 7.178,0.713 C7.307,0.665 7.430,0.599 7.561,0.556 C8.050,0.396 8.550,0.281 9.054,0.190 C9.097,0.183 9.138,0.167 9.181,0.160 C11.385,-0.208 13.693,0.103 15.808,1.124 C15.810,1.125 15.812,1.125 15.814,1.126 C16.473,0.441 17.367,0.009 18.365,0.009 C20.394,0.009 22.044,1.752 22.045,3.895 C22.045,4.652 21.602,5.577 21.039,6.453 ZM20.558,7.160 C20.509,7.227 20.460,7.290 20.410,7.355 C20.392,7.380 20.374,7.403 20.355,7.428 C20.166,7.677 19.978,7.912 19.797,8.128 C19.769,8.163 19.744,8.192 19.716,8.226 C19.544,8.429 19.382,8.616 19.238,8.776 C19.213,8.805 19.195,8.824 19.170,8.851 C19.031,9.006 18.907,9.139 18.816,9.235 C18.809,9.242 18.809,9.242 18.803,9.248 C18.703,9.353 18.637,9.420 18.626,9.431 C18.621,9.436 18.613,9.434 18.608,9.439 C18.540,9.499 18.456,9.540 18.365,9.540 C18.281,9.540 18.207,9.499 18.142,9.447 C18.131,9.438 18.113,9.442 18.103,9.431 C18.078,9.406 17.932,9.254 17.746,9.053 C17.729,9.036 17.717,9.022 17.700,9.004 C17.601,8.897 17.499,8.782 17.374,8.641 C17.343,8.606 17.311,8.568 17.279,8.531 C17.157,8.391 17.038,8.254 16.903,8.091 C17.099,8.923 17.218,9.774 17.243,10.639 L21.275,10.639 C21.234,9.463 21.015,8.285 20.558,7.160 ZM18.907,17.551 C20.383,15.781 21.205,13.607 21.287,11.373 L17.243,11.373 C17.187,13.297 16.698,15.161 15.812,16.857 C16.946,17.029 17.986,17.262 18.907,17.551 ZM15.379,20.286 C15.430,20.263 15.481,20.241 15.531,20.216 C15.991,19.994 16.437,19.733 16.866,19.438 C16.931,19.393 16.994,19.344 17.058,19.297 C17.488,18.987 17.904,18.649 18.291,18.263 C18.292,18.262 18.294,18.261 18.295,18.260 C18.330,18.225 18.356,18.184 18.391,18.148 C17.515,17.893 16.499,17.696 15.420,17.545 C14.859,18.475 14.190,19.354 13.393,20.148 C12.995,20.545 12.624,20.883 12.261,21.180 C13.332,21.050 14.384,20.748 15.379,20.286 ZM11.374,20.939 C11.856,20.585 12.336,20.164 12.873,19.630 C13.548,18.957 14.126,18.220 14.622,17.442 C13.582,17.327 12.490,17.260 11.374,17.248 L11.374,20.939 ZM11.374,16.516 C12.652,16.530 13.883,16.611 15.042,16.753 C15.951,15.098 16.448,13.265 16.507,11.373 L11.374,11.373 L11.374,16.516 ZM16.507,10.639 C16.454,8.927 16.024,7.268 15.274,5.741 C15.226,5.650 15.184,5.562 15.140,5.471 C15.102,5.399 15.049,5.334 15.010,5.262 C13.837,5.405 12.618,5.483 11.374,5.496 L11.374,10.639 L16.507,10.639 ZM9.594,0.852 C9.207,0.906 8.824,0.989 8.445,1.086 C8.293,1.125 8.140,1.156 7.991,1.202 C7.616,1.316 7.252,1.464 6.891,1.621 C6.744,1.685 6.593,1.737 6.450,1.808 C6.089,1.986 5.744,2.201 5.403,2.422 C5.275,2.505 5.140,2.572 5.015,2.661 C4.561,2.985 4.127,3.345 3.721,3.749 C3.684,3.786 3.654,3.826 3.618,3.863 C4.495,4.118 5.512,4.316 6.594,4.467 C7.152,3.536 7.822,2.658 8.619,1.863 C9.017,1.467 9.386,1.133 9.748,0.837 C9.697,0.843 9.645,0.845 9.594,0.852 ZM14.917,2.571 C14.931,2.531 14.947,2.492 14.962,2.452 C15.062,2.189 15.181,1.934 15.334,1.698 C15.336,1.696 15.336,1.694 15.337,1.693 C14.338,1.230 13.293,0.944 12.239,0.816 C12.610,1.117 12.987,1.459 13.393,1.864 C13.884,2.353 14.319,2.878 14.720,3.421 C14.720,3.420 14.720,3.420 14.720,3.419 C14.754,3.128 14.822,2.845 14.917,2.571 ZM12.873,2.382 C12.336,1.848 11.856,1.427 11.374,1.073 L11.374,4.764 C12.469,4.752 13.545,4.692 14.585,4.577 C14.095,3.801 13.546,3.053 12.873,2.382 ZM10.638,11.373 L5.505,11.373 C5.564,13.268 6.063,15.104 6.975,16.761 C8.136,16.621 9.360,16.530 10.638,16.516 L10.638,11.373 ZM10.638,10.639 L10.638,5.496 C9.363,5.483 8.134,5.402 6.977,5.260 C6.071,6.916 5.564,8.747 5.505,10.639 L10.638,10.639 ZM10.638,4.764 L10.638,1.073 C10.156,1.427 9.676,1.848 9.140,2.382 C8.464,3.055 7.889,3.792 7.394,4.570 C8.433,4.685 9.523,4.751 10.638,4.764 ZM10.638,17.248 C9.522,17.260 8.436,17.336 7.395,17.450 C7.890,18.224 8.466,18.959 9.140,19.630 C9.676,20.165 10.156,20.585 10.638,20.939 L10.638,17.248 ZM3.715,18.258 C3.717,18.259 3.719,18.261 3.721,18.263 C4.109,18.649 4.525,18.987 4.955,19.298 C5.018,19.344 5.080,19.392 5.144,19.437 C5.575,19.733 6.024,19.995 6.486,20.219 C6.530,20.240 6.575,20.259 6.619,20.280 C7.617,20.744 8.672,21.046 9.747,21.176 C9.385,20.880 9.016,20.543 8.619,20.148 C7.822,19.354 7.153,18.475 6.593,17.545 C5.509,17.694 4.495,17.893 3.617,18.149 C3.651,18.184 3.681,18.223 3.715,18.258 ZM3.081,17.558 C4.007,17.265 5.055,17.028 6.200,16.857 C5.315,15.160 4.826,13.297 4.770,11.373 L0.726,11.373 C0.805,13.580 1.585,15.764 3.081,17.558 ZM4.770,10.639 C4.826,8.715 5.326,6.854 6.208,5.156 C5.061,4.983 4.006,4.748 3.080,4.453 C1.586,6.247 0.805,8.432 0.726,10.639 L4.770,10.639 ZM18.365,0.742 C17.436,0.742 16.616,1.215 16.076,1.938 C16.010,2.027 15.943,2.115 15.886,2.210 C15.841,2.285 15.805,2.366 15.767,2.445 C15.721,2.539 15.672,2.632 15.636,2.730 C15.598,2.829 15.573,2.935 15.546,3.040 C15.523,3.124 15.494,3.207 15.478,3.294 C15.443,3.488 15.422,3.688 15.422,3.893 C15.422,3.894 15.422,3.894 15.422,3.895 C15.422,3.907 15.427,3.922 15.427,3.934 C15.431,4.063 15.457,4.204 15.492,4.349 C15.506,4.405 15.528,4.467 15.547,4.527 C15.590,4.659 15.633,4.792 15.694,4.932 C15.782,5.095 15.858,5.262 15.939,5.428 C16.410,6.295 17.123,7.221 17.741,7.944 C17.770,7.977 17.799,8.013 17.828,8.045 C18.020,8.267 18.205,8.473 18.364,8.643 C18.674,8.311 19.218,7.704 19.755,7.003 C19.831,6.904 19.902,6.800 19.977,6.699 C20.069,6.572 20.162,6.446 20.251,6.315 C20.843,5.447 21.309,4.552 21.309,3.895 C21.309,2.156 19.988,0.742 18.365,0.742 ZM18.365,5.508 C17.351,5.508 16.525,4.685 16.525,3.675 C16.525,2.664 17.351,1.842 18.365,1.842 C19.380,1.842 20.205,2.664 20.205,3.675 C20.205,4.685 19.380,5.508 18.365,5.508 ZM18.365,2.575 C17.757,2.575 17.261,3.069 17.261,3.675 C17.261,4.281 17.757,4.775 18.365,4.775 C18.974,4.775 19.469,4.281 19.469,3.675 C19.469,3.069 18.974,2.575 18.365,2.575 Z"/>
</svg>