<svg xmlns="http://www.w3.org/2000/svg" width="28" height="28">
    <path fill="#8A8A8F" fill-rule="evenodd" d="M16.946 18.088a9.341 9.341 0 0 1-6.011 2.178c-5.176 0-9.372-4.188-9.372-9.35 0-5.164 4.196-9.35 9.372-9.35 5.175 0 9.37 4.186 9.37 9.35a9.293 9.293 0 0 1-2.181 5.997l-1.178 1.175zm2.72-.607a10.842 10.842 0 0 0 2.201-6.565c0-6.027-4.895-10.909-10.932-10.909C4.897.007.002 4.889.002 10.916c0 6.025 4.895 10.909 10.933 10.909 2.44 0 4.694-.799 6.513-2.147l8.34 8.32 2.209-2.201-8.331-8.316z"/>
</svg>
