<svg height="512pt" viewBox="-20 0 512 512" width="512pt" xmlns="http://www.w3.org/2000/svg" xmlns:xlink="http://www.w3.org/1999/xlink"><linearGradient id="a" gradientUnits="userSpaceOnUse" x1="-.000268" x2="471.999732" y1="256" y2="256"><stop offset="1" stop-color="#555555"/></linearGradient><path d="m468.734375 405.085938-52.753906-81.023438v-144.0625c0-99.253906-80.738281-180-179.980469-180s-179.980469 80.746094-179.980469 180v144.0625l-52.753906 81.023438c-8.652344 13.285156.90625 30.914062 16.757813 30.914062h122.085937c9.226563 43.367188 47.816406 76 93.890625 76s84.664062-32.632812 93.890625-76h122.085937c15.855469 0 25.40625-17.632812 16.757813-30.914062zm-372.71875-225.085938c0-77.195312 62.796875-140 139.984375-140 77.191406 0 139.988281 62.804688 139.988281 140v130h-279.972656zm139.984375 292c-23.832031 0-44.238281-14.96875-52.304688-36h104.609376c-8.066407 21.03125-28.472657 36-52.304688 36zm-179.09375-76 29.953125-46h298.28125l29.949219 46c-44.097656 0-322.722656 0-358.183594 0zm0 0" fill="url(#a)"/></svg>