<?xml version="1.0" encoding="UTF-8" standalone="no"?>
<!DOCTYPE svg PUBLIC "-//W3C//DTD SVG 1.1//EN" "http://www.w3.org/Graphics/SVG/1.1/DTD/svg11.dtd">
<svg version="1.1" xmlns="http://www.w3.org/2000/svg" xmlns:xlink="http://www.w3.org/1999/xlink" preserveAspectRatio="xMidYMid meet" viewBox="0 0 640 640" width="640" height="640"><defs><path d="M112.16 197.93L112.16 39.59L316.72 39.59L316.72 92.37L514.65 92.37L514.65 197.93L567.39 197.93L567.39 0L640 0L640 640L567.39 640L567.39 521.24L66.01 521.24L66.01 640L0 640L0 0L66.01 0L66.01 197.93L112.16 197.93ZM587.22 620.17L620.17 620.17L620.17 19.83L587.22 19.83L587.22 620.17ZM19.83 620.17L46.18 620.17L46.18 19.83L19.83 19.83L19.83 620.17ZM66.01 501.42L567.39 501.42L567.39 481.66L66.01 481.66L66.01 501.42ZM343.11 461.83L508.01 461.83L508.01 323.32L461.87 323.32L461.87 402.49L389.26 402.49L389.26 323.32L343.11 323.32L343.11 461.83ZM66.01 461.83L125.36 461.83L125.36 356.27L323.28 356.27L323.28 303.49L527.84 303.49L527.84 461.83L567.39 461.83L567.39 257.34L66.01 257.34L66.01 461.83ZM145.18 461.83L323.28 461.83L323.28 376.1L145.18 376.1L145.18 461.83ZM409.09 382.66L442.04 382.66L442.04 323.32L409.09 323.32L409.09 382.66ZM66.01 237.51L567.39 237.51L567.39 217.75L66.01 217.75L66.01 237.51ZM131.99 197.93L296.89 197.93L296.89 59.41L250.74 59.41L250.74 138.58L178.14 138.58L178.14 59.41L131.99 59.41L131.99 197.93ZM316.72 197.93L494.82 197.93L494.82 112.19L316.72 112.19L316.72 197.93ZM197.96 118.76L230.92 118.76L230.92 59.41L197.96 59.41L197.96 118.76Z" id="d2nVsi9yy"></path><path d="M471.74 145.15C471.74 145.15 471.74 145.15 471.74 145.15C471.74 157.04 471.74 163.65 471.74 164.97C471.74 164.97 471.74 164.97 471.74 164.97C447.99 164.97 434.8 164.97 432.16 164.97C432.16 164.97 432.16 164.97 432.16 164.97C432.16 153.08 432.16 146.47 432.16 145.15C432.16 145.15 432.16 145.15 432.16 145.15C455.91 145.15 469.11 145.15 471.74 145.15Z" id="a2ZPdRG0uZ"></path><path d="M418.96 145.15C418.96 145.15 418.96 145.15 418.96 145.15C418.96 157.04 418.96 163.65 418.96 164.97C418.96 164.97 418.96 164.97 418.96 164.97C379.38 164.97 357.39 164.97 352.99 164.97C352.99 164.97 352.99 164.97 352.99 164.97C352.99 153.08 352.99 146.47 352.99 145.15C352.99 145.15 352.99 145.15 352.99 145.15C392.57 145.15 414.56 145.15 418.96 145.15Z" id="a3K6N1ZyEA"></path><path d="M300.21 409.05C300.21 409.05 300.21 409.05 300.21 409.05C300.21 420.95 300.21 427.55 300.21 428.88C300.21 428.88 300.21 428.88 300.21 428.88C276.46 428.88 263.26 428.88 260.62 428.88C260.62 428.88 260.62 428.88 260.62 428.88C260.62 416.98 260.62 410.37 260.62 409.05C260.62 409.05 260.62 409.05 260.62 409.05C284.37 409.05 297.57 409.05 300.21 409.05Z" id="eluhG5YvI"></path><path d="M247.43 409.05C247.43 409.05 247.43 409.05 247.43 409.05C247.43 420.95 247.43 427.55 247.43 428.88C247.43 428.88 247.43 428.88 247.43 428.88C207.84 428.88 185.85 428.88 181.45 428.88C181.45 428.88 181.45 428.88 181.45 428.88C181.45 416.98 181.45 410.37 181.45 409.05C181.45 409.05 181.45 409.05 181.45 409.05C221.04 409.05 243.03 409.05 247.43 409.05Z" id="eMUPxNej"></path></defs><g><g><g><use xlink:href="#d2nVsi9yy" opacity="1" fill="#ffffff" fill-opacity="1"></use><g><use xlink:href="#d2nVsi9yy" opacity="1" fill-opacity="0" stroke="#000000" stroke-width="1" stroke-opacity="0"></use></g></g><g><use xlink:href="#a2ZPdRG0uZ" opacity="1" fill="#ffffff" fill-opacity="1"></use><g><use xlink:href="#a2ZPdRG0uZ" opacity="1" fill-opacity="0" stroke="#000000" stroke-width="1" stroke-opacity="0"></use></g></g><g><use xlink:href="#a3K6N1ZyEA" opacity="1" fill="#ffffff" fill-opacity="1"></use><g><use xlink:href="#a3K6N1ZyEA" opacity="1" fill-opacity="0" stroke="#000000" stroke-width="1" stroke-opacity="0"></use></g></g><g><use xlink:href="#eluhG5YvI" opacity="1" fill="#ffffff" fill-opacity="1"></use><g><use xlink:href="#eluhG5YvI" opacity="1" fill-opacity="0" stroke="#000000" stroke-width="1" stroke-opacity="0"></use></g></g><g><use xlink:href="#eMUPxNej" opacity="1" fill="#ffffff" fill-opacity="1"></use><g><use xlink:href="#eMUPxNej" opacity="1" fill-opacity="0" stroke="#000000" stroke-width="1" stroke-opacity="0"></use></g></g></g></g></svg>