<?xml version="1.0" encoding="UTF-8" standalone="no"?>
<!DOCTYPE svg PUBLIC "-//W3C//DTD SVG 1.1//EN" "http://www.w3.org/Graphics/SVG/1.1/DTD/svg11.dtd">
<svg version="1.1" xmlns="http://www.w3.org/2000/svg" xmlns:xlink="http://www.w3.org/1999/xlink" preserveAspectRatio="xMidYMid meet" viewBox="0 0 640 640" width="640" height="640"><defs><path d="M93.87 319.79L94.52 319.87L95.16 319.99L95.8 320.15L96.42 320.33L97.04 320.55L97.64 320.8L98.23 321.08L98.81 321.4L99.36 321.74L99.9 322.11L100.43 322.5L100.92 322.93L101.4 323.38L101.85 323.86L102.28 324.36L102.68 324.88L103.05 325.42L103.39 325.97L103.7 326.55L103.98 327.14L104.23 327.74L104.45 328.36L104.63 328.99L104.79 329.62L104.91 330.26L105 330.91L105.05 331.57L105.07 332.22L105.05 332.88L105 333.54L104.91 334.19L104.79 334.83L104.63 335.47L104.45 336.09L104.23 336.71L103.98 337.31L103.7 337.9L103.39 338.48L103.05 339.04L102.68 339.58L102.28 340.1L101.85 340.6L101.4 341.08L100.92 341.53L100.43 341.96L99.9 342.35L99.36 342.72L98.81 343.06L98.23 343.37L97.64 343.65L97.04 343.9L96.42 344.12L95.8 344.3L95.16 344.45L94.52 344.57L93.87 344.66L93.22 344.71L92.56 344.73L91.9 344.71L91.25 344.66L90.6 344.57L89.96 344.45L89.32 344.3L88.69 344.12L88.08 343.9L87.48 343.65L86.89 343.37L86.31 343.06L85.75 342.72L85.21 342.35L84.69 341.96L84.19 341.53L83.71 341.08L83.26 340.6L82.84 340.1L82.44 339.58L82.07 339.04L81.73 338.48L81.42 337.91L81.14 337.32L80.89 336.71L80.67 336.1L80.48 335.47L80.33 334.83L80.21 334.19L80.12 333.54L80.07 332.88L80.05 332.22L80.07 331.57L80.12 330.91L80.21 330.26L80.33 329.62L80.48 328.99L80.67 328.36L80.89 327.74L81.14 327.14L81.42 326.55L81.73 325.97L82.07 325.42L82.44 324.88L82.84 324.36L83.26 323.86L83.71 323.38L84.19 322.93L84.69 322.5L85.21 322.11L85.75 321.74L86.31 321.4L86.89 321.08L87.48 320.8L88.08 320.55L88.69 320.33L89.32 320.15L89.96 319.99L90.6 319.87L91.25 319.79L91.9 319.73L92.56 319.71L93.22 319.73L93.87 319.79Z" id="a1cN3Yihjk"></path><path d="M320.83 0.02L321.14 0.04L321.45 0.06L321.76 0.1L322.07 0.14L322.38 0.19L322.69 0.25L323 0.32L323.3 0.39L323.61 0.47L323.91 0.56L324.21 0.66L324.51 0.77L324.81 0.88L325.1 1L325.4 1.13L325.68 1.27L325.97 1.41L326.26 1.56L432.06 60.06L432.51 60.32L432.94 60.59L433.35 60.88L433.76 61.18L434.14 61.5L434.51 61.83L434.87 62.17L435.21 62.53L435.54 62.9L435.84 63.27L436.14 63.66L436.41 64.06L436.67 64.47L436.92 64.89L437.15 65.31L437.36 65.75L437.55 66.19L437.73 66.63L437.89 67.09L438.03 67.54L438.15 68.01L438.26 68.48L438.35 68.95L438.42 69.42L438.47 69.9L438.5 70.38L438.52 70.87L438.51 71.35L438.49 71.84L438.45 72.32L438.39 72.81L438.31 73.29L438.21 73.77L438.09 74.25L437.95 74.73L437.79 75.2L437.61 75.67L437.42 76.14L437.2 76.6L436.96 77.06L436.7 77.5L436.42 77.93L436.13 78.35L435.83 78.75L435.51 79.14L435.18 79.51L434.84 79.87L434.48 80.21L434.12 80.53L433.74 80.84L433.35 81.13L432.95 81.41L432.54 81.67L432.13 81.92L431.7 82.14L431.27 82.35L430.83 82.55L430.38 82.72L429.93 82.88L429.47 83.02L429.01 83.15L428.54 83.25L428.07 83.34L427.59 83.41L427.11 83.47L426.63 83.5L426.15 83.51L425.66 83.51L425.18 83.49L424.69 83.45L424.21 83.39L423.73 83.31L423.24 83.21L422.76 83.09L422.29 82.95L421.81 82.79L421.34 82.61L420.88 82.41L420.41 82.19L419.96 81.95L320.2 26.8L25.02 189.99L25.02 615.39L80.05 615.39L80.05 382.26L80.06 381.74L80.09 381.23L80.14 380.73L80.21 380.23L80.3 379.74L80.41 379.25L80.54 378.78L80.69 378.31L80.85 377.84L81.03 377.39L81.23 376.95L81.45 376.51L81.68 376.09L81.92 375.67L82.19 375.27L82.46 374.87L82.76 374.49L83.06 374.12L83.38 373.76L83.71 373.41L84.06 373.08L84.42 372.76L84.79 372.46L85.17 372.16L85.56 371.89L85.97 371.63L86.38 371.38L86.81 371.15L87.25 370.93L87.69 370.73L88.14 370.55L88.6 370.39L89.07 370.24L89.55 370.11L90.04 370.01L90.53 369.91L91.03 369.84L91.53 369.79L92.04 369.76L92.56 369.75L93.07 369.76L93.58 369.79L94.09 369.84L94.59 369.91L95.08 370.01L95.56 370.11L96.04 370.24L96.51 370.39L96.97 370.55L97.43 370.73L97.87 370.93L98.31 371.15L98.73 371.38L99.15 371.63L99.55 371.89L99.95 372.16L100.33 372.46L100.7 372.76L101.06 373.08L101.4 373.41L101.74 373.76L102.06 374.12L102.36 374.49L102.65 374.87L102.93 375.27L103.19 375.67L103.44 376.09L103.67 376.51L103.89 376.95L104.08 377.39L104.26 377.84L104.43 378.31L104.57 378.78L104.7 379.25L104.81 379.74L104.9 380.23L104.97 380.73L105.02 381.23L105.06 381.74L105.07 382.26L105.07 615.39L157.6 615.39L157.6 490.31L157.62 489.28L157.68 488.26L157.79 487.25L157.93 486.26L158.11 485.28L158.33 484.31L158.58 483.35L158.88 482.41L159.21 481.49L159.57 480.58L159.97 479.69L160.4 478.82L160.86 477.97L161.35 477.14L161.88 476.33L162.43 475.55L163.02 474.78L163.63 474.04L164.27 473.32L164.94 472.63L165.63 471.96L166.34 471.32L167.09 470.71L167.85 470.13L168.64 469.57L169.45 469.05L170.28 468.55L171.13 468.09L172 467.66L172.89 467.26L173.79 466.9L174.72 466.57L175.66 466.28L176.61 466.02L177.58 465.8L178.56 465.62L179.56 465.48L180.57 465.38L181.59 465.32L182.62 465.29L232.81 465.29L232.81 340.22L232.83 339.19L232.89 338.17L232.99 337.16L233.14 336.16L233.32 335.18L233.54 334.21L233.79 333.26L234.09 332.32L234.41 331.39L234.78 330.49L235.17 329.6L235.6 328.73L236.07 327.88L236.56 327.05L237.09 326.24L237.64 325.45L238.22 324.69L238.84 323.95L239.48 323.23L240.14 322.54L240.83 321.87L241.55 321.23L242.29 320.62L243.06 320.03L243.85 319.48L244.65 318.95L245.49 318.46L246.34 318L247.21 317.57L248.09 317.17L249 316.81L249.92 316.48L250.86 316.18L251.82 315.93L252.79 315.71L253.77 315.53L254.77 315.39L255.77 315.28L256.79 315.22L257.82 315.2L382.9 315.2L383.93 315.22L384.95 315.28L385.96 315.39L386.96 315.53L387.94 315.71L388.91 315.93L389.86 316.18L390.8 316.48L391.72 316.81L392.63 317.17L393.52 317.57L394.39 318L395.24 318.46L396.07 318.95L396.88 319.48L397.67 320.03L398.43 320.62L399.17 321.23L399.89 321.87L400.58 322.54L401.25 323.23L401.89 323.95L402.5 324.69L403.09 325.45L403.64 326.24L404.17 327.05L404.66 327.88L405.12 328.73L405.55 329.6L405.95 330.49L406.31 331.39L406.64 332.32L406.93 333.26L407.19 334.21L407.41 335.18L407.59 336.16L407.73 337.16L407.84 338.17L407.9 339.19L407.92 340.22L407.92 465.29L457.95 465.29L458.98 465.32L460 465.38L461.01 465.48L462 465.62L462.99 465.8L463.95 466.02L464.91 466.28L465.85 466.57L466.77 466.9L467.68 467.26L468.57 467.66L469.44 468.09L470.29 468.55L471.12 469.05L471.93 469.57L472.71 470.13L473.48 470.71L474.22 471.32L474.94 471.96L475.63 472.63L476.3 473.32L476.94 474.04L477.55 474.78L478.13 475.55L478.69 476.33L479.21 477.14L479.71 477.97L480.17 478.82L480.6 479.69L481 480.58L481.36 481.49L481.69 482.41L481.98 483.35L482.24 484.31L482.46 485.28L482.64 486.26L482.78 487.25L482.88 488.26L482.95 489.28L482.97 490.31L482.97 615.39L535.34 615.39L535.34 235.15L105.07 235.15L105.07 282.2L105.06 282.71L105.02 283.22L104.97 283.73L104.9 284.23L104.81 284.72L104.7 285.2L104.57 285.68L104.43 286.15L104.26 286.61L104.08 287.06L103.89 287.51L103.67 287.94L103.44 288.37L103.19 288.78L102.93 289.19L102.65 289.58L102.36 289.97L102.06 290.34L101.74 290.69L101.4 291.04L101.06 291.37L100.7 291.69L100.33 292L99.95 292.29L99.55 292.57L99.15 292.83L98.73 293.08L98.31 293.31L97.87 293.52L97.43 293.72L96.97 293.9L96.51 294.07L96.04 294.21L95.56 294.34L95.08 294.45L94.59 294.54L94.09 294.61L93.58 294.66L93.07 294.69L92.56 294.7L92.04 294.69L91.53 294.66L91.03 294.61L90.53 294.54L90.04 294.45L89.55 294.34L89.07 294.21L88.6 294.07L88.14 293.9L87.69 293.72L87.25 293.52L86.81 293.31L86.38 293.08L85.97 292.83L85.56 292.57L85.17 292.29L84.79 292L84.42 291.69L84.06 291.37L83.71 291.04L83.38 290.69L83.06 290.34L82.76 289.97L82.46 289.58L82.19 289.19L81.92 288.78L81.68 288.37L81.45 287.94L81.23 287.51L81.03 287.06L80.85 286.61L80.69 286.15L80.54 285.68L80.41 285.2L80.3 284.72L80.21 284.23L80.14 283.73L80.09 283.22L80.06 282.71L80.05 282.2L80.05 222.64L80.06 222.13L80.09 221.62L80.14 221.11L80.21 220.61L80.3 220.12L80.41 219.64L80.54 219.16L80.69 218.69L80.85 218.23L81.03 217.77L81.23 217.33L81.45 216.89L81.68 216.47L81.92 216.05L82.19 215.65L82.46 215.25L82.76 214.87L83.06 214.5L83.38 214.14L83.71 213.8L84.06 213.46L84.42 213.14L84.79 212.84L85.17 212.55L85.56 212.27L85.97 212.01L86.38 211.76L86.81 211.53L87.25 211.32L87.69 211.12L88.14 210.94L88.6 210.77L89.07 210.63L89.55 210.5L90.04 210.39L90.53 210.3L91.03 210.23L91.53 210.18L92.04 210.14L92.56 210.13L547.85 210.13L548.36 210.14L548.87 210.18L549.38 210.23L549.87 210.3L550.37 210.39L550.85 210.5L551.33 210.63L551.8 210.77L552.26 210.94L552.71 211.12L553.16 211.32L553.59 211.53L554.02 211.76L554.43 212.01L554.84 212.27L555.23 212.55L555.62 212.84L555.99 213.14L556.34 213.46L556.69 213.8L557.02 214.14L557.34 214.5L557.65 214.87L557.94 215.25L558.22 215.65L558.48 216.05L558.73 216.47L558.96 216.89L559.17 217.33L559.37 217.77L559.55 218.23L559.72 218.69L559.86 219.16L559.99 219.64L560.1 220.12L560.19 220.61L560.26 221.11L560.31 221.62L560.34 222.13L560.35 222.64L560.35 615.39L615.39 615.39L615.39 189.99L507.53 130.37L507.09 130.11L506.65 129.83L506.24 129.55L505.84 129.24L505.45 128.92L505.08 128.59L504.72 128.25L504.38 127.9L504.06 127.53L503.75 127.15L503.45 126.76L503.18 126.36L502.92 125.96L502.67 125.54L502.45 125.11L502.24 124.68L502.04 124.24L501.87 123.79L501.71 123.34L501.56 122.88L501.44 122.42L501.33 121.95L501.25 121.48L501.18 121L501.12 120.52L501.09 120.04L501.07 119.56L501.08 119.07L501.1 118.59L501.14 118.1L501.2 117.62L501.28 117.14L501.38 116.65L501.5 116.17L501.64 115.7L501.8 115.22L501.98 114.75L502.18 114.29L502.4 113.82L502.64 113.37L502.9 112.92L503.17 112.49L503.46 112.07L503.76 111.67L504.08 111.29L504.41 110.91L504.75 110.56L505.11 110.22L505.47 109.89L505.85 109.58L506.24 109.29L506.64 109.01L507.05 108.75L507.46 108.51L507.89 108.28L508.32 108.07L508.76 107.88L509.21 107.7L509.66 107.54L510.12 107.4L510.59 107.28L511.05 107.17L511.53 107.08L512 107.01L512.48 106.96L512.96 106.92L513.45 106.91L513.93 106.91L514.41 106.93L514.9 106.98L515.38 107.04L515.87 107.12L516.35 107.22L516.83 107.34L517.31 107.47L517.78 107.63L518.25 107.81L518.72 108.01L519.18 108.23L519.63 108.47L633.95 171.67L634.25 171.84L634.54 172.02L634.82 172.2L635.1 172.39L635.37 172.59L635.64 172.79L635.9 173L636.15 173.22L636.4 173.44L636.64 173.67L636.87 173.9L637.1 174.15L637.32 174.39L637.54 174.64L637.74 174.9L637.94 175.16L638.14 175.43L638.32 175.7L638.5 175.98L638.67 176.26L638.83 176.55L638.99 176.84L639.14 177.13L639.28 177.43L639.41 177.73L639.54 178.04L639.65 178.35L639.76 178.66L639.86 178.98L639.96 179.29L640.04 179.62L640.12 179.94L640.18 180.27L640.24 180.6L640.29 180.93L640.33 181.26L640.36 181.6L640.39 181.94L640.4 182.28L640.4 182.62L640.4 627.9L640.39 628.41L640.36 628.92L640.31 629.43L640.24 629.93L640.15 630.42L640.04 630.9L639.91 631.38L639.77 631.85L639.6 632.31L639.42 632.77L639.22 633.21L639.01 633.65L638.78 634.07L638.53 634.49L638.27 634.89L637.99 635.28L637.7 635.67L637.39 636.04L637.07 636.4L636.74 636.74L636.4 637.08L636.04 637.39L635.67 637.7L635.28 637.99L634.89 638.27L634.49 638.53L634.07 638.78L633.64 639.01L633.21 639.22L632.77 639.42L632.31 639.6L631.85 639.77L631.38 639.91L630.9 640.04L630.42 640.15L629.93 640.24L629.43 640.31L628.92 640.36L628.41 640.4L627.9 640.41L12.51 640.41L11.99 640.4L11.48 640.36L10.98 640.31L10.48 640.24L9.99 640.15L9.5 640.04L9.02 639.91L8.55 639.77L8.09 639.6L7.64 639.42L7.19 639.22L6.76 639.01L6.33 638.78L5.92 638.53L5.51 638.27L5.12 637.99L4.74 637.7L4.37 637.39L4.01 637.08L3.66 636.74L3.33 636.4L3.01 636.04L2.7 635.67L2.41 635.28L2.14 634.89L1.87 634.49L1.63 634.07L1.4 633.65L1.18 633.21L0.98 632.77L0.8 632.31L0.64 631.85L0.49 631.38L0.36 630.9L0.25 630.42L0.16 629.93L0.09 629.43L0.04 628.92L0.01 628.41L0 627.9L0 182.62L0 182.28L0.02 181.94L0.04 181.6L0.07 181.26L0.11 180.93L0.16 180.6L0.22 180.27L0.29 179.94L0.36 179.62L0.45 179.29L0.54 178.98L0.64 178.66L0.75 178.35L0.87 178.04L0.99 177.73L1.13 177.43L1.27 177.13L1.41 176.84L1.57 176.55L1.73 176.26L1.9 175.98L2.08 175.7L2.27 175.43L2.46 175.16L2.66 174.9L2.87 174.64L3.08 174.39L3.3 174.15L3.53 173.9L3.77 173.67L4.01 173.44L4.25 173.22L4.51 173L4.77 172.79L5.03 172.59L5.31 172.39L5.58 172.2L5.87 172.02L6.16 171.84L6.45 171.67L314.15 1.56L314.43 1.41L314.72 1.27L315.01 1.13L315.3 1L315.6 0.88L315.89 0.77L316.19 0.66L316.49 0.56L316.8 0.47L317.1 0.39L317.41 0.32L317.71 0.25L318.02 0.19L318.33 0.14L318.64 0.1L318.95 0.06L319.26 0.04L319.58 0.02L319.89 0L320.2 0L320.51 0L320.83 0.02ZM182.62 615.39L307.71 615.39L307.69 490.31L282.84 490.31L282.84 527.83L282.83 528.35L282.8 528.86L282.75 529.37L282.68 529.86L282.59 530.36L282.48 530.84L282.35 531.32L282.2 531.79L282.04 532.25L281.86 532.7L281.66 533.15L281.44 533.58L281.21 534.01L280.96 534.42L280.7 534.83L280.43 535.22L280.13 535.6L279.83 535.97L279.51 536.33L279.17 536.68L278.83 537.01L278.47 537.33L278.1 537.64L277.72 537.93L277.32 538.21L276.92 538.47L276.5 538.72L276.08 538.95L275.64 539.16L275.2 539.36L274.75 539.54L274.28 539.7L273.81 539.85L273.34 539.98L272.85 540.09L272.36 540.18L271.86 540.25L271.36 540.3L270.85 540.33L270.33 540.34L220.3 540.34L219.78 540.33L219.27 540.3L218.77 540.25L218.27 540.18L217.78 540.09L217.29 539.98L216.82 539.85L216.35 539.7L215.88 539.54L215.43 539.36L214.99 539.16L214.55 538.95L214.13 538.72L213.71 538.47L213.31 538.21L212.91 537.93L212.53 537.64L212.16 537.33L211.8 537.01L211.46 536.68L211.12 536.33L210.8 535.97L210.5 535.6L210.21 535.22L209.93 534.83L209.67 534.42L209.42 534.01L209.19 533.58L208.97 533.15L208.78 532.7L208.59 532.25L208.43 531.79L208.28 531.32L208.16 530.84L208.05 530.36L207.96 529.86L207.89 529.37L207.83 528.86L207.8 528.35L207.79 527.83L207.79 490.31L182.62 490.31L182.62 615.39ZM332.87 615.39L457.96 615.39L457.95 490.31L432.93 490.31L432.93 527.83L432.92 528.35L432.89 528.86L432.84 529.37L432.77 529.86L432.68 530.36L432.57 530.84L432.44 531.32L432.3 531.79L432.13 532.25L431.95 532.7L431.75 533.15L431.54 533.58L431.31 534.01L431.06 534.42L430.8 534.83L430.52 535.22L430.23 535.6L429.92 535.97L429.6 536.33L429.27 536.68L428.92 537.01L428.56 537.33L428.19 537.64L427.81 537.93L427.42 538.21L427.01 538.47L426.6 538.72L426.17 538.95L425.74 539.16L425.29 539.36L424.84 539.54L424.38 539.7L423.91 539.85L423.43 539.98L422.95 540.09L422.45 540.18L421.96 540.25L421.45 540.3L420.94 540.33L420.43 540.34L370.39 540.34L369.88 540.33L369.37 540.3L368.86 540.25L368.37 540.18L367.87 540.09L367.39 539.98L366.91 539.85L366.44 539.7L365.98 539.54L365.53 539.36L365.08 539.16L364.65 538.95L364.22 538.72L363.81 538.47L363.4 538.21L363.01 537.93L362.63 537.64L362.25 537.33L361.9 537.01L361.55 536.68L361.22 536.33L360.9 535.97L360.59 535.6L360.3 535.22L360.02 534.83L359.76 534.42L359.51 534.01L359.28 533.58L359.07 533.15L358.87 532.7L358.69 532.25L358.52 531.79L358.38 531.32L358.25 530.84L358.14 530.36L358.05 529.86L357.98 529.37L357.93 528.86L357.9 528.35L357.89 527.83L357.89 490.31L332.87 490.31L332.87 615.39ZM382.9 515.33L407.92 515.33L407.92 490.31L382.9 490.31L382.9 515.33ZM232.81 515.33L257.82 515.33L257.82 490.31L232.81 490.31L232.81 515.33ZM257.82 465.29L382.92 465.29L382.9 340.22L357.73 340.22L357.73 377.74L357.72 378.26L357.68 378.77L357.63 379.27L357.56 379.77L357.47 380.26L357.36 380.75L357.23 381.22L357.09 381.69L356.92 382.16L356.74 382.61L356.54 383.05L356.33 383.49L356.1 383.91L355.85 384.33L355.59 384.73L355.31 385.13L355.02 385.51L354.72 385.88L354.4 386.24L354.06 386.58L353.72 386.92L353.36 387.24L352.99 387.54L352.61 387.83L352.21 388.11L351.81 388.37L351.39 388.62L350.97 388.85L350.53 389.07L350.09 389.26L349.63 389.45L349.17 389.61L348.7 389.76L348.22 389.88L347.74 389.99L347.25 390.08L346.75 390.15L346.24 390.21L345.73 390.24L345.22 390.25L295.19 390.25L294.67 390.24L294.16 390.21L293.66 390.15L293.16 390.08L292.67 389.99L292.18 389.88L291.7 389.76L291.23 389.61L290.77 389.45L290.32 389.26L289.87 389.07L289.44 388.85L289.01 388.62L288.6 388.37L288.19 388.11L287.8 387.83L287.42 387.54L287.05 387.24L286.69 386.92L286.34 386.58L286.01 386.24L285.69 385.88L285.38 385.51L285.09 385.13L284.81 384.73L284.55 384.33L284.31 383.91L284.07 383.49L283.86 383.05L283.66 382.61L283.48 382.16L283.32 381.69L283.17 381.22L283.04 380.75L282.93 380.26L282.84 379.77L282.77 379.27L282.72 378.77L282.69 378.26L282.68 377.74L282.68 340.22L257.82 340.22L257.82 465.29ZM307.69 365.23L332.71 365.23L332.71 340.22L307.69 340.22L307.69 365.23Z" id="bvxACic6c"></path><path d="M471.11 82.78L471.76 82.86L472.4 82.98L473.03 83.14L473.66 83.32L474.28 83.54L474.88 83.79L475.47 84.07L476.04 84.39L476.6 84.73L477.14 85.1L477.66 85.49L478.16 85.92L478.64 86.37L479.09 86.85L479.52 87.35L479.92 87.87L480.29 88.41L480.63 88.96L480.94 89.54L481.22 90.13L481.47 90.73L481.69 91.35L481.87 91.97L482.03 92.61L482.15 93.25L482.24 93.9L482.29 94.56L482.31 95.21L482.29 95.87L482.24 96.52L482.15 97.17L482.03 97.81L481.87 98.45L481.69 99.07L481.47 99.69L481.22 100.29L480.94 100.88L480.63 101.46L480.29 102.02L479.92 102.56L479.52 103.08L479.09 103.58L478.64 104.06L478.16 104.51L477.66 104.93L477.14 105.33L476.6 105.7L476.04 106.04L475.47 106.35L474.88 106.63L474.28 106.88L473.66 107.1L473.03 107.29L472.4 107.44L471.76 107.56L471.11 107.65L470.46 107.7L469.8 107.72L469.14 107.7L468.49 107.65L467.84 107.56L467.19 107.44L466.56 107.29L465.93 107.1L465.32 106.88L464.71 106.63L464.12 106.35L463.55 106.04L462.99 105.7L462.45 105.33L461.93 104.93L461.43 104.51L460.96 104.06L460.5 103.58L460.08 103.08L459.68 102.56L459.31 102.02L458.97 101.46L458.66 100.88L458.38 100.29L458.13 99.69L457.91 99.07L457.72 98.45L457.57 97.81L457.45 97.17L457.36 96.52L457.31 95.87L457.29 95.21L457.31 94.56L457.36 93.9L457.45 93.25L457.57 92.61L457.72 91.97L457.91 91.35L458.13 90.73L458.38 90.13L458.66 89.54L458.97 88.96L459.31 88.41L459.68 87.87L460.08 87.35L460.5 86.85L460.96 86.37L461.43 85.92L461.93 85.49L462.45 85.1L462.99 84.73L463.55 84.39L464.12 84.07L464.71 83.79L465.32 83.54L465.93 83.32L466.56 83.14L467.19 82.98L467.84 82.86L468.49 82.78L469.14 82.72L469.8 82.7L470.46 82.72L471.11 82.78Z" id="b3wz4gg5EB"></path><path d="M324.5 75.22L326.62 75.44L328.71 75.74L330.78 76.12L332.81 76.58L334.82 77.12L336.79 77.73L338.73 78.42L340.63 79.18L342.5 80.02L344.32 80.92L346.11 81.89L347.85 82.93L349.55 84.03L351.21 85.2L352.81 86.42L354.37 87.71L355.88 89.05L357.33 90.45L358.73 91.91L360.07 93.41L361.36 94.97L362.59 96.58L363.75 98.23L364.85 99.93L365.89 101.67L366.86 103.46L367.77 105.29L368.6 107.15L369.36 109.06L370.05 110.99L370.67 112.97L371.21 114.97L371.67 117.01L372.05 119.07L372.35 121.16L372.56 123.28L372.69 125.42L372.74 127.58L372.69 129.74L372.56 131.88L372.35 134L372.05 136.09L371.67 138.16L371.21 140.19L370.67 142.2L370.05 144.17L369.36 146.11L368.6 148.01L367.77 149.88L366.86 151.7L365.89 153.49L364.85 155.23L363.75 156.93L362.59 158.59L361.36 160.19L360.07 161.75L358.73 163.26L357.33 164.71L355.88 166.11L354.37 167.45L352.81 168.74L351.21 169.97L349.55 171.13L347.85 172.23L346.11 173.27L344.32 174.24L342.5 175.15L340.63 175.98L338.73 176.74L336.79 177.43L334.82 178.05L332.81 178.59L330.78 179.05L328.71 179.43L326.62 179.72L324.5 179.94L322.36 180.07L320.2 180.11L318.04 180.07L315.9 179.94L313.78 179.72L311.69 179.43L309.63 179.05L307.59 178.59L305.59 178.05L303.61 177.43L301.68 176.74L299.77 175.98L297.91 175.15L296.08 174.24L294.29 173.27L292.55 172.23L290.85 171.13L289.2 169.97L287.59 168.74L286.03 167.45L284.53 166.11L283.07 164.71L281.67 163.26L280.33 161.75L279.04 160.19L277.82 158.59L276.65 156.93L275.55 155.23L274.51 153.49L273.54 151.7L272.64 149.88L271.8 148.01L271.04 146.11L270.35 144.17L269.74 142.2L269.2 140.19L268.74 138.16L268.36 136.09L268.06 134L267.84 131.88L267.71 129.74L267.67 127.58L267.71 125.42L267.84 123.28L268.06 121.16L268.36 119.07L268.74 117.01L269.2 114.97L269.74 112.97L270.35 110.99L271.04 109.06L271.8 107.15L272.64 105.29L273.54 103.46L274.51 101.67L275.55 99.93L276.65 98.23L277.82 96.58L279.04 94.97L280.33 93.41L281.67 91.91L283.07 90.45L284.53 89.05L286.03 87.71L287.59 86.42L289.2 85.2L290.85 84.03L292.55 82.93L294.29 81.89L296.08 80.92L297.91 80.02L299.77 79.18L301.68 78.42L303.61 77.73L305.59 77.12L307.59 76.58L309.63 76.12L311.69 75.74L313.78 75.44L315.9 75.22L318.04 75.09L320.2 75.05L322.36 75.09L324.5 75.22ZM317.56 100.19L316.26 100.35L314.98 100.56L313.72 100.83L312.49 101.17L311.27 101.55L310.08 101.99L308.92 102.48L307.79 103.03L306.68 103.62L305.61 104.26L304.57 104.95L303.56 105.68L302.59 106.45L301.65 107.27L300.75 108.13L299.89 109.03L299.07 109.97L298.3 110.94L297.57 111.95L296.88 112.99L296.24 114.06L295.65 115.17L295.1 116.3L294.61 117.46L294.17 118.65L293.79 119.86L293.46 121.1L293.18 122.36L292.97 123.64L292.81 124.94L292.72 126.25L292.68 127.58L292.72 128.91L292.81 130.23L292.97 131.53L293.18 132.8L293.46 134.06L293.79 135.3L294.17 136.51L294.61 137.7L295.1 138.86L295.65 139.99L296.24 141.1L296.88 142.17L297.57 143.21L298.3 144.22L299.07 145.19L299.89 146.13L300.75 147.03L301.65 147.89L302.59 148.71L303.56 149.48L304.57 150.22L305.61 150.9L306.68 151.54L307.79 152.14L308.92 152.68L310.08 153.17L311.27 153.61L312.49 154L313.72 154.33L314.98 154.6L316.26 154.82L317.56 154.97L318.87 155.07L320.2 155.1L321.53 155.07L322.85 154.97L324.15 154.82L325.43 154.6L326.68 154.33L327.92 154L329.13 153.61L330.32 153.17L331.48 152.68L332.62 152.14L333.72 151.54L334.79 150.9L335.84 150.22L336.84 149.48L337.82 148.71L338.75 147.89L339.65 147.03L340.51 146.13L341.33 145.19L342.11 144.22L342.84 143.21L343.53 142.17L344.17 141.1L344.76 139.99L345.3 138.86L345.79 137.7L346.23 136.51L346.62 135.3L346.95 134.06L347.22 132.8L347.44 131.53L347.59 130.23L347.69 128.91L347.72 127.58L347.69 126.25L347.59 124.94L347.44 123.64L347.22 122.36L346.95 121.1L346.62 119.86L346.23 118.65L345.79 117.46L345.3 116.3L344.76 115.17L344.17 114.06L343.53 112.99L342.84 111.95L342.11 110.94L341.33 109.97L340.51 109.03L339.65 108.13L338.75 107.27L337.82 106.45L336.84 105.68L335.84 104.95L334.79 104.26L333.72 103.62L332.62 103.03L331.48 102.48L330.32 101.99L329.13 101.55L327.92 101.17L326.68 100.83L325.43 100.56L324.15 100.35L322.85 100.19L321.53 100.1L320.2 100.06L318.87 100.1L317.56 100.19Z" id="i5gRexZNO"></path></defs><g><g><g><use xlink:href="#a1cN3Yihjk" opacity="1" fill="#ffffff" fill-opacity="1"></use><g><use xlink:href="#a1cN3Yihjk" opacity="1" fill-opacity="0" stroke="#000000" stroke-width="1" stroke-opacity="0"></use></g></g><g><use xlink:href="#bvxACic6c" opacity="1" fill="#ffffff" fill-opacity="1"></use><g><use xlink:href="#bvxACic6c" opacity="1" fill-opacity="0" stroke="#000000" stroke-width="1" stroke-opacity="0"></use></g></g><g><use xlink:href="#b3wz4gg5EB" opacity="1" fill="#ffffff" fill-opacity="1"></use><g><use xlink:href="#b3wz4gg5EB" opacity="1" fill-opacity="0" stroke="#000000" stroke-width="1" stroke-opacity="0"></use></g></g><g><use xlink:href="#i5gRexZNO" opacity="1" fill="#ffffff" fill-opacity="1"></use><g><use xlink:href="#i5gRexZNO" opacity="1" fill-opacity="0" stroke="#000000" stroke-width="1" stroke-opacity="0"></use></g></g></g></g></svg>