<?xml version="1.0" encoding="UTF-8" standalone="no"?>
<!DOCTYPE svg PUBLIC "-//W3C//DTD SVG 1.1//EN" "http://www.w3.org/Graphics/SVG/1.1/DTD/svg11.dtd">
<svg version="1.1" xmlns="http://www.w3.org/2000/svg" xmlns:xlink="http://www.w3.org/1999/xlink" preserveAspectRatio="xMidYMid meet" viewBox="0 0 640 640" width="640" height="640"><defs><path d="M578.79 106.89L581.48 107.16L584.13 107.54L586.75 108.02L589.33 108.61L591.87 109.29L594.38 110.07L596.84 110.95L599.25 111.92L601.62 112.97L603.94 114.12L606.21 115.35L608.42 116.67L610.58 118.07L612.67 119.55L614.71 121.11L616.69 122.74L618.6 124.44L620.45 126.22L622.22 128.06L623.93 129.98L625.56 131.95L627.12 133.99L628.6 136.09L629.99 138.25L631.31 140.46L632.54 142.73L633.69 145.05L634.75 147.41L635.72 149.83L636.59 152.29L637.37 154.79L638.06 157.34L638.64 159.92L639.12 162.54L639.5 165.19L639.78 167.88L639.94 170.59L640 173.33L640 466.67L639.94 469.41L639.78 472.13L639.5 474.81L639.12 477.46L638.64 480.08L638.06 482.66L637.37 485.21L636.59 487.71L635.72 490.17L634.75 492.59L633.69 494.95L632.54 497.27L631.31 499.54L629.99 501.75L628.59 503.91L627.12 506.01L625.56 508.05L623.93 510.02L622.22 511.94L620.45 513.78L618.6 515.56L616.69 517.26L614.71 518.89L612.67 520.45L610.57 521.93L608.42 523.33L606.2 524.65L603.94 525.88L601.62 527.03L599.25 528.08L596.84 529.05L594.38 529.93L591.87 530.71L589.33 531.39L586.75 531.98L584.13 532.46L581.48 532.84L578.79 533.11L576.08 533.28L573.33 533.33L66.67 533.33L63.92 533.28L61.21 533.11L58.52 532.84L55.87 532.46L53.25 531.98L50.67 531.39L48.13 530.71L45.62 529.93L43.16 529.05L40.75 528.08L38.38 527.03L36.06 525.88L33.79 524.65L31.58 523.33L29.42 521.93L27.33 520.45L25.29 518.89L23.31 517.26L21.4 515.56L19.55 513.78L17.78 511.94L16.07 510.02L14.44 508.05L12.88 506.01L11.4 503.91L10.01 501.75L8.69 499.54L7.45 497.27L6.31 494.95L5.25 492.59L4.28 490.17L3.41 487.71L2.63 485.21L1.94 482.66L1.36 480.08L0.87 477.46L0.5 474.81L0.22 472.13L0.06 469.41L0 466.67L0 173.33L0.06 170.59L0.22 167.88L0.5 165.19L0.87 162.54L1.36 159.92L1.94 157.34L2.63 154.79L3.41 152.29L4.28 149.83L5.25 147.41L6.31 145.05L7.45 142.73L8.69 140.46L10.01 138.25L11.4 136.09L12.88 133.99L14.44 131.95L16.07 129.98L17.78 128.06L19.55 126.22L21.4 124.44L23.31 122.74L25.29 121.11L27.33 119.55L29.42 118.07L31.58 116.67L33.79 115.35L36.06 114.12L38.38 112.97L40.75 111.92L43.16 110.95L45.62 110.07L48.13 109.29L50.67 108.61L53.25 108.02L55.87 107.54L58.52 107.16L61.21 106.89L63.92 106.72L66.67 106.67L573.33 106.67L576.08 106.72L578.79 106.89ZM65.02 133.37L63.39 133.47L61.78 133.63L60.19 133.86L58.62 134.15L57.07 134.5L55.54 134.91L54.04 135.38L52.56 135.9L51.11 136.48L49.69 137.12L48.3 137.81L46.94 138.55L45.61 139.34L44.32 140.18L43.06 141.06L41.84 142L40.65 142.98L39.5 144L38.4 145.06L37.33 146.17L36.31 147.32L35.33 148.5L34.39 149.73L33.51 150.99L32.67 152.28L31.88 153.61L31.14 154.97L30.45 156.36L29.81 157.78L29.23 159.23L28.71 160.71L28.24 162.21L27.83 163.73L27.48 165.28L27.19 166.85L26.96 168.45L26.8 170.06L26.7 171.69L26.67 173.33L26.67 466.67L26.7 468.31L26.8 469.94L26.96 471.55L27.19 473.15L27.48 474.72L27.83 476.27L28.24 477.79L28.71 479.29L29.23 480.77L29.81 482.22L30.45 483.64L31.14 485.03L31.88 486.39L32.67 487.72L33.51 489.01L34.39 490.27L35.33 491.5L36.31 492.68L37.33 493.83L38.4 494.94L39.5 496L40.65 497.02L41.84 498L43.06 498.94L44.32 499.82L45.61 500.66L46.94 501.45L48.3 502.19L49.69 502.88L51.11 503.52L52.56 504.1L54.04 504.62L55.54 505.09L57.07 505.5L58.62 505.85L60.19 506.14L61.78 506.37L63.39 506.53L65.02 506.63L66.67 506.67L573.33 506.67L574.43 506.64L575.53 506.57L576.62 506.44L577.7 506.27L578.78 506.04L579.86 505.77L580.93 505.44L581.99 505.07L583.05 504.64L584.1 504.17L585.15 503.64L586.2 503.07L587.23 502.44L588.27 501.77L589.3 501.04L590.32 500.27L591.34 499.44L592.35 498.57L593.36 497.64L594.36 496.67L595.36 495.64L596.35 494.57L597.34 493.44L598.32 492.27L599.3 491.04L600.27 489.77L601.23 488.44L602.2 487.07L603.15 485.64L604.1 484.17L605.05 482.64L605.99 481.07L606.93 479.44L607.86 477.77L608.78 476.04L609.7 474.27L610.62 472.44L611.53 470.57L612.43 468.64L613.33 466.67L613.33 173.33L613.3 171.69L613.2 170.06L613.04 168.45L612.81 166.85L612.52 165.28L612.17 163.73L611.76 162.21L611.29 160.71L610.76 159.23L610.18 157.78L609.55 156.36L608.86 154.97L608.12 153.61L607.33 152.28L606.49 150.99L605.6 149.73L604.67 148.5L603.69 147.32L602.67 146.17L601.6 145.06L600.5 144L599.35 142.98L598.16 142L596.94 141.06L595.68 140.18L594.39 139.34L593.06 138.55L591.7 137.81L590.31 137.12L588.89 136.48L587.44 135.9L585.96 135.38L584.46 134.91L582.93 134.5L581.38 134.15L579.81 133.86L578.22 133.63L576.61 133.47L574.98 133.37L573.33 133.33L66.67 133.33L65.02 133.37Z" id="e7pB4v1Kt"></path><path d="M627.76 186.71L628.3 186.77L628.83 186.84L629.35 186.94L629.87 187.05L630.38 187.19L630.88 187.35L631.37 187.52L631.85 187.71L632.33 187.93L632.79 188.16L633.25 188.4L633.69 188.66L634.12 188.94L634.54 189.24L634.95 189.55L635.34 189.88L635.72 190.22L636.09 190.57L636.45 190.94L636.79 191.32L637.12 191.72L637.43 192.13L637.72 192.55L638 192.98L638.26 193.42L638.51 193.87L638.74 194.34L638.95 194.81L639.15 195.29L639.32 195.79L639.48 196.29L639.61 196.8L639.73 197.31L639.83 197.84L639.9 198.37L639.96 198.91L639.99 199.45L640 200L640 280L639.99 280.55L639.96 281.09L639.9 281.63L639.83 282.16L639.73 282.69L639.61 283.2L639.48 283.71L639.32 284.21L639.15 284.71L638.95 285.19L638.74 285.66L638.51 286.13L638.27 286.58L638 287.02L637.72 287.45L637.43 287.87L637.12 288.28L636.79 288.68L636.45 289.06L636.09 289.43L635.73 289.78L635.34 290.12L634.95 290.45L634.54 290.76L634.12 291.06L633.69 291.34L633.25 291.6L632.79 291.84L632.33 292.07L631.86 292.29L631.37 292.48L630.88 292.65L630.38 292.81L629.87 292.95L629.35 293.06L628.83 293.16L628.3 293.23L627.76 293.29L627.22 293.32L626.67 293.33L13.33 293.33L12.78 293.32L12.24 293.29L11.7 293.23L11.17 293.16L10.65 293.06L10.13 292.95L9.62 292.81L9.12 292.65L8.63 292.48L8.15 292.29L7.67 292.07L7.21 291.84L6.75 291.6L6.31 291.34L5.88 291.06L5.46 290.76L5.05 290.45L4.66 290.12L4.28 289.78L3.91 289.43L3.55 289.06L3.21 288.68L2.88 288.28L2.57 287.87L2.28 287.45L2 287.02L1.74 286.58L1.49 286.13L1.26 285.66L1.05 285.19L0.86 284.71L0.68 284.21L0.52 283.71L0.39 283.2L0.27 282.69L0.17 282.16L0.1 281.63L0.04 281.09L0.01 280.55L0 280L0 200L0.01 199.45L0.04 198.91L0.1 198.37L0.17 197.84L0.27 197.31L0.39 196.8L0.52 196.29L0.68 195.79L0.86 195.29L1.05 194.81L1.26 194.34L1.49 193.87L1.74 193.42L2 192.98L2.28 192.55L2.57 192.13L2.88 191.72L3.21 191.32L3.55 190.94L3.91 190.57L4.28 190.22L4.66 189.88L5.05 189.55L5.46 189.24L5.88 188.94L6.31 188.66L6.75 188.4L7.21 188.16L7.67 187.93L8.15 187.71L8.63 187.52L9.12 187.35L9.62 187.19L10.13 187.05L10.65 186.94L11.17 186.84L11.7 186.77L12.24 186.71L12.78 186.68L13.33 186.67L626.67 186.67L627.22 186.68L627.76 186.71ZM26.67 266.67L613.33 266.67L613.33 213.33L26.67 213.33L26.67 266.67Z" id="b1YFQVhpB2"></path><path d="M93.33 373.33C85.97 373.33 80 379.31 80 386.67C80 394.03 85.97 400 93.33 400C109.33 400 237.33 400 253.33 400C260.69 400 266.67 394.03 266.67 386.67C266.67 379.31 260.69 373.33 253.33 373.33C221.33 373.33 109.33 373.33 93.33 373.33Z" id="a2HtAk6Fx"></path><path d="M93.33 426.67C85.97 426.67 80 432.64 80 440C80 447.36 85.97 453.33 93.33 453.33C109.33 453.33 237.33 453.33 253.33 453.33C260.69 453.33 266.67 447.36 266.67 440C266.67 432.64 260.69 426.67 253.33 426.67C221.33 426.67 109.33 426.67 93.33 426.67Z" id="d2pXuRboOK"></path><path d="M523.28 346.8L524.89 346.96L526.48 347.19L528.05 347.48L529.6 347.83L531.13 348.24L532.63 348.71L534.1 349.23L535.55 349.82L536.97 350.45L538.37 351.14L539.73 351.88L541.05 352.67L542.35 353.51L543.61 354.4L544.83 355.33L546.02 356.31L547.16 357.33L548.27 358.4L549.34 359.5L550.36 360.65L551.34 361.84L552.27 363.06L553.16 364.32L554 365.61L554.79 366.94L555.53 368.3L556.22 369.69L556.85 371.11L557.43 372.56L557.96 374.04L558.43 375.54L558.84 377.07L559.19 378.62L559.48 380.19L559.7 381.78L559.87 383.39L559.97 385.02L560 386.67L560 413.33L559.97 414.98L559.87 416.61L559.7 418.22L559.48 419.81L559.19 421.38L558.84 422.93L558.43 424.46L557.96 425.96L557.43 427.44L556.85 428.89L556.22 430.31L555.53 431.7L554.79 433.06L554 434.39L553.16 435.68L552.27 436.94L551.34 438.16L550.36 439.35L549.34 440.5L548.27 441.6L547.16 442.67L546.02 443.69L544.83 444.67L543.61 445.6L542.35 446.49L541.05 447.33L539.73 448.12L538.37 448.86L536.97 449.55L535.55 450.18L534.1 450.76L532.63 451.29L531.13 451.76L529.6 452.17L528.05 452.52L526.48 452.81L524.89 453.04L523.28 453.2L521.65 453.3L520 453.33L493.33 453.33L491.69 453.3L490.06 453.2L488.45 453.04L486.85 452.81L485.28 452.52L483.73 452.17L482.21 451.76L480.71 451.29L479.23 450.76L477.78 450.18L476.36 449.55L474.97 448.86L473.61 448.12L472.28 447.33L470.99 446.49L469.73 445.6L468.5 444.67L467.32 443.69L466.17 442.67L465.06 441.6L464 440.5L462.98 439.35L462 438.16L461.06 436.94L460.18 435.68L459.34 434.39L458.55 433.06L457.81 431.7L457.12 430.31L456.48 428.89L455.9 427.44L455.38 425.96L454.91 424.46L454.5 422.93L454.15 421.38L453.86 419.81L453.63 418.22L453.47 416.61L453.37 414.98L453.33 413.33L453.33 386.67L453.37 385.02L453.47 383.39L453.63 381.78L453.86 380.19L454.15 378.62L454.5 377.07L454.91 375.54L455.38 374.04L455.9 372.56L456.48 371.11L457.12 369.69L457.81 368.3L458.55 366.94L459.34 365.61L460.18 364.32L461.06 363.06L462 361.84L462.98 360.65L464 359.5L465.06 358.4L466.17 357.33L467.32 356.31L468.5 355.33L469.73 354.39L470.99 353.51L472.28 352.67L473.61 351.88L474.97 351.14L476.36 350.45L477.78 349.81L479.23 349.23L480.71 348.71L482.21 348.24L483.73 347.83L485.28 347.48L486.85 347.19L488.45 346.96L490.06 346.8L491.69 346.7L493.33 346.67L520 346.67L521.65 346.7L523.28 346.8ZM492.74 373.35L492.15 373.39L491.57 373.45L491 373.54L490.44 373.65L489.88 373.79L489.34 373.94L488.8 374.13L488.28 374.33L487.76 374.55L487.26 374.8L486.77 375.06L486.29 375.35L485.82 375.65L485.37 375.97L484.93 376.31L484.51 376.67L484.1 377.05L483.71 377.44L483.34 377.85L482.98 378.27L482.64 378.71L482.32 379.16L482.01 379.62L481.73 380.1L481.46 380.59L481.22 381.09L480.99 381.61L480.79 382.13L480.61 382.67L480.45 383.22L480.32 383.77L480.2 384.33L480.12 384.91L480.05 385.49L480.01 386.07L480 386.67L480 413.33L480.01 413.93L480.05 414.51L480.12 415.09L480.2 415.67L480.32 416.23L480.45 416.79L480.61 417.33L480.79 417.87L480.99 418.39L481.22 418.91L481.46 419.41L481.73 419.9L482.01 420.38L482.32 420.84L482.64 421.3L482.98 421.73L483.34 422.16L483.71 422.56L484.1 422.95L484.51 423.33L484.93 423.69L485.37 424.03L485.82 424.35L486.29 424.65L486.77 424.94L487.26 425.2L487.76 425.45L488.28 425.67L488.8 425.88L489.34 426.06L489.88 426.22L490.44 426.35L491 426.46L491.57 426.55L492.15 426.62L492.74 426.65L493.33 426.67L520 426.67L520.4 426.66L520.79 426.63L521.18 426.58L521.58 426.51L521.96 426.42L522.35 426.32L522.74 426.19L523.12 426.04L523.5 425.88L523.88 425.69L524.25 425.49L524.63 425.26L525 425.02L525.37 424.76L525.74 424.48L526.11 424.17L526.47 423.85L526.83 423.51L527.19 423.15L527.55 422.77L527.91 422.37L528.26 421.95L528.61 421.52L528.96 421.06L529.31 420.58L529.66 420.08L530 419.57L530.35 419.03L530.69 418.48L531.02 417.9L531.36 417.31L531.69 416.69L532.03 416.06L532.36 415.41L532.68 414.74L533.01 414.04L533.33 413.33L533.33 386.67L533.32 386.07L533.28 385.49L533.22 384.91L533.13 384.33L533.02 383.77L532.88 383.22L532.72 382.67L532.54 382.13L532.34 381.61L532.12 381.09L531.87 380.59L531.61 380.1L531.32 379.62L531.02 379.16L530.69 378.71L530.35 378.27L530 377.85L529.62 377.44L529.23 377.05L528.82 376.67L528.4 376.31L527.96 375.97L527.51 375.65L527.05 375.35L526.57 375.06L526.08 374.8L525.57 374.55L525.06 374.33L524.53 374.13L524 373.94L523.45 373.79L522.9 373.65L522.33 373.54L521.76 373.45L521.18 373.39L520.59 373.35L520 373.33L493.33 373.33L492.74 373.35Z" id="cjxvCp2jz"></path></defs><g><g><g><use xlink:href="#e7pB4v1Kt" opacity="1" fill="#8b8b8b" fill-opacity="1"></use><g><use xlink:href="#e7pB4v1Kt" opacity="1" fill-opacity="0" stroke="#000000" stroke-width="1" stroke-opacity="0"></use></g></g><g><use xlink:href="#b1YFQVhpB2" opacity="1" fill="#8b8b8b" fill-opacity="1"></use><g><use xlink:href="#b1YFQVhpB2" opacity="1" fill-opacity="0" stroke="#000000" stroke-width="1" stroke-opacity="0"></use></g></g><g><use xlink:href="#a2HtAk6Fx" opacity="1" fill="#8b8b8b" fill-opacity="1"></use><g><use xlink:href="#a2HtAk6Fx" opacity="1" fill-opacity="0" stroke="#000000" stroke-width="1" stroke-opacity="0"></use></g></g><g><use xlink:href="#d2pXuRboOK" opacity="1" fill="#8b8b8b" fill-opacity="1"></use><g><use xlink:href="#d2pXuRboOK" opacity="1" fill-opacity="0" stroke="#000000" stroke-width="1" stroke-opacity="0"></use></g></g><g><use xlink:href="#cjxvCp2jz" opacity="1" fill="#8b8b8b" fill-opacity="1"></use><g><use xlink:href="#cjxvCp2jz" opacity="1" fill-opacity="0" stroke="#000000" stroke-width="1" stroke-opacity="0"></use></g></g></g></g></svg>